<svg width="685" height="294" viewBox="0 0 685 294" fill="none" xmlns="http://www.w3.org/2000/svg">
<path d="M0 60.3795V87.9126L19.9312 88.2749L18.1193 189.531L40.3154 189.26L41.5838 88.7277L64.8671 89.1806V61.7381L0 60.3795Z" fill="white"/>
<path d="M73.9267 89.6334L75.8293 190.346L92.499 190.437L97.7536 89.5428L73.9267 89.6334ZM85.8855 81.301C88.7242 81.301 91.1401 80.2746 93.1332 78.2217C95.1867 76.2292 96.2135 73.814 96.2135 70.9761C96.2135 68.0779 95.1867 65.6325 93.1332 63.64C91.1401 61.6475 88.7242 60.6512 85.8855 60.6512C82.9864 60.6512 80.5403 61.6475 78.5471 63.64C76.554 65.6325 75.5575 68.0779 75.5575 70.9761C75.5575 73.814 76.554 76.2292 78.5471 78.2217C80.5403 80.2746 82.9864 81.301 85.8855 81.301Z" fill="white"/>
<path d="M106.904 60.3795V87.9126L126.835 88.2749L125.023 189.531L147.219 189.26L148.488 88.7277L171.771 89.1806V61.7381L106.904 60.3795Z" fill="white"/>
<path d="M212.902 58.5681L184.092 60.1984L164.523 187.629L185.542 189.894L187.988 174.225L207.919 173.229L210.909 192.973L232.38 192.52L212.902 58.5681ZM193.061 141.892L198.135 109.196L203.208 142.345L193.061 141.892Z" fill="white"/>
<path d="M313.554 125.227C313.554 114.6 316.605 105.362 322.705 97.5129C328.684 89.6636 336.083 85.2257 344.901 84.1992L340.824 58.4776C335.086 59.2625 329.53 60.9229 324.154 63.4589C316.846 66.9609 310.414 71.8818 304.857 78.2217C293.321 91.2637 287.553 106.932 287.553 125.227C287.553 143.522 293.321 159.191 304.857 172.233C310.414 178.572 316.846 183.493 324.154 186.995C330.073 189.833 336.234 191.584 342.636 192.248L345.173 158.194C335.63 157.108 328.171 154.058 322.795 149.047C316.635 143.311 313.554 135.371 313.554 125.227Z" fill="white"/>
<path d="M411.852 59.5644L354.232 60.4701L356.769 191.343H413.935L411.852 166.889L379.599 168.429L380.868 138.903L403.789 140.081V117.348L380.143 115.899L381.321 89.5428L410.13 91.5354L411.852 59.5644Z" fill="white"/>
<path d="M440.933 125.227C440.933 114.6 443.983 105.362 450.083 97.5129C456.063 89.6636 463.461 85.2257 472.279 84.1992L468.203 58.4776C462.465 59.2625 456.908 60.9229 451.533 63.4589C444.225 66.9609 437.792 71.8818 432.236 78.2217C420.7 91.2637 414.932 106.932 414.932 125.227C414.932 143.522 420.7 159.191 432.236 172.233C437.792 178.572 444.225 183.493 451.533 186.995C457.452 189.833 463.612 191.584 470.015 192.248L472.551 158.194C463.008 157.108 455.549 154.058 450.174 149.047C444.013 143.311 440.933 135.371 440.933 125.227Z" fill="white"/>
<path d="M481.611 89.6334L483.513 190.346L500.183 190.437L505.438 89.5428L481.611 89.6334ZM493.57 81.301C496.408 81.301 498.824 80.2746 500.817 78.2217C502.871 76.2292 503.898 73.814 503.898 70.9761C503.898 68.0779 502.871 65.6325 500.817 63.64C498.824 61.6475 496.408 60.6512 493.57 60.6512C490.671 60.6512 488.224 61.6475 486.231 63.64C484.238 65.6325 483.242 68.0779 483.242 70.9761C483.242 73.814 484.238 76.2292 486.231 78.2217C488.224 80.2746 490.671 81.301 493.57 81.301Z" fill="white"/>
<path d="M514.588 61.0135L520.024 190.437L540.499 190.165V190.075L575.016 189.712V164.444L541.133 166.617L544.032 60.3795L514.588 61.0135Z" fill="white"/>
<path d="M584.166 89.6334L586.069 190.346L602.738 190.437L607.993 89.5428L584.166 89.6334ZM596.125 81.301C598.964 81.301 601.379 80.2746 603.373 78.2217C605.426 76.2292 606.453 73.814 606.453 70.9761C606.453 68.0779 605.426 65.6325 603.373 63.64C601.379 61.6475 598.964 60.6512 596.125 60.6512C593.226 60.6512 590.78 61.6475 588.787 63.64C586.793 65.6325 585.797 68.0779 585.797 70.9761C585.797 73.814 586.793 76.2292 588.787 78.2217C590.78 80.2746 593.226 81.301 596.125 81.301Z" fill="white"/>
<path d="M665.522 58.5681L636.712 60.1984L617.143 187.629L638.162 189.894L640.608 174.225L660.539 173.229L663.529 192.973L685 192.52L665.522 58.5681ZM645.681 141.892L650.755 109.196L655.828 142.345L645.681 141.892Z" fill="white"/>
<path d="M7.68258 0L0.283869 0.241518L0.0724772 43.6846L6.71622 43.7148L7.2296 15.91L15.1115 28.4689L17.7992 32.7257L28.6104 15.6685L27.946 43.8959L35.8581 43.8053V43.745L35.6467 0.181139L28.1876 0.120759L17.9502 19.2913L7.68258 0Z" fill="white"/>
<path d="M47.6054 0.905693L38.9082 1.05664L49.2966 26.9595L48.8738 42.9298L56.5745 42.9902L56.7859 26.9595L66.3589 1.1774L58.2052 0.996262L52.9808 16.1817L47.6054 0.905693Z" fill="white"/>
<path d="M215.994 267.617C216.507 266.968 216.794 266.176 216.855 265.24C216.9 264.304 216.696 263.496 216.243 262.817C215.79 262.123 215.224 261.76 214.545 261.73L214.205 268.523C214.884 268.553 215.481 268.251 215.994 267.617Z" fill="white"/>
<path d="M215.858 248.801C215.511 248.273 215.073 248.001 214.545 247.986L214.341 253.239C214.869 253.269 215.33 253.036 215.722 252.537C216.115 252.024 216.326 251.405 216.356 250.681C216.387 249.956 216.221 249.33 215.858 248.801Z" fill="white"/>
<path d="M322.309 248.371L320.618 259.27L324 259.421L322.309 248.371Z" fill="white"/>
<path d="M392.733 262.892C394.384 261.182 395.33 258.334 395.571 254.349C395.753 251.37 395.37 248.482 394.424 245.684C393.296 242.263 391.877 240.582 390.166 240.643C389.461 240.663 388.757 241.035 388.052 241.76C386.723 243.068 385.737 245.332 385.092 248.552C384.629 250.988 384.619 253.725 385.062 256.764C385.445 259.34 386.18 261.313 387.267 262.681C387.992 263.587 388.887 264.06 389.954 264.1C391.001 264.12 391.927 263.718 392.733 262.892Z" fill="white"/>
<path d="M441.534 248.371L439.843 259.27L443.225 259.421L441.534 248.371Z" fill="white"/>
<path d="M468.471 262.892C470.122 261.182 471.069 258.334 471.31 254.349C471.491 251.37 471.109 248.482 470.163 245.684C469.035 242.263 467.616 240.582 465.905 240.643C465.2 240.663 464.495 241.035 463.791 241.76C462.462 243.068 461.475 245.332 460.831 248.552C460.368 250.988 460.358 253.725 460.801 256.764C461.183 259.34 461.918 261.313 463.005 262.681C463.73 263.587 464.626 264.06 465.693 264.1C466.74 264.12 467.666 263.718 468.471 262.892Z" fill="white"/>
<path fill-rule="evenodd" clip-rule="evenodd" d="M518.079 211.304L168.642 217.487V290.909L518.079 294V211.304ZM221.113 255.073C220.403 256.341 219.98 256.915 219.844 256.794C222.683 259.089 224.072 261.821 224.012 264.991C223.967 267.995 222.872 270.538 220.728 272.621C218.569 274.704 215.987 275.723 212.982 275.678L208.429 275.61L208.588 242.303H210.105C210.241 242.318 210.324 242.326 210.354 242.326C211.109 242.341 211.766 242.363 212.325 242.394C213.82 242.514 215.111 242.779 216.198 243.186C217.632 243.73 218.878 244.56 219.935 245.677C220.75 246.552 221.354 247.518 221.747 248.575C222.26 249.964 222.321 251.443 221.928 253.013C221.747 253.737 221.475 254.424 221.113 255.073ZM226.367 243.548L232.89 243.435L236.922 254.892L240.84 243.503L246.955 243.639L239.776 262.975L239.617 274.999L233.842 274.953L234.159 262.975L226.367 243.548ZM276.679 244.477C274.645 247.093 273.629 250.173 273.629 253.715C273.629 257.096 274.655 259.743 276.709 261.655C278.501 263.325 280.987 264.342 284.168 264.704L283.322 276.055C281.188 275.834 279.135 275.25 277.162 274.304C274.726 273.137 272.582 271.497 270.729 269.383C266.884 265.036 264.961 259.813 264.961 253.715C264.961 247.616 266.884 242.394 270.729 238.046C272.582 235.933 274.726 234.293 277.162 233.125C278.954 232.28 280.806 231.727 282.718 231.465L284.077 240.039C281.138 240.381 278.672 241.86 276.679 244.477ZM300.958 250.756L300.445 231.978H308.085L307.179 275.753L301.623 275.542L301.2 259.813L294.526 259.753L294.405 275.753L287.188 275.542L287.822 231.978H294.738L294.587 250.122L300.958 250.756ZM317.628 232.039L327.231 231.495L333.724 276.146L326.567 276.297L325.571 269.715L318.927 270.047L318.111 275.27L311.105 274.516L317.628 232.039ZM337.318 241.971V232.854L357.823 233.397H359.182L347.706 266.394L358.125 265.851L358.699 274.848L336.774 274.697L349.609 240.794L337.318 241.971ZM390.196 231.888C392.29 231.888 394.243 232.652 396.055 234.182C397.504 235.41 398.752 237.09 399.799 239.224C401.813 243.269 402.819 248.079 402.819 253.654C402.819 259.25 401.813 264.07 399.799 268.115C398.752 270.249 397.504 271.929 396.055 273.157C394.243 274.687 392.29 275.451 390.196 275.451C388.082 275.451 386.129 274.687 384.337 273.157C382.868 271.929 381.609 270.249 380.563 268.115C378.549 264.07 377.543 259.25 377.543 253.654C377.543 248.079 378.549 243.269 380.563 239.224C381.609 237.09 382.868 235.41 384.337 234.182C386.129 232.652 388.082 231.888 390.196 231.888ZM405.869 232.914L414.566 232.763L419.942 248.039L425.166 232.854L433.32 233.035L423.747 258.817L423.536 274.848L415.835 274.787L416.258 258.817L405.869 232.914ZM436.853 232.039L446.456 231.495L452.949 276.146L445.792 276.297L444.796 269.715L438.152 270.047L437.336 275.27L430.33 274.516L436.853 232.039ZM465.935 231.888C468.029 231.888 469.981 232.652 471.793 234.182C473.243 235.41 474.491 237.09 475.538 239.224C477.551 243.269 478.558 248.079 478.558 253.654C478.558 259.25 477.551 264.07 475.538 268.115C474.491 270.249 473.243 271.929 471.793 273.157C469.981 274.687 468.029 275.451 465.935 275.451C463.821 275.451 461.868 274.687 460.076 273.157C458.606 271.929 457.348 270.249 456.301 268.115C454.288 264.07 453.281 259.25 453.281 253.654C453.281 248.079 454.288 243.269 456.301 239.224C457.348 237.09 458.606 235.41 460.076 234.182C461.868 232.652 463.821 231.888 465.935 231.888Z" fill="white"/>
</svg>
