<svg width="1059" height="88" viewBox="0 0 1059 88" fill="none" xmlns="http://www.w3.org/2000/svg"><path d="M29.5433 35H23.3783L7.80832 15.245V35H0.65332V3.05001H6.81832L22.3433 22.805V3.05001H29.5433V35Z" fill="#fff"/><path d="M53.9467 32.12C51.6367 34.37 48.8467 35.495 45.5767 35.495C42.3067 35.495 39.5167 34.37 37.2067 32.12C34.8967 29.84 33.7417 27.05 33.7417 23.75C33.7417 20.45 34.8967 17.675 37.2067 15.425C39.5167 13.145 42.3067 12.005 45.5767 12.005C48.8467 12.005 51.6367 13.145 53.9467 15.425C56.2567 17.675 57.4117 20.45 57.4117 23.75C57.4117 27.05 56.2567 29.84 53.9467 32.12ZM41.9767 27.665C42.9367 28.655 44.1367 29.15 45.5767 29.15C47.0167 29.15 48.2017 28.655 49.1317 27.665C50.0917 26.675 50.5717 25.37 50.5717 23.75C50.5717 22.13 50.0917 20.825 49.1317 19.835C48.2017 18.845 47.0167 18.35 45.5767 18.35C44.1367 18.35 42.9367 18.845 41.9767 19.835C41.0467 20.825 40.5817 22.13 40.5817 23.75C40.5817 25.37 41.0467 26.675 41.9767 27.665Z" fill="#fff"/><path d="M101.174 35H95.0092L79.4392 15.245V35H72.2842V3.05001H78.4492L93.9742 22.805V3.05001H101.174V35Z" fill="#fff"/><path d="M125.578 32.12C123.268 34.37 120.478 35.495 117.208 35.495C113.938 35.495 111.148 34.37 108.838 32.12C106.528 29.84 105.373 27.05 105.373 23.75C105.373 20.45 106.528 17.675 108.838 15.425C111.148 13.145 113.938 12.005 117.208 12.005C120.478 12.005 123.268 13.145 125.578 15.425C127.888 17.675 129.043 20.45 129.043 23.75C129.043 27.05 127.888 29.84 125.578 32.12ZM113.608 27.665C114.568 28.655 115.768 29.15 117.208 29.15C118.648 29.15 119.833 28.655 120.763 27.665C121.723 26.675 122.203 25.37 122.203 23.75C122.203 22.13 121.723 20.825 120.763 19.835C119.833 18.845 118.648 18.35 117.208 18.35C115.768 18.35 114.568 18.845 113.608 19.835C112.678 20.825 112.213 22.13 112.213 23.75C112.213 25.37 112.678 26.675 113.608 27.665Z" fill="#fff"/><path d="M144.17 35.27C141.53 35.27 139.355 34.55 137.645 33.11C135.965 31.64 135.125 29.525 135.125 26.765V18.395H130.625V12.5H135.125V6.24501H141.92V12.5H148.22V18.395H141.92V25.37C141.92 26.72 142.22 27.695 142.82 28.295C143.42 28.895 144.395 29.195 145.745 29.195C146.765 29.195 147.59 29.06 148.22 28.79V34.82C147.23 35.12 145.88 35.27 144.17 35.27Z" fill="#fff"/><path d="M155.89 9.44001C154.75 9.44001 153.76 9.03501 152.92 8.22501C152.08 7.38501 151.66 6.38001 151.66 5.21001C151.66 4.04001 152.08 3.05001 152.92 2.24001C153.76 1.40001 154.75 0.980011 155.89 0.980011C157.09 0.980011 158.095 1.40001 158.905 2.24001C159.745 3.05001 160.165 4.04001 160.165 5.21001C160.165 6.38001 159.745 7.38501 158.905 8.22501C158.095 9.03501 157.09 9.44001 155.89 9.44001ZM152.515 35V12.5H159.31V35H152.515Z" fill="#fff"/><path d="M167.427 35V18.395H162.927V12.5H167.427V10.025C167.427 7.26501 168.282 5.07501 169.992 3.45501C171.732 1.80501 173.892 0.980011 176.472 0.980011C178.092 0.980011 179.442 1.14501 180.522 1.47501V7.46001C179.892 7.19001 179.082 7.05501 178.092 7.05501C176.712 7.05501 175.722 7.35501 175.122 7.95501C174.522 8.55501 174.222 9.53001 174.222 10.88V12.5H180.522V18.395H174.222V35H167.427ZM187.362 9.44001C186.222 9.44001 185.232 9.03501 184.392 8.22501C183.552 7.38501 183.132 6.38001 183.132 5.21001C183.132 4.04001 183.552 3.05001 184.392 2.24001C185.232 1.40001 186.222 0.980011 187.362 0.980011C188.562 0.980011 189.567 1.40001 190.377 2.24001C191.217 3.05001 191.637 4.04001 191.637 5.21001C191.637 6.38001 191.217 7.38501 190.377 8.22501C189.567 9.03501 188.562 9.44001 187.362 9.44001ZM183.987 35V12.5H190.782V35H183.987Z" fill="#fff"/><path d="M206.992 35.495C203.632 35.495 200.797 34.385 198.487 32.165C196.177 29.945 195.022 27.14 195.022 23.75C195.022 20.36 196.177 17.555 198.487 15.335C200.797 13.115 203.632 12.005 206.992 12.005C209.302 12.005 211.432 12.605 213.382 13.805C215.332 15.005 216.787 16.595 217.747 18.575L211.807 21.725C210.817 19.475 209.212 18.35 206.992 18.35C205.552 18.35 204.337 18.86 203.347 19.88C202.357 20.9 201.862 22.19 201.862 23.75C201.862 25.31 202.357 26.6 203.347 27.62C204.337 28.64 205.552 29.15 206.992 29.15C209.212 29.15 210.817 28.025 211.807 25.775L217.747 28.925C216.787 30.905 215.332 32.495 213.382 33.695C211.432 34.895 209.302 35.495 206.992 35.495Z" fill="#fff"/><path d="M230.467 35.495C227.557 35.495 225.082 34.34 223.042 32.03C221.032 29.72 220.027 26.96 220.027 23.75C220.027 20.54 221.032 17.78 223.042 15.47C225.082 13.16 227.557 12.005 230.467 12.005C233.047 12.005 235.087 12.92 236.587 14.75V12.5H243.382V35H236.587V32.75C235.087 34.58 233.047 35.495 230.467 35.495ZM228.262 27.755C229.222 28.805 230.467 29.33 231.997 29.33C233.527 29.33 234.757 28.805 235.687 27.755C236.647 26.705 237.127 25.37 237.127 23.75C237.127 22.13 236.647 20.795 235.687 19.745C234.757 18.695 233.527 18.17 231.997 18.17C230.467 18.17 229.222 18.695 228.262 19.745C227.332 20.795 226.867 22.13 226.867 23.75C226.867 25.37 227.332 26.705 228.262 27.755Z" fill="#fff"/><path d="M260.45 35.27C257.81 35.27 255.635 34.55 253.925 33.11C252.245 31.64 251.405 29.525 251.405 26.765V18.395H246.905V12.5H251.405V6.24501H258.2V12.5H264.5V18.395H258.2V25.37C258.2 26.72 258.5 27.695 259.1 28.295C259.7 28.895 260.675 29.195 262.025 29.195C263.045 29.195 263.87 29.06 264.5 28.79V34.82C263.51 35.12 262.16 35.27 260.45 35.27Z" fill="#fff"/><path d="M272.169 9.44001C271.029 9.44001 270.039 9.03501 269.199 8.22501C268.359 7.38501 267.939 6.38001 267.939 5.21001C267.939 4.04001 268.359 3.05001 269.199 2.24001C270.039 1.40001 271.029 0.980011 272.169 0.980011C273.369 0.980011 274.374 1.40001 275.184 2.24001C276.024 3.05001 276.444 4.04001 276.444 5.21001C276.444 6.38001 276.024 7.38501 275.184 8.22501C274.374 9.03501 273.369 9.44001 272.169 9.44001ZM268.794 35V12.5H275.589V35H268.794Z" fill="#fff"/><path d="M299.996 32.12C297.686 34.37 294.896 35.495 291.626 35.495C288.356 35.495 285.566 34.37 283.256 32.12C280.946 29.84 279.791 27.05 279.791 23.75C279.791 20.45 280.946 17.675 283.256 15.425C285.566 13.145 288.356 12.005 291.626 12.005C294.896 12.005 297.686 13.145 299.996 15.425C302.306 17.675 303.461 20.45 303.461 23.75C303.461 27.05 302.306 29.84 299.996 32.12ZM288.026 27.665C288.986 28.655 290.186 29.15 291.626 29.15C293.066 29.15 294.251 28.655 295.181 27.665C296.141 26.675 296.621 25.37 296.621 23.75C296.621 22.13 296.141 20.825 295.181 19.835C294.251 18.845 293.066 18.35 291.626 18.35C290.186 18.35 288.986 18.845 288.026 19.835C287.096 20.825 286.631 22.13 286.631 23.75C286.631 25.37 287.096 26.675 288.026 27.665Z" fill="#fff"/><path d="M307.642 35V12.5H314.437V14.795C315.727 12.935 317.812 12.005 320.692 12.005C323.422 12.005 325.552 12.92 327.082 14.75C328.642 16.58 329.422 18.995 329.422 21.995V35H322.627V23.165C322.627 19.835 321.412 18.17 318.982 18.17C317.632 18.17 316.537 18.665 315.697 19.655C314.857 20.645 314.437 22.115 314.437 24.065V35H307.642Z" fill="#fff"/><path d="M342.452 35.495C338.282 35.495 335.162 34.145 333.092 31.445L337.592 27.35C338.672 28.91 340.292 29.69 342.452 29.69C343.832 29.69 344.522 29.27 344.522 28.43C344.522 28.04 344.342 27.725 343.982 27.485C343.622 27.215 342.887 26.945 341.777 26.675L340.292 26.315C338.162 25.805 336.542 24.905 335.432 23.615C334.352 22.325 333.842 20.765 333.902 18.935C333.962 16.865 334.787 15.2 336.377 13.94C337.997 12.65 340.052 12.005 342.542 12.005C346.022 12.005 348.662 13.25 350.462 15.74L346.052 19.385C345.092 18.185 343.907 17.585 342.497 17.585C341.267 17.585 340.652 17.975 340.652 18.755C340.652 19.475 341.282 20.015 342.542 20.375L344.612 20.915C346.772 21.485 348.407 22.34 349.517 23.48C350.657 24.59 351.227 26.105 351.227 28.025C351.227 30.155 350.372 31.94 348.662 33.38C346.982 34.79 344.912 35.495 342.452 35.495Z" fill="#fff"/><path d="M362.969 33.65L357.794 41.975H353.879L357.254 35C356.444 34.7 355.754 34.145 355.184 33.335C354.614 32.495 354.329 31.565 354.329 30.545C354.329 29.225 354.794 28.1 355.724 27.17C356.684 26.21 357.824 25.73 359.144 25.73C360.464 25.73 361.589 26.21 362.519 27.17C363.479 28.1 363.959 29.225 363.959 30.545C363.959 31.445 363.629 32.48 362.969 33.65Z" fill="#fff"/><path d="M408.044 35H401.879L386.309 15.245V35H379.154V3.05001H385.319L400.844 22.805V3.05001H408.044V35Z" fill="#fff"/><path d="M432.448 32.12C430.138 34.37 427.348 35.495 424.078 35.495C420.808 35.495 418.018 34.37 415.708 32.12C413.398 29.84 412.243 27.05 412.243 23.75C412.243 20.45 413.398 17.675 415.708 15.425C418.018 13.145 420.808 12.005 424.078 12.005C427.348 12.005 430.138 13.145 432.448 15.425C434.758 17.675 435.913 20.45 435.913 23.75C435.913 27.05 434.758 29.84 432.448 32.12ZM420.478 27.665C421.438 28.655 422.638 29.15 424.078 29.15C425.518 29.15 426.703 28.655 427.633 27.665C428.593 26.675 429.073 25.37 429.073 23.75C429.073 22.13 428.593 20.825 427.633 19.835C426.703 18.845 425.518 18.35 424.078 18.35C422.638 18.35 421.438 18.845 420.478 19.835C419.548 20.825 419.083 22.13 419.083 23.75C419.083 25.37 419.548 26.675 420.478 27.665Z" fill="#fff"/><path d="M460.325 35.54C457.805 35.54 455.51 35.045 453.44 34.055C451.4 33.035 449.75 31.625 448.49 29.825L453.98 25.19C454.76 26.3 455.75 27.185 456.95 27.845C458.18 28.505 459.395 28.835 460.595 28.835C461.765 28.835 462.695 28.595 463.385 28.115C464.105 27.605 464.465 26.96 464.465 26.18C464.465 25.37 464.12 24.665 463.43 24.065C462.74 23.465 461.6 22.895 460.01 22.355L457.76 21.59C452.39 19.79 449.705 16.715 449.705 12.365C449.705 9.33501 450.725 6.93501 452.765 5.16501C454.835 3.39501 457.49 2.51001 460.73 2.51001C464.87 2.51001 468.305 3.98001 471.035 6.92001L466.355 11.87C464.885 10.1 463.04 9.21501 460.82 9.21501C459.77 9.21501 458.855 9.42501 458.075 9.84501C457.325 10.265 456.95 10.865 456.95 11.645C456.95 12.455 457.31 13.115 458.03 13.625C458.75 14.105 460.04 14.675 461.9 15.335L464.15 16.145C469.25 17.975 471.785 21.155 471.755 25.685C471.755 28.595 470.675 30.965 468.515 32.795C466.385 34.625 463.655 35.54 460.325 35.54Z" fill="#fff"/><path d="M479.283 9.44001C478.143 9.44001 477.153 9.03501 476.313 8.22501C475.473 7.38501 475.053 6.38001 475.053 5.21001C475.053 4.04001 475.473 3.05001 476.313 2.24001C477.153 1.40001 478.143 0.980011 479.283 0.980011C480.483 0.980011 481.488 1.40001 482.298 2.24001C483.138 3.05001 483.558 4.04001 483.558 5.21001C483.558 6.38001 483.138 7.38501 482.298 8.22501C481.488 9.03501 480.483 9.44001 479.283 9.44001ZM475.908 35V12.5H482.703V35H475.908Z" fill="#fff"/><path d="M495.321 27.08C496.341 28.04 497.556 28.52 498.966 28.52C500.376 28.52 501.591 28.04 502.611 27.08C503.631 26.12 504.141 24.875 504.141 23.345C504.141 21.815 503.631 20.57 502.611 19.61C501.591 18.65 500.376 18.17 498.966 18.17C497.556 18.17 496.341 18.65 495.321 19.61C494.301 20.57 493.791 21.815 493.791 23.345C493.791 24.875 494.301 26.12 495.321 27.08ZM498.111 44.855C493.701 44.855 490.221 43.745 487.671 41.525L491.226 36.44C493.116 38.09 495.381 38.915 498.021 38.915C499.761 38.915 501.126 38.375 502.116 37.295C503.106 36.215 503.601 34.85 503.601 33.2V31.94C503.061 32.75 502.236 33.41 501.126 33.92C500.046 34.43 498.831 34.685 497.481 34.685C494.601 34.685 492.126 33.59 490.056 31.4C487.986 29.18 486.951 26.495 486.951 23.345C486.951 20.195 487.986 17.525 490.056 15.335C492.126 13.115 494.601 12.005 497.481 12.005C498.831 12.005 500.046 12.26 501.126 12.77C502.236 13.28 503.061 13.94 503.601 14.75V12.5H510.396V33.11C510.396 37.07 509.271 40.01 507.021 41.93C504.801 43.88 501.831 44.855 498.111 44.855Z" fill="#fff"/><path d="M515.942 35V12.5H522.737V14.795C524.027 12.935 526.112 12.005 528.992 12.005C531.722 12.005 533.852 12.92 535.382 14.75C536.942 16.58 537.722 18.995 537.722 21.995V35H530.927V23.165C530.927 19.835 529.712 18.17 527.282 18.17C525.932 18.17 524.837 18.665 523.997 19.655C523.157 20.645 522.737 22.115 522.737 24.065V35H515.942Z" fill="#fff"/><path d="M552.103 35.495C549.193 35.495 546.718 34.34 544.678 32.03C542.668 29.72 541.663 26.96 541.663 23.75C541.663 20.54 542.668 17.78 544.678 15.47C546.718 13.16 549.193 12.005 552.103 12.005C554.683 12.005 556.723 12.92 558.223 14.75V12.5H565.018V35H558.223V32.75C556.723 34.58 554.683 35.495 552.103 35.495ZM549.898 27.755C550.858 28.805 552.103 29.33 553.633 29.33C555.163 29.33 556.393 28.805 557.323 27.755C558.283 26.705 558.763 25.37 558.763 23.75C558.763 22.13 558.283 20.795 557.323 19.745C556.393 18.695 555.163 18.17 553.633 18.17C552.103 18.17 550.858 18.695 549.898 19.745C548.968 20.795 548.503 22.13 548.503 23.75C548.503 25.37 548.968 26.705 549.898 27.755Z" fill="#fff"/><path d="M570.61 35V1.25001H577.405V35H570.61Z" fill="#fff"/><path d="M590.518 33.65L585.343 41.975H581.428L584.803 35C583.993 34.7 583.303 34.145 582.733 33.335C582.163 32.495 581.878 31.565 581.878 30.545C581.878 29.225 582.343 28.1 583.273 27.17C584.233 26.21 585.373 25.73 586.693 25.73C588.013 25.73 589.138 26.21 590.068 27.17C591.028 28.1 591.508 29.225 591.508 30.545C591.508 31.445 591.178 32.48 590.518 33.65Z" fill="#fff"/><path d="M606.703 35V3.05001H626.368V9.89001H613.858V15.65H623.623V22.49H613.858V35H606.703Z" fill="#fff"/><path d="M636.941 35.495C634.211 35.495 632.111 34.58 630.641 32.75C629.171 30.92 628.436 28.445 628.436 25.325V12.5H635.231V24.155C635.231 27.605 636.386 29.33 638.696 29.33C641.516 29.33 642.926 27.365 642.926 23.435V12.5H649.721V35H642.926V32.705C641.636 34.565 639.641 35.495 636.941 35.495Z" fill="#fff"/><path d="M655.293 35V1.25001H662.088V35H655.293Z" fill="#fff"/><path d="M667.685 35V1.25001H674.481V35H667.685Z" fill="#fff"/><path d="M690.771 35V3.05001H702.786C705.396 3.05001 707.63 3.98001 709.49 5.84001C711.35 7.67001 712.281 9.90501 712.281 12.545C712.281 14.675 711.516 16.505 709.986 18.035C711.366 18.755 712.461 19.775 713.271 21.095C714.111 22.415 714.531 23.915 714.531 25.595C714.531 28.235 713.6 30.47 711.74 32.3C709.88 34.1 707.57 35 704.81 35H690.771ZM697.926 28.43H704.226C705.186 28.43 705.981 28.13 706.611 27.53C707.241 26.9 707.555 26.135 707.555 25.235C707.555 24.335 707.225 23.585 706.565 22.985C705.935 22.355 705.14 22.04 704.18 22.04H697.926V28.43ZM697.926 15.965H701.976C702.936 15.965 703.731 15.665 704.361 15.065C704.991 14.465 705.305 13.715 705.305 12.815C705.305 11.915 704.991 11.15 704.361 10.52C703.731 9.89001 702.936 9.57501 701.976 9.57501H697.926V15.965Z" fill="#fff"/><path d="M727.84 35.495C724.93 35.495 722.455 34.34 720.415 32.03C718.405 29.72 717.4 26.96 717.4 23.75C717.4 20.54 718.405 17.78 720.415 15.47C722.455 13.16 724.93 12.005 727.84 12.005C730.42 12.005 732.46 12.92 733.96 14.75V12.5H740.755V35H733.96V32.75C732.46 34.58 730.42 35.495 727.84 35.495ZM725.635 27.755C726.595 28.805 727.84 29.33 729.37 29.33C730.9 29.33 732.13 28.805 733.06 27.755C734.02 26.705 734.5 25.37 734.5 23.75C734.5 22.13 734.02 20.795 733.06 19.745C732.13 18.695 730.9 18.17 729.37 18.17C727.84 18.17 726.595 18.695 725.635 19.745C724.705 20.795 724.24 22.13 724.24 23.75C724.24 25.37 724.705 26.705 725.635 27.755Z" fill="#fff"/><path d="M775.058 35.27C772.418 35.27 770.243 34.55 768.533 33.11C766.853 31.64 766.013 29.525 766.013 26.765V18.395H762.458V12.5H766.013V6.24501H772.808V12.5H779.108V18.395H772.808V25.37C772.808 26.72 773.108 27.695 773.708 28.295C774.308 28.865 775.283 29.15 776.633 29.15C777.743 29.15 778.568 29.03 779.108 28.79V34.82C778.118 35.12 776.768 35.27 775.058 35.27ZM757.823 35.27C755.183 35.27 753.008 34.55 751.298 33.11C749.618 31.64 748.778 29.525 748.778 26.765V18.395H744.278V12.5H748.778V6.24501H755.573V12.5H760.343V18.395H755.573V25.37C755.573 26.72 755.873 27.695 756.473 28.295C757.073 28.865 758.063 29.15 759.443 29.15C760.523 29.15 761.333 29.03 761.873 28.79V34.82C760.883 35.12 759.533 35.27 757.823 35.27Z" fill="#fff"/><path d="M793.706 35.495C790.316 35.495 787.466 34.43 785.156 32.3C782.876 30.14 781.736 27.29 781.736 23.75C781.736 20.39 782.861 17.6 785.111 15.38C787.361 13.13 790.181 12.005 793.571 12.005C796.721 12.005 799.376 12.965 801.536 14.885C803.696 16.805 804.776 19.505 804.776 22.985C804.776 23.855 804.731 24.65 804.641 25.37H788.306C788.486 26.66 789.101 27.65 790.151 28.34C791.201 29 792.416 29.33 793.796 29.33C795.026 29.33 796.121 29.09 797.081 28.61C798.041 28.1 798.761 27.485 799.241 26.765L804.281 30.545C803.201 32.075 801.746 33.29 799.916 34.19C798.086 35.06 796.016 35.495 793.706 35.495ZM788.486 20.915H798.026C797.756 19.805 797.186 18.965 796.316 18.395C795.446 17.825 794.471 17.54 793.391 17.54C792.251 17.54 791.216 17.825 790.286 18.395C789.356 18.935 788.756 19.775 788.486 20.915Z" fill="#fff"/><path d="M809.058 35V12.5H815.853V15.875C816.213 14.855 816.888 14 817.878 13.31C818.868 12.59 819.978 12.23 821.208 12.23C821.988 12.23 822.723 12.32 823.413 12.5V19.385C822.363 19.025 821.358 18.845 820.398 18.845C818.958 18.845 817.833 19.355 817.023 20.375C816.243 21.365 815.853 22.685 815.853 24.335V35H809.058Z" fill="#fff"/><path d="M836.432 44.405H829.097L833.777 33.695L824.417 12.5H831.842L837.422 26.405L842.957 12.5H850.427L836.432 44.405Z" fill="#fff"/><path d="M858.628 33.65L853.453 41.975H849.538L852.913 35C852.103 34.7 851.413 34.145 850.843 33.335C850.273 32.495 849.988 31.565 849.988 30.545C849.988 29.225 850.453 28.1 851.383 27.17C852.343 26.21 853.483 25.73 854.803 25.73C856.123 25.73 857.248 26.21 858.178 27.17C859.138 28.1 859.618 29.225 859.618 30.545C859.618 31.445 859.288 32.48 858.628 33.65Z" fill="#fff"/><path d="M878.368 35V9.75501H871.438L876.298 3.05001H885.163V35H878.368Z" fill="#fff"/><path d="M902.798 35.495C899.228 35.495 896.318 34.295 894.068 31.895C891.818 29.495 890.693 26.435 890.693 22.715V15.29C890.693 11.57 891.818 8.51001 894.068 6.11001C896.318 3.71001 899.228 2.51001 902.798 2.51001C906.338 2.51001 909.233 3.71001 911.483 6.11001C913.733 8.51001 914.858 11.57 914.858 15.29V22.715C914.858 26.435 913.733 29.495 911.483 31.895C909.233 34.295 906.338 35.495 902.798 35.495ZM902.798 28.79C904.388 28.79 905.663 28.25 906.623 27.17C907.583 26.09 908.063 24.605 908.063 22.715V15.29C908.063 13.4 907.583 11.915 906.623 10.835C905.663 9.75501 904.388 9.21501 902.798 9.21501C901.178 9.21501 899.888 9.75501 898.928 10.835C897.968 11.915 897.488 13.4 897.488 15.29V22.715C897.488 24.605 897.968 26.09 898.928 27.17C899.888 28.25 901.178 28.79 902.798 28.79Z" fill="#fff"/><path d="M927.27 20.195C926.34 21.125 925.215 21.59 923.895 21.59C922.575 21.59 921.435 21.125 920.475 20.195C919.545 19.235 919.08 18.095 919.08 16.775C919.08 15.455 919.545 14.33 920.475 13.4C921.435 12.44 922.575 11.96 923.895 11.96C925.215 11.96 926.34 12.44 927.27 13.4C928.23 14.33 928.71 15.455 928.71 16.775C928.71 18.095 928.23 19.235 927.27 20.195ZM927.27 33.965C926.34 34.895 925.215 35.36 923.895 35.36C922.575 35.36 921.435 34.895 920.475 33.965C919.545 33.005 919.08 31.865 919.08 30.545C919.08 29.225 919.545 28.1 920.475 27.17C921.435 26.21 922.575 25.73 923.895 25.73C925.215 25.73 926.34 26.21 927.27 27.17C928.23 28.1 928.71 29.225 928.71 30.545C928.71 31.865 928.23 33.005 927.27 33.965Z" fill="#fff"/><path d="M945.03 35.495C941.46 35.495 938.55 34.295 936.3 31.895C934.05 29.495 932.925 26.435 932.925 22.715V15.29C932.925 11.57 934.05 8.51001 936.3 6.11001C938.55 3.71001 941.46 2.51001 945.03 2.51001C948.57 2.51001 951.465 3.71001 953.715 6.11001C955.965 8.51001 957.09 11.57 957.09 15.29V22.715C957.09 26.435 955.965 29.495 953.715 31.895C951.465 34.295 948.57 35.495 945.03 35.495ZM945.03 28.79C946.62 28.79 947.895 28.25 948.855 27.17C949.815 26.09 950.295 24.605 950.295 22.715V15.29C950.295 13.4 949.815 11.915 948.855 10.835C947.895 9.75501 946.62 9.21501 945.03 9.21501C943.41 9.21501 942.12 9.75501 941.16 10.835C940.2 11.915 939.72 13.4 939.72 15.29V22.715C939.72 24.605 940.2 26.09 941.16 27.17C942.12 28.25 943.41 28.79 945.03 28.79Z" fill="#fff"/><path d="M972.156 35.495C969.126 35.495 966.471 34.565 964.191 32.705C961.911 30.815 960.711 28.43 960.591 25.55H967.611C967.851 26.51 968.391 27.29 969.231 27.89C970.071 28.49 971.046 28.79 972.156 28.79C973.566 28.79 974.661 28.385 975.441 27.575C976.221 26.765 976.611 25.7 976.611 24.38C976.611 23.12 976.191 22.07 975.351 21.23C974.511 20.39 973.461 19.97 972.201 19.97C971.031 19.97 970.041 20.285 969.231 20.915C968.421 21.515 967.836 22.31 967.476 23.3L961.581 21.455L965.271 3.05001H980.976V9.62001H970.491L969.411 14.705C970.461 14.135 971.826 13.85 973.506 13.85C976.506 13.85 978.906 14.87 980.706 16.91C982.506 18.95 983.406 21.605 983.406 24.875C983.406 28.175 982.386 30.77 980.346 32.66C978.336 34.55 975.606 35.495 972.156 35.495Z" fill="#fff"/><path d="M1017.51 6.20001C1019.67 8.30001 1020.75 10.895 1020.75 13.985C1020.75 17.075 1019.67 19.67 1017.51 21.77C1015.38 23.84 1012.71 24.875 1009.5 24.875H1005.81V35H998.651V3.05001H1009.5C1012.71 3.05001 1015.38 4.10001 1017.51 6.20001ZM1013.82 13.985C1013.82 12.785 1013.4 11.795 1012.56 11.015C1011.75 10.205 1010.7 9.80001 1009.41 9.80001H1005.81V18.17H1009.41C1010.67 18.17 1011.72 17.765 1012.56 16.955C1013.4 16.145 1013.82 15.155 1013.82 13.985Z" fill="#fff"/><path d="M1025.33 3.05001H1031.85L1041.8 16.82L1051.83 3.05001H1058.36V35H1051.16V15.335L1041.84 28.205L1032.48 15.29V35H1025.33V3.05001Z" fill="#fff"/><path d="M395.403 83.2C394.576 83.2 393.843 82.9933 393.203 82.58C392.576 82.1667 392.129 81.6733 391.863 81.1L391.463 83H390.063L393.243 68H394.643L393.263 74.38C393.609 73.9 394.109 73.52 394.763 73.24C395.429 72.9467 396.109 72.8 396.803 72.8C398.043 72.8 399.089 73.2133 399.943 74.04C400.796 74.8533 401.223 75.96 401.223 77.36C401.223 78.9867 400.683 80.3667 399.603 81.5C398.523 82.6333 397.123 83.2 395.403 83.2ZM395.463 81.9C396.649 81.9 397.663 81.4867 398.503 80.66C399.356 79.82 399.783 78.7533 399.783 77.46C399.783 76.38 399.489 75.5533 398.903 74.98C398.329 74.3933 397.569 74.1 396.623 74.1C395.436 74.1 394.416 74.52 393.563 75.36C392.723 76.1867 392.303 77.2467 392.303 78.54C392.303 79.62 392.589 80.4533 393.163 81.04C393.749 81.6133 394.516 81.9 395.463 81.9Z" fill="#fff"/><path d="M402.108 87.18L405.328 82.44L402.908 73H404.388L406.348 80.94L411.708 73H413.368L403.728 87.18H402.108Z" fill="#fff"/><path d="M417.561 83L420.581 68.8H422.921L421.661 74.68H428.681L429.941 68.8H432.281L429.261 83H426.921L428.221 76.9H421.201L419.901 83H417.561Z" fill="#fff"/><path d="M436.861 83.18C435.674 83.18 434.688 82.76 433.901 81.92C433.128 81.08 432.741 80 432.741 78.68C432.741 77 433.254 75.6 434.281 74.48C435.308 73.36 436.621 72.8 438.221 72.8C439.008 72.8 439.701 72.9867 440.301 73.36C440.901 73.7333 441.308 74.1467 441.521 74.6L441.861 73H444.061L441.941 83H439.741L439.981 81.92C439.674 82.2933 439.241 82.6 438.681 82.84C438.134 83.0667 437.528 83.18 436.861 83.18ZM437.501 81.24C438.474 81.24 439.294 80.8933 439.961 80.2C440.628 79.4933 440.961 78.6067 440.961 77.54C440.961 76.6733 440.734 76 440.281 75.52C439.828 75.04 439.201 74.8 438.401 74.8C437.441 74.8 436.628 75.1533 435.961 75.86C435.294 76.5533 434.961 77.4333 434.961 78.5C434.961 79.3667 435.188 80.04 435.641 80.52C436.094 81 436.714 81.24 437.501 81.24Z" fill="#fff"/><path d="M444.94 83L447.06 73H449.26L448.9 74.62C449.193 74.06 449.613 73.6333 450.16 73.34C450.707 73.0467 451.293 72.9 451.92 72.9C452.24 72.9 452.513 72.9267 452.74 72.98L452.28 75.24C451.92 75.12 451.573 75.06 451.24 75.06C450.56 75.06 449.927 75.3333 449.34 75.88C448.767 76.4133 448.373 77.16 448.16 78.12L447.14 83H444.94Z" fill="#fff"/><path d="M455.657 83L453.257 73H455.437L457.057 80.2L461.737 73H464.257L457.597 83H455.657Z" fill="#fff"/><path d="M468.694 83.2C467.214 83.2 466.04 82.76 465.174 81.88C464.32 80.9867 463.894 79.8533 463.894 78.48C463.894 76.84 464.42 75.4867 465.474 74.42C466.54 73.34 467.92 72.8 469.614 72.8C471.08 72.8 472.247 73.32 473.114 74.36C473.994 75.3867 474.294 76.76 474.014 78.48H466.014C466 79.3067 466.254 79.9667 466.774 80.46C467.294 80.9533 467.994 81.2 468.874 81.2C469.874 81.2 470.767 80.7533 471.554 79.86L473.154 81.16C472.114 82.52 470.627 83.2 468.694 83.2ZM469.454 74.66C468.76 74.66 468.107 74.8533 467.494 75.24C466.894 75.6133 466.48 76.16 466.254 76.88H471.914C471.887 76.16 471.647 75.6133 471.194 75.24C470.754 74.8533 470.174 74.66 469.454 74.66Z" fill="#fff"/><path d="M474.525 87.18L477.705 82.42L475.425 73H477.645L479.245 80.16L483.905 73H486.425L476.985 87.18H474.525Z" fill="#fff"/><path d="M494.935 83.24C493.802 83.24 492.755 82.9533 491.795 82.38C490.835 81.8067 490.168 81.08 489.795 80.2L491.795 78.94C492.101 79.62 492.548 80.14 493.135 80.5C493.735 80.86 494.381 81.04 495.075 81.04C495.795 81.04 496.362 80.8733 496.775 80.54C497.202 80.2067 497.415 79.7533 497.415 79.18C497.415 78.7 497.275 78.2933 496.995 77.96C496.715 77.6267 496.241 77.3 495.575 76.98L494.835 76.62C493.848 76.14 493.115 75.5867 492.635 74.96C492.155 74.3333 491.908 73.5667 491.895 72.66C491.895 71.4733 492.328 70.4933 493.195 69.72C494.075 68.9467 495.228 68.56 496.655 68.56C497.588 68.56 498.448 68.7667 499.235 69.18C500.021 69.58 500.635 70.1667 501.075 70.94L499.275 72.32C498.648 71.2933 497.735 70.78 496.535 70.78C495.908 70.78 495.368 70.94 494.915 71.26C494.475 71.5667 494.255 71.9733 494.255 72.48C494.255 72.96 494.395 73.3467 494.675 73.64C494.968 73.9333 495.468 74.2533 496.175 74.6L496.795 74.9C497.848 75.42 498.608 76.0067 499.075 76.66C499.555 77.3 499.795 78.0933 499.795 79.04C499.795 80.3333 499.355 81.36 498.475 82.12C497.595 82.8667 496.415 83.24 494.935 83.24Z" fill="#fff"/><path d="M500.369 87.02L503.349 73H505.529L505.309 74.08C505.602 73.7067 506.022 73.4067 506.569 73.18C507.129 72.94 507.749 72.82 508.429 72.82C509.616 72.82 510.596 73.24 511.369 74.08C512.156 74.92 512.549 76 512.549 77.32C512.549 79 512.036 80.4 511.009 81.52C509.982 82.64 508.669 83.2 507.069 83.2C506.282 83.2 505.582 83.0133 504.969 82.64C504.369 82.2667 503.962 81.8533 503.749 81.4L502.569 87.02H500.369ZM506.869 81.2C507.842 81.2 508.662 80.8533 509.329 80.16C509.996 79.4533 510.329 78.5667 510.329 77.5C510.329 76.6333 510.102 75.96 509.649 75.48C509.196 75 508.569 74.76 507.769 74.76C506.809 74.76 505.996 75.1133 505.329 75.82C504.662 76.5133 504.329 77.3933 504.329 78.46C504.329 79.3267 504.556 80 505.009 80.48C505.462 80.96 506.082 81.2 506.869 81.2Z" fill="#fff"/><path d="M518.909 83.2C517.429 83.2 516.255 82.76 515.389 81.88C514.535 80.9867 514.109 79.8533 514.109 78.48C514.109 76.84 514.635 75.4867 515.689 74.42C516.755 73.34 518.135 72.8 519.829 72.8C521.295 72.8 522.462 73.32 523.329 74.36C524.209 75.3867 524.509 76.76 524.229 78.48H516.229C516.215 79.3067 516.469 79.9667 516.989 80.46C517.509 80.9533 518.209 81.2 519.089 81.2C520.089 81.2 520.982 80.7533 521.769 79.86L523.369 81.16C522.329 82.52 520.842 83.2 518.909 83.2ZM519.669 74.66C518.975 74.66 518.322 74.8533 517.709 75.24C517.109 75.6133 516.695 76.16 516.469 76.88H522.129C522.102 76.16 521.862 75.6133 521.409 75.24C520.969 74.8533 520.389 74.66 519.669 74.66Z" fill="#fff"/><path d="M525.389 83L527.509 73H529.709L529.449 74.18C530.209 73.26 531.249 72.8 532.569 72.8C533.743 72.8 534.616 73.2467 535.189 74.14C535.776 75.0333 535.929 76.0933 535.649 77.32L534.429 83H532.229L533.409 77.44C533.596 76.6133 533.536 75.9667 533.229 75.5C532.936 75.0333 532.443 74.8 531.749 74.8C531.003 74.8 530.356 75.06 529.809 75.58C529.276 76.1 528.896 76.8667 528.669 77.88L527.589 83H525.389Z" fill="#fff"/><path d="M542.485 83.22C540.938 83.22 539.738 82.7533 538.885 81.82C538.031 80.8733 537.605 79.7333 537.605 78.4C537.605 76.8267 538.125 75.5 539.165 74.42C540.218 73.3267 541.578 72.78 543.245 72.78C544.338 72.78 545.278 73.0533 546.065 73.6C546.865 74.1467 547.425 74.86 547.745 75.74L545.765 76.68C545.578 76.1067 545.245 75.66 544.765 75.34C544.298 75.0067 543.738 74.84 543.085 74.84C542.151 74.84 541.378 75.1667 540.765 75.82C540.151 76.4733 539.845 77.2733 539.845 78.22C539.845 79.14 540.091 79.86 540.585 80.38C541.091 80.9 541.765 81.16 542.605 81.16C543.885 81.16 544.825 80.5933 545.425 79.46L547.265 80.66C546.225 82.3667 544.631 83.22 542.485 83.22Z" fill="#fff"/><path d="M553.635 83.2C552.155 83.2 550.982 82.76 550.115 81.88C549.262 80.9867 548.835 79.8533 548.835 78.48C548.835 76.84 549.362 75.4867 550.415 74.42C551.482 73.34 552.862 72.8 554.555 72.8C556.022 72.8 557.189 73.32 558.055 74.36C558.935 75.3867 559.235 76.76 558.955 78.48H550.955C550.942 79.3067 551.195 79.9667 551.715 80.46C552.235 80.9533 552.935 81.2 553.815 81.2C554.815 81.2 555.709 80.7533 556.495 79.86L558.095 81.16C557.055 82.52 555.568 83.2 553.635 83.2ZM554.395 74.66C553.702 74.66 553.049 74.8533 552.435 75.24C551.835 75.6133 551.422 76.16 551.195 76.88H556.855C556.828 76.16 556.588 75.6133 556.135 75.24C555.695 74.8533 555.115 74.66 554.395 74.66Z" fill="#fff"/><path d="M574.463 83L568.723 76.34L567.303 83H564.983L568.003 68.8H570.323L569.023 74.94L575.923 68.8H578.983L571.123 75.82L577.343 83H574.463Z" fill="#fff"/><path d="M582.424 83.2C580.944 83.2 579.771 82.76 578.904 81.88C578.051 80.9867 577.624 79.8533 577.624 78.48C577.624 76.84 578.151 75.4867 579.204 74.42C580.271 73.34 581.651 72.8 583.344 72.8C584.811 72.8 585.978 73.32 586.844 74.36C587.724 75.3867 588.024 76.76 587.744 78.48H579.744C579.731 79.3067 579.984 79.9667 580.504 80.46C581.024 80.9533 581.724 81.2 582.604 81.2C583.604 81.2 584.498 80.7533 585.284 79.86L586.884 81.16C585.844 82.52 584.358 83.2 582.424 83.2ZM583.184 74.66C582.491 74.66 581.838 74.8533 581.224 75.24C580.624 75.6133 580.211 76.16 579.984 76.88H585.644C585.618 76.16 585.378 75.6133 584.924 75.24C584.484 74.8533 583.904 74.66 583.184 74.66Z" fill="#fff"/><path d="M588.905 83L591.025 73H593.225L592.965 74.18C593.725 73.26 594.765 72.8 596.085 72.8C597.258 72.8 598.132 73.2467 598.705 74.14C599.292 75.0333 599.445 76.0933 599.165 77.32L597.945 83H595.745L596.925 77.44C597.112 76.6133 597.052 75.9667 596.745 75.5C596.452 75.0333 595.958 74.8 595.265 74.8C594.518 74.8 593.871 75.06 593.325 75.58C592.791 76.1 592.411 76.8667 592.185 77.88L591.105 83H588.905Z" fill="#fff"/><path d="M605.145 83.1C604.052 83.1 603.218 82.7533 602.645 82.06C602.085 81.3667 601.932 80.4067 602.185 79.18L603.085 74.96H601.025L601.425 73H603.505L604.105 70.22H606.305L605.705 73H608.565L608.145 74.96H605.285L604.365 79.34C604.138 80.5267 604.618 81.12 605.805 81.12C606.165 81.12 606.518 81.0733 606.865 80.98L606.465 82.94C606.065 83.0467 605.625 83.1 605.145 83.1Z" fill="#fff"/><path d="M612.554 70.82C612.14 70.82 611.787 70.68 611.494 70.4C611.214 70.1067 611.074 69.7533 611.074 69.34C611.074 68.94 611.214 68.6 611.494 68.32C611.787 68.0267 612.14 67.88 612.554 67.88C612.954 67.88 613.294 68.0267 613.574 68.32C613.867 68.6 614.014 68.94 614.014 69.34C614.014 69.7533 613.867 70.1067 613.574 70.4C613.294 70.68 612.954 70.82 612.554 70.82ZM608.554 83L610.674 73H612.874L610.754 83H608.554Z" fill="#fff"/><path d="M613.729 83L616.909 68H619.109L615.929 83H613.729Z" fill="#fff"/><path d="M622.944 70.82C622.531 70.82 622.178 70.68 621.884 70.4C621.604 70.1067 621.464 69.7533 621.464 69.34C621.464 68.94 621.604 68.6 621.884 68.32C622.178 68.0267 622.531 67.88 622.944 67.88C623.344 67.88 623.684 68.0267 623.964 68.32C624.258 68.6 624.404 68.94 624.404 69.34C624.404 69.7533 624.258 70.1067 623.964 70.4C623.684 70.68 623.344 70.82 622.944 70.82ZM618.944 83L621.064 73H623.264L621.144 83H618.944Z" fill="#fff"/><path d="M628.7 83.1C627.606 83.1 626.773 82.7533 626.2 82.06C625.64 81.3667 625.486 80.4067 625.74 79.18L626.64 74.96H624.58L624.98 73H627.06L627.66 70.22H629.86L629.26 73H632.12L631.7 74.96H628.84L627.92 79.34C627.693 80.5267 628.173 81.12 629.36 81.12C629.72 81.12 630.073 81.0733 630.42 80.98L630.02 82.94C629.62 83.0467 629.18 83.1 628.7 83.1Z" fill="#fff"/><path d="M636.108 70.82C635.695 70.82 635.342 70.68 635.048 70.4C634.768 70.1067 634.628 69.7533 634.628 69.34C634.628 68.94 634.768 68.6 635.048 68.32C635.342 68.0267 635.695 67.88 636.108 67.88C636.508 67.88 636.848 68.0267 637.128 68.32C637.422 68.6 637.568 68.94 637.568 69.34C637.568 69.7533 637.422 70.1067 637.128 70.4C636.848 70.68 636.508 70.82 636.108 70.82ZM632.108 83L634.228 73H636.428L634.308 83H632.108Z" fill="#fff"/><path d="M640.944 83.22C640.05 83.22 639.244 83.02 638.524 82.62C637.817 82.22 637.297 81.6333 636.964 80.86L638.724 79.78C639.164 80.7933 639.957 81.3 641.104 81.3C641.504 81.3 641.837 81.2067 642.104 81.02C642.37 80.82 642.504 80.5667 642.504 80.26C642.504 79.9533 642.404 79.7133 642.204 79.54C642.017 79.3533 641.677 79.16 641.184 78.96L640.464 78.68C639.024 78.0933 638.304 77.1467 638.304 75.84C638.304 74.8933 638.637 74.1533 639.304 73.62C639.97 73.0733 640.824 72.8 641.864 72.8C642.61 72.8 643.284 72.96 643.884 73.28C644.497 73.6 644.957 74.0667 645.264 74.68L643.644 75.72C643.19 75.0133 642.584 74.66 641.824 74.66C641.424 74.66 641.097 74.7467 640.844 74.92C640.604 75.0933 640.484 75.3333 640.484 75.64C640.484 75.9067 640.557 76.1267 640.704 76.3C640.864 76.4733 641.13 76.6333 641.504 76.78L642.364 77.12C643.924 77.7467 644.704 78.6933 644.704 79.96C644.704 80.9733 644.344 81.7733 643.624 82.36C642.917 82.9333 642.024 83.22 640.944 83.22Z" fill="#fff"/><path d="M651.489 83.22C649.942 83.22 648.742 82.7533 647.889 81.82C647.035 80.8733 646.609 79.7333 646.609 78.4C646.609 76.8267 647.129 75.5 648.169 74.42C649.222 73.3267 650.582 72.78 652.249 72.78C653.342 72.78 654.282 73.0533 655.069 73.6C655.869 74.1467 656.429 74.86 656.749 75.74L654.769 76.68C654.582 76.1067 654.249 75.66 653.769 75.34C653.302 75.0067 652.742 74.84 652.089 74.84C651.155 74.84 650.382 75.1667 649.769 75.82C649.155 76.4733 648.849 77.2733 648.849 78.22C648.849 79.14 649.095 79.86 649.589 80.38C650.095 80.9 650.769 81.16 651.609 81.16C652.889 81.16 653.829 80.5933 654.429 79.46L656.269 80.66C655.229 82.3667 653.635 83.22 651.489 83.22Z" fill="#fff"/><path d="M661.978 83.18C660.791 83.18 659.805 82.76 659.018 81.92C658.245 81.08 657.858 80 657.858 78.68C657.858 77 658.371 75.6 659.398 74.48C660.425 73.36 661.738 72.8 663.338 72.8C664.125 72.8 664.818 72.9867 665.418 73.36C666.018 73.7333 666.425 74.1467 666.638 74.6L666.978 73H669.178L667.058 83H664.858L665.098 81.92C664.791 82.2933 664.358 82.6 663.798 82.84C663.251 83.0667 662.645 83.18 661.978 83.18ZM662.618 81.24C663.591 81.24 664.411 80.8933 665.078 80.2C665.745 79.4933 666.078 78.6067 666.078 77.54C666.078 76.6733 665.851 76 665.398 75.52C664.945 75.04 664.318 74.8 663.518 74.8C662.558 74.8 661.745 75.1533 661.078 75.86C660.411 76.5533 660.078 77.4333 660.078 78.5C660.078 79.3667 660.305 80.04 660.758 80.52C661.211 81 661.831 81.24 662.618 81.24Z" fill="#fff"/></svg>