<svg width="445" height="204" viewBox="0 0 445 204" fill="none" xmlns="http://www.w3.org/2000/svg">
<path d="M57.208 34.3273C60.8018 34.3273 63.7712 35.4939 66.1163 37.8273C68.4614 40.1303 69.6339 42.9636 69.6339 46.3273C69.6339 49.7212 68.4766 52.5697 66.162 54.8727C63.8474 57.1758 60.8627 58.3273 57.208 58.3273C53.4316 58.3273 50.4165 57.1909 48.1627 54.9182C45.909 52.6152 44.7822 49.7515 44.7822 46.3273C44.7822 42.903 45.8938 40.0545 48.1171 37.7818C50.3708 35.4788 53.4011 34.3273 57.208 34.3273ZM53.5991 50.1909C54.6041 51.2515 55.8071 51.7818 57.208 51.7818C58.609 51.7818 59.812 51.2515 60.817 50.1909C61.8221 49.1303 62.3246 47.8424 62.3246 46.3273C62.3246 44.8121 61.8221 43.5242 60.817 42.4636C59.812 41.403 58.609 40.8727 57.208 40.8727C55.8071 40.8727 54.6041 41.403 53.5991 42.4636C52.594 43.5242 52.0915 44.8121 52.0915 46.3273C52.0915 47.8424 52.594 49.1303 53.5991 50.1909Z" fill="white"/>
<path d="M87.2117 34.3273C89.6786 34.3273 91.7495 35.2212 93.4246 37.0091C95.1301 38.7667 95.9829 41.2667 95.9829 44.5091V57.6H88.6735V45.2364C88.6735 42.3273 87.4553 40.8727 85.0189 40.8727C83.9834 40.8727 82.9936 41.2667 82.0494 42.0546C81.1053 42.8424 80.6332 44.1455 80.6332 45.9636V57.6H73.3239V35.0546H80.6332V37.2364C82.2778 35.297 84.4707 34.3273 87.2117 34.3273Z" fill="white"/>
<path d="M155.486 57.6L152.032 48.4364H129.995L126.541 57.6H112.068L134.928 2.61818H147.098L169.958 57.6H155.486ZM134.517 36.6545H147.51L141.013 19.6364L134.517 36.6545Z" fill="white"/>
<path d="M200.227 15.7091C205.709 15.7091 210.369 17.8091 214.206 22.0091C218.044 26.2091 219.963 31.3091 219.963 37.3091C219.963 43.3091 218.044 48.4091 214.206 52.6091C210.369 56.8091 205.709 58.9091 200.227 58.9091C195.677 58.9091 191.73 57.3273 188.386 54.1636V78.5455H175.229V17.0182H188.386V20.4545C191.73 17.2909 195.677 15.7091 200.227 15.7091ZM191.1 44.2636C192.909 46.1727 195.074 47.1273 197.596 47.1273C200.118 47.1273 202.283 46.1727 204.092 44.2636C205.901 42.3546 206.806 40.0364 206.806 37.3091C206.806 34.5818 205.901 32.2636 204.092 30.3545C202.283 28.4455 200.118 27.4909 197.596 27.4909C195.074 27.4909 192.909 28.4455 191.1 30.3545C189.291 32.2636 188.386 34.5818 188.386 37.3091C188.386 40.0364 189.291 42.3546 191.1 44.2636Z" fill="white"/>
<path d="M256.773 17.0182H269.929V57.6H256.773V54.1636C253.429 57.3273 249.482 58.9091 244.932 58.9091C239.45 58.9091 234.79 56.8091 230.952 52.6091C227.115 48.4091 225.196 43.3091 225.196 37.3091C225.196 31.3091 227.115 26.2091 230.952 22.0091C234.79 17.8091 239.45 15.7091 244.932 15.7091C249.482 15.7091 253.429 17.2909 256.773 20.4545V17.0182ZM241.067 44.2636C242.876 46.1727 245.041 47.1273 247.563 47.1273C250.085 47.1273 252.25 46.1727 254.059 44.2636C255.868 42.3546 256.773 40.0364 256.773 37.3091C256.773 34.5818 255.868 32.2636 254.059 30.3545C252.25 28.4455 250.085 27.4909 247.563 27.4909C245.041 27.4909 242.876 28.4455 241.067 30.3545C239.258 32.2636 238.353 34.5818 238.353 37.3091C238.353 40.0364 239.258 42.3546 241.067 44.2636Z" fill="white"/>
<path d="M283.057 46.0636V28.8H277.795V17.0182H283.057V2.61818H296.214V17.0182H304.108V28.8H296.214V40.5818C296.214 43.8 296.68 45.8455 297.612 46.7182C298.544 47.5909 300.709 47.7273 304.108 47.1273V57.6C301.532 58.4727 298.462 58.9091 294.898 58.9091C290.897 58.9091 287.909 57.7091 285.935 55.3091C284.017 52.8545 283.057 49.7727 283.057 46.0636Z" fill="white"/>
<path d="M338.348 15.7091C342.789 15.7091 346.516 17.3182 349.531 20.5364C352.601 23.7 354.136 28.2 354.136 34.0364V57.6H340.979V35.3455C340.979 30.1091 338.787 27.4909 334.401 27.4909C332.537 27.4909 330.756 28.2 329.056 29.6182C327.357 31.0364 326.507 33.3818 326.507 36.6545V57.6H313.35V0H326.507V20.9455C329.467 17.4545 333.414 15.7091 338.348 15.7091Z" fill="white"/>
<path d="M388.377 17.0182H402.849L377.851 78.5455H363.379L373.986 54.6545L358.116 17.0182H372.589L380.483 39.2727L388.377 17.0182Z" fill="white"/>
<path d="M17.5424 124.145H24.8517V146.691H17.5424V144.782C15.6846 146.539 13.4918 147.418 10.964 147.418C7.91845 147.418 5.32972 146.252 3.19783 143.918C1.06594 141.585 0 138.752 0 135.418C0 132.085 1.06594 129.252 3.19783 126.918C5.32972 124.585 7.91845 123.418 10.964 123.418C13.4918 123.418 15.6846 124.297 17.5424 126.055V124.145ZM8.81689 139.282C9.82192 140.342 11.0249 140.873 12.4259 140.873C13.8268 140.873 15.0298 140.342 16.0349 139.282C17.0399 138.221 17.5424 136.933 17.5424 135.418C17.5424 133.903 17.0399 132.615 16.0349 131.555C15.0298 130.494 13.8268 129.964 12.4259 129.964C11.0249 129.964 9.82192 130.494 8.81689 131.555C7.81185 132.615 7.30934 133.903 7.30934 135.418C7.30934 136.933 7.81185 138.221 8.81689 139.282Z" fill="white"/>
<path d="M44.214 123.418C46.6809 123.418 48.7519 124.312 50.4269 126.1C52.1324 127.858 52.9852 130.358 52.9852 133.6V146.691H45.6759V134.327C45.6759 131.418 44.4576 129.964 42.0212 129.964C40.9857 129.964 39.9959 130.358 39.0518 131.145C38.1076 131.933 37.6356 133.236 37.6356 135.055V146.691H30.3262V124.145H37.6356V126.327C39.2802 124.388 41.473 123.418 44.214 123.418Z" fill="white"/>
<path d="M67.6221 123.418C70.1499 123.418 72.3427 124.297 74.2005 126.055V114.691H81.5098V146.691H74.2005V144.782C72.3427 146.539 70.1499 147.418 67.6221 147.418C64.5765 147.418 61.9878 146.252 59.8559 143.918C57.724 141.585 56.6581 138.752 56.6581 135.418C56.6581 132.085 57.724 129.252 59.8559 126.918C61.9878 124.585 64.5765 123.418 67.6221 123.418ZM65.4749 139.282C66.48 140.342 67.683 140.873 69.0839 140.873C70.4849 140.873 71.6879 140.342 72.6929 139.282C73.698 138.221 74.2005 136.933 74.2005 135.418C74.2005 133.903 73.698 132.615 72.6929 131.555C71.6879 130.494 70.4849 129.964 69.0839 129.964C67.683 129.964 66.48 130.494 65.4749 131.555C64.4699 132.615 63.9674 133.903 63.9674 135.418C63.9674 136.933 64.4699 138.221 65.4749 139.282Z" fill="white"/>
<path d="M156.756 146.691H112.023L136.692 103.491H113.339V91.7091H158.072L133.403 134.909H156.756V146.691Z" fill="white"/>
<path d="M185.703 104.8C192.172 104.8 197.517 106.9 201.738 111.1C205.959 115.245 208.07 120.345 208.07 126.4C208.07 132.509 205.986 137.636 201.82 141.782C197.654 145.927 192.281 148 185.703 148C178.905 148 173.478 145.955 169.421 141.864C165.365 137.718 163.336 132.564 163.336 126.4C163.336 120.236 165.337 115.109 169.339 111.018C173.396 106.873 178.851 104.8 185.703 104.8ZM179.207 133.355C181.016 135.264 183.181 136.218 185.703 136.218C188.225 136.218 190.39 135.264 192.199 133.355C194.008 131.445 194.913 129.127 194.913 126.4C194.913 123.673 194.008 121.355 192.199 119.445C190.39 117.536 188.225 116.582 185.703 116.582C183.181 116.582 181.016 117.536 179.207 119.445C177.398 121.355 176.493 123.673 176.493 126.4C176.493 129.127 177.398 131.445 179.207 133.355Z" fill="white"/>
<path d="M262.076 104.8C266.516 104.8 270.244 106.409 273.259 109.627C276.329 112.791 277.864 117.291 277.864 123.127V146.691H264.707V124.436C264.707 121.436 264.241 119.391 263.31 118.3C262.378 117.155 261.089 116.582 259.445 116.582C257.745 116.582 256.21 117.291 254.84 118.709C253.524 120.073 252.866 122.418 252.866 125.745V146.691H239.71V124.436C239.71 121.436 239.244 119.391 238.312 118.3C237.38 117.155 236.091 116.582 234.447 116.582C232.747 116.582 231.212 117.291 229.842 118.709C228.526 120.073 227.868 122.418 227.868 125.745V146.691H214.712V106.109H227.868V110.036C230.829 106.545 234.337 104.8 238.394 104.8C243.108 104.8 246.754 106.573 249.33 110.118C252.455 106.573 256.704 104.8 262.076 104.8Z" fill="white"/>
<path d="M311.42 104.8C316.902 104.8 321.562 106.9 325.399 111.1C329.236 115.3 331.155 120.4 331.155 126.4C331.155 132.4 329.236 137.5 325.399 141.7C321.562 145.9 316.902 148 311.42 148C306.87 148 302.923 146.418 299.579 143.255V146.691H286.422V89.0909H299.579V109.545C302.923 106.382 306.87 104.8 311.42 104.8ZM302.292 133.355C304.101 135.264 306.267 136.218 308.789 136.218C311.31 136.218 313.476 135.264 315.285 133.355C317.094 131.445 317.998 129.127 317.998 126.4C317.998 123.673 317.094 121.355 315.285 119.445C313.476 117.536 311.31 116.582 308.789 116.582C306.267 116.582 304.101 117.536 302.292 119.445C300.483 121.355 299.579 123.673 299.579 126.4C299.579 129.127 300.483 131.445 302.292 133.355Z" fill="white"/>
<path d="M350.548 98.5818C349.013 100.109 347.149 100.873 344.956 100.873C342.763 100.873 340.9 100.109 339.365 98.5818C337.83 97.0545 337.062 95.2 337.062 93.0182C337.062 90.8364 337.83 88.9818 339.365 87.4545C340.9 85.9273 342.763 85.1636 344.956 85.1636C347.149 85.1636 349.013 85.9273 350.548 87.4545C352.083 88.9818 352.85 90.8364 352.85 93.0182C352.85 95.2 352.083 97.0545 350.548 98.5818ZM338.378 146.691V106.109H351.535V146.691H338.378Z" fill="white"/>
<path d="M400.253 126.4C400.253 127.164 400.198 128.255 400.088 129.673H371.966C372.514 131.636 373.665 133.218 375.419 134.418C377.173 135.618 379.394 136.218 382.08 136.218C385.972 136.218 389.947 135.4 394.003 133.764L397.621 144.155C397.183 144.427 396.552 144.782 395.73 145.218C394.908 145.655 393.126 146.227 390.385 146.936C387.644 147.645 384.766 148 381.751 148C373.912 148 368.019 145.982 364.072 141.945C360.124 137.909 358.151 132.727 358.151 126.4C358.151 120.127 360.015 114.973 363.743 110.936C367.525 106.845 372.898 104.8 379.86 104.8C386.328 104.8 391.344 106.709 394.908 110.527C398.471 114.291 400.253 119.582 400.253 126.4ZM371.966 121.818H386.438C386.438 120.236 385.78 118.764 384.465 117.4C383.204 115.982 381.449 115.273 379.202 115.273C377.228 115.273 375.529 115.982 374.104 117.4C372.678 118.818 371.966 120.291 371.966 121.818Z" fill="white"/>
<path d="M426.745 120.1C433.323 120.809 438.01 122.227 440.806 124.355C443.602 126.482 445 129.564 445 133.6C445 137.964 443.246 141.455 439.737 144.073C436.284 146.691 431.076 148 424.114 148C420.66 148 417.371 147.564 414.246 146.691C411.176 145.873 408.956 145.055 407.585 144.236L405.53 142.927L409.065 132.291C410.546 133.327 412.382 134.227 414.575 134.991C416.768 135.7 418.577 136.164 420.002 136.382L422.222 136.709C428.636 137.309 431.843 136.682 431.843 134.827C431.843 133.955 431.295 133.382 430.199 133.109C429.102 132.782 426.772 132.4 423.209 131.964C412.3 130.6 406.845 126.127 406.845 118.545C406.845 114.345 408.435 111.018 411.615 108.564C414.794 106.055 419.646 104.8 426.169 104.8C432.474 104.8 437.682 105.918 441.793 108.155L438.751 118.709C434.639 116.691 430.528 115.682 426.416 115.682C422.14 115.682 420.002 116.255 420.002 117.4C420.002 117.618 420.029 117.836 420.084 118.055C420.194 118.218 420.331 118.382 420.495 118.545C420.66 118.655 420.824 118.764 420.989 118.873C421.153 118.982 421.4 119.091 421.729 119.2C422.058 119.255 422.332 119.336 422.551 119.445C422.77 119.5 423.099 119.555 423.538 119.609C423.977 119.664 424.305 119.718 424.525 119.773C424.799 119.827 425.183 119.882 425.676 119.936C426.169 119.991 426.526 120.045 426.745 120.1Z" fill="white"/>
<path d="M151.03 197.3C149.79 197.3 148.69 196.99 147.73 196.37C146.79 195.75 146.12 195.01 145.72 194.15L145.12 197H143.02L147.79 174.5H149.89L147.82 184.07C148.34 183.35 149.09 182.78 150.07 182.36C151.07 181.92 152.09 181.7 153.13 181.7C154.99 181.7 156.56 182.32 157.84 183.56C159.12 184.78 159.76 186.44 159.76 188.54C159.76 190.98 158.95 193.05 157.33 194.75C155.71 196.45 153.61 197.3 151.03 197.3ZM151.12 195.35C152.9 195.35 154.42 194.73 155.68 193.49C156.96 192.23 157.6 190.63 157.6 188.69C157.6 187.07 157.16 185.83 156.28 184.97C155.42 184.09 154.28 183.65 152.86 183.65C151.08 183.65 149.55 184.28 148.27 185.54C147.01 186.78 146.38 188.37 146.38 190.31C146.38 191.93 146.81 193.18 147.67 194.06C148.55 194.92 149.7 195.35 151.12 195.35Z" fill="white"/>
<path d="M161.088 203.27L165.918 196.16L162.288 182H164.508L167.448 193.91L175.488 182H177.978L163.518 203.27H161.088Z" fill="white"/>
<path d="M192.817 190.85L196.057 175.7H199.567L196.207 191.51C195.787 193.47 195.037 194.94 193.957 195.92C192.877 196.88 191.397 197.36 189.517 197.36C187.777 197.36 186.247 196.81 184.927 195.71C183.607 194.61 183.037 193.07 183.217 191.09H186.697C186.637 192.03 186.897 192.76 187.477 193.28C188.077 193.8 188.767 194.06 189.547 194.06C190.467 194.06 191.177 193.79 191.677 193.25C192.197 192.71 192.577 191.91 192.817 190.85Z" fill="white"/>
<path d="M207.353 197.3C205.133 197.3 203.373 196.64 202.073 195.32C200.793 193.98 200.153 192.28 200.153 190.22C200.153 187.76 200.943 185.73 202.523 184.13C204.123 182.51 206.193 181.7 208.733 181.7C210.933 181.7 212.683 182.48 213.983 184.04C215.303 185.58 215.753 187.64 215.333 190.22H203.333C203.313 191.46 203.693 192.45 204.473 193.19C205.253 193.93 206.303 194.3 207.623 194.3C209.123 194.3 210.463 193.63 211.643 192.29L214.043 194.24C212.483 196.28 210.253 197.3 207.353 197.3ZM208.493 184.49C207.453 184.49 206.473 184.78 205.553 185.36C204.653 185.92 204.033 186.74 203.693 187.82H212.183C212.143 186.74 211.783 185.92 211.103 185.36C210.443 184.78 209.573 184.49 208.493 184.49Z" fill="white"/>
<path d="M223.764 197.27C221.984 197.27 220.504 196.64 219.324 195.38C218.164 194.12 217.584 192.5 217.584 190.52C217.584 188 218.354 185.9 219.894 184.22C221.434 182.54 223.404 181.7 225.804 181.7C226.984 181.7 228.024 181.98 228.924 182.54C229.824 183.1 230.434 183.72 230.754 184.4L231.264 182H234.564L231.384 197H228.084L228.444 195.38C227.984 195.94 227.334 196.4 226.494 196.76C225.674 197.1 224.764 197.27 223.764 197.27ZM224.724 194.36C226.184 194.36 227.414 193.84 228.414 192.8C229.414 191.74 229.914 190.41 229.914 188.81C229.914 187.51 229.574 186.5 228.894 185.78C228.214 185.06 227.274 184.7 226.074 184.7C224.634 184.7 223.414 185.23 222.414 186.29C221.414 187.33 220.914 188.65 220.914 190.25C220.914 191.55 221.254 192.56 221.934 193.28C222.614 194 223.544 194.36 224.724 194.36Z" fill="white"/>
<path d="M235.883 197L239.063 182H242.363L241.973 183.77C243.113 182.39 244.673 181.7 246.653 181.7C248.413 181.7 249.723 182.37 250.583 183.71C251.463 185.05 251.693 186.64 251.273 188.48L249.443 197H246.143L247.913 188.66C248.193 187.42 248.103 186.45 247.643 185.75C247.203 185.05 246.463 184.7 245.423 184.7C244.303 184.7 243.333 185.09 242.513 185.87C241.713 186.65 241.143 187.8 240.803 189.32L239.183 197H235.883Z" fill="white"/>
<path d="M267.896 197.36C266.196 197.36 264.626 196.93 263.186 196.07C261.746 195.21 260.746 194.12 260.186 192.8L263.186 190.91C263.646 191.93 264.316 192.71 265.196 193.25C266.096 193.79 267.066 194.06 268.106 194.06C269.186 194.06 270.036 193.81 270.656 193.31C271.296 192.81 271.616 192.13 271.616 191.27C271.616 190.55 271.406 189.94 270.986 189.44C270.566 188.94 269.856 188.45 268.856 187.97L267.746 187.43C266.266 186.71 265.166 185.88 264.446 184.94C263.726 184 263.356 182.85 263.336 181.49C263.336 179.71 263.986 178.24 265.286 177.08C266.606 175.92 268.336 175.34 270.476 175.34C271.876 175.34 273.166 175.65 274.346 176.27C275.526 176.87 276.446 177.75 277.106 178.91L274.406 180.98C273.466 179.44 272.096 178.67 270.296 178.67C269.356 178.67 268.546 178.91 267.866 179.39C267.206 179.85 266.876 180.46 266.876 181.22C266.876 181.94 267.086 182.52 267.506 182.96C267.946 183.4 268.696 183.88 269.756 184.4L270.686 184.85C272.266 185.63 273.406 186.51 274.106 187.49C274.826 188.45 275.186 189.64 275.186 191.06C275.186 193 274.526 194.54 273.206 195.68C271.886 196.8 270.116 197.36 267.896 197.36Z" fill="white"/>
<path d="M283.397 178.73C282.777 178.73 282.247 178.52 281.807 178.1C281.387 177.66 281.177 177.13 281.177 176.51C281.177 175.91 281.387 175.4 281.807 174.98C282.247 174.54 282.777 174.32 283.397 174.32C283.997 174.32 284.507 174.54 284.927 174.98C285.367 175.4 285.587 175.91 285.587 176.51C285.587 177.13 285.367 177.66 284.927 178.1C284.507 178.52 283.997 178.73 283.397 178.73ZM277.397 197L280.577 182H283.877L280.697 197H277.397Z" fill="white"/>
<path d="M285.16 197L288.34 182H291.64L291.25 183.77C292.39 182.39 293.95 181.7 295.93 181.7C297.69 181.7 299 182.37 299.86 183.71C300.74 185.05 300.97 186.64 300.55 188.48L298.72 197H295.42L297.19 188.66C297.47 187.42 297.38 186.45 296.92 185.75C296.48 185.05 295.74 184.7 294.7 184.7C293.58 184.7 292.61 185.09 291.79 185.87C290.99 186.65 290.42 187.8 290.08 189.32L288.46 197H285.16Z" fill="white"/>
</svg>
