<svg width="394" height="119" viewBox="0 0 394 119" fill="none" xmlns="http://www.w3.org/2000/svg"><path d="M50.4 68H33.84L20.34 48.56H14.4V68H0V7.51998H24.48C32.1 7.51998 37.83 9.34999 41.67 13.01C45.57 16.67 47.52 21.56 47.52 27.68C47.52 32.06 46.41 36.02 44.19 39.56C42.03 43.1 39 45.65 35.1 47.21L50.4 68ZM14.4 20.48V35.6H24.39C26.85 35.6 28.92 34.94 30.6 33.62C32.28 32.24 33.12 30.38 33.12 28.04C33.12 25.46 32.31 23.57 30.69 22.37C29.07 21.11 26.97 20.48 24.39 20.48H14.4Z" fill="#FF3131"/><path d="M99.3621 45.68C99.3621 46.52 99.3021 47.72 99.1821 49.28H68.4021C69.0021 51.44 70.2621 53.18 72.1821 54.5C74.1021 55.82 76.5321 56.48 79.4721 56.48C83.7321 56.48 88.0821 55.58 92.5221 53.78L96.4821 65.21C96.0021 65.51 95.3121 65.9 94.4121 66.38C93.5121 66.86 91.5621 67.49 88.5621 68.27C85.5621 69.05 82.4121 69.44 79.1121 69.44C70.5321 69.44 64.0821 67.22 59.7621 62.78C55.4421 58.34 53.2821 52.64 53.2821 45.68C53.2821 38.78 55.3221 33.11 59.4021 28.67C63.5421 24.17 69.4221 21.92 77.0421 21.92C84.1221 21.92 89.6121 24.02 93.5121 28.22C97.4121 32.36 99.3621 38.18 99.3621 45.68ZM68.4021 40.64H84.2421C84.2421 38.9 83.5221 37.28 82.0821 35.78C80.7021 34.22 78.7821 33.44 76.3221 33.44C74.1621 33.44 72.3021 34.22 70.7421 35.78C69.1821 37.34 68.4021 38.96 68.4021 40.64Z" fill="#FF3131"/><path d="M126.738 21.92C131.718 21.92 136.038 23.66 139.698 27.14V4.63998H154.098V68H139.698V64.22C136.038 67.7 131.718 69.44 126.738 69.44C120.738 69.44 115.638 67.13 111.438 62.51C107.238 57.89 105.138 52.28 105.138 45.68C105.138 39.08 107.238 33.47 111.438 28.85C115.638 24.23 120.738 21.92 126.738 21.92ZM122.508 53.33C124.488 55.43 126.858 56.48 129.618 56.48C132.378 56.48 134.748 55.43 136.728 53.33C138.708 51.23 139.698 48.68 139.698 45.68C139.698 42.68 138.708 40.13 136.728 38.03C134.748 35.93 132.378 34.88 129.618 34.88C126.858 34.88 124.488 35.93 122.508 38.03C120.528 40.13 119.538 42.68 119.538 45.68C119.538 48.68 120.528 51.23 122.508 53.33Z" fill="#FF3131"/><path d="M214.24 56.48C220.18 56.48 225.04 54.14 228.82 49.46L234.4 62.15C231.88 64.43 228.76 66.23 225.04 67.55C221.38 68.81 217.78 69.44 214.24 69.44C205.12 69.44 197.32 66.35 190.84 60.17C184.36 53.99 181.12 46.52 181.12 37.76C181.12 29 184.36 21.53 190.84 15.35C197.32 9.17001 205.12 6.08001 214.24 6.08001C217.84 6.08001 221.47 6.71001 225.13 7.97001C228.79 9.23001 231.88 11 234.4 13.28L228.82 26.06C225.1 21.38 220.24 19.04 214.24 19.04C209.08 19.04 204.67 20.87 201.01 24.53C197.35 28.19 195.52 32.6 195.52 37.76C195.52 42.92 197.35 47.33 201.01 50.99C204.67 54.65 209.08 56.48 214.24 56.48Z" fill="#fff"/><path d="M270.423 21.92C275.283 21.92 279.362 23.69 282.662 27.23C286.022 30.71 287.702 35.66 287.702 42.08V68H273.302V43.52C273.302 37.76 270.902 34.88 266.102 34.88C264.062 34.88 262.112 35.66 260.252 37.22C258.392 38.78 257.462 41.36 257.462 44.96V68H243.062V4.64001H257.462V27.68C260.702 23.84 265.023 21.92 270.423 21.92Z" fill="#fff"/><path d="M310.435 15.08C308.755 16.76 306.715 17.6 304.315 17.6C301.915 17.6 299.875 16.76 298.195 15.08C296.515 13.4 295.675 11.36 295.675 8.96001C295.675 6.56001 296.515 4.52001 298.195 2.84001C299.875 1.16001 301.915 0.320007 304.315 0.320007C306.715 0.320007 308.755 1.16001 310.435 2.84001C312.115 4.52001 312.955 6.56001 312.955 8.96001C312.955 11.36 312.115 13.4 310.435 15.08ZM297.115 68V23.36H311.515V68H297.115Z" fill="#fff"/><path d="M322.34 4.64001H336.74V68H322.34V4.64001Z" fill="#fff"/><path d="M366.284 21.92C371.264 21.92 375.584 23.66 379.244 27.14V4.64001H393.644V68H379.244V64.22C375.584 67.7 371.264 69.44 366.284 69.44C360.284 69.44 355.184 67.13 350.984 62.51C346.784 57.89 344.684 52.28 344.684 45.68C344.684 39.08 346.784 33.47 350.984 28.85C355.184 24.23 360.284 21.92 366.284 21.92ZM362.054 53.33C364.034 55.43 366.404 56.48 369.164 56.48C371.924 56.48 374.294 55.43 376.274 53.33C378.254 51.23 379.244 48.68 379.244 45.68C379.244 42.68 378.254 40.13 376.274 38.03C374.294 35.93 371.924 34.88 369.164 34.88C366.404 34.88 364.034 35.93 362.054 38.03C360.074 40.13 359.084 42.68 359.084 45.68C359.084 48.68 360.074 51.23 362.054 53.33Z" fill="#fff"/><path d="M125.03 111.3C123.79 111.3 122.69 110.99 121.73 110.37C120.79 109.75 120.12 109.01 119.72 108.15L119.12 111H117.02L121.79 88.5H123.89L121.82 98.07C122.34 97.35 123.09 96.78 124.07 96.36C125.07 95.92 126.09 95.7 127.13 95.7C128.99 95.7 130.56 96.32 131.84 97.56C133.12 98.78 133.76 100.44 133.76 102.54C133.76 104.98 132.95 107.05 131.33 108.75C129.71 110.45 127.61 111.3 125.03 111.3ZM125.12 109.35C126.9 109.35 128.42 108.73 129.68 107.49C130.96 106.23 131.6 104.63 131.6 102.69C131.6 101.07 131.16 99.83 130.28 98.97C129.42 98.09 128.28 97.65 126.86 97.65C125.08 97.65 123.55 98.28 122.27 99.54C121.01 100.78 120.38 102.37 120.38 104.31C120.38 105.93 120.81 107.18 121.67 108.06C122.55 108.92 123.7 109.35 125.12 109.35ZM135.088 117.27L139.918 110.16L136.288 96H138.508L141.448 107.91L149.488 96H151.978L137.518 117.27H135.088ZM166.817 104.85L170.057 89.7H173.567L170.207 105.51C169.787 107.47 169.037 108.94 167.957 109.92C166.877 110.88 165.397 111.36 163.517 111.36C161.777 111.36 160.247 110.81 158.927 109.71C157.607 108.61 157.037 107.07 157.217 105.09H160.697C160.637 106.03 160.897 106.76 161.477 107.28C162.077 107.8 162.767 108.06 163.547 108.06C164.467 108.06 165.177 107.79 165.677 107.25C166.197 106.71 166.577 105.91 166.817 104.85ZM181.353 111.3C179.133 111.3 177.373 110.64 176.073 109.32C174.793 107.98 174.153 106.28 174.153 104.22C174.153 101.76 174.943 99.73 176.523 98.13C178.123 96.51 180.193 95.7 182.733 95.7C184.933 95.7 186.683 96.48 187.983 98.04C189.303 99.58 189.753 101.64 189.333 104.22H177.333C177.313 105.46 177.693 106.45 178.473 107.19C179.253 107.93 180.303 108.3 181.623 108.3C183.123 108.3 184.463 107.63 185.643 106.29L188.043 108.24C186.483 110.28 184.253 111.3 181.353 111.3ZM182.493 98.49C181.453 98.49 180.473 98.78 179.553 99.36C178.653 99.92 178.033 100.74 177.693 101.82H186.183C186.143 100.74 185.783 99.92 185.103 99.36C184.443 98.78 183.573 98.49 182.493 98.49ZM197.764 111.27C195.984 111.27 194.504 110.64 193.324 109.38C192.164 108.12 191.584 106.5 191.584 104.52C191.584 102 192.354 99.9 193.894 98.22C195.434 96.54 197.404 95.7 199.804 95.7C200.984 95.7 202.024 95.98 202.924 96.54C203.824 97.1 204.434 97.72 204.754 98.4L205.264 96H208.564L205.384 111H202.084L202.444 109.38C201.984 109.94 201.334 110.4 200.494 110.76C199.674 111.1 198.764 111.27 197.764 111.27ZM198.724 108.36C200.184 108.36 201.414 107.84 202.414 106.8C203.414 105.74 203.914 104.41 203.914 102.81C203.914 101.51 203.574 100.5 202.894 99.78C202.214 99.06 201.274 98.7 200.074 98.7C198.634 98.7 197.414 99.23 196.414 100.29C195.414 101.33 194.914 102.65 194.914 104.25C194.914 105.55 195.254 106.56 195.934 107.28C196.614 108 197.544 108.36 198.724 108.36ZM209.883 111L213.063 96H216.363L215.973 97.77C217.113 96.39 218.673 95.7 220.653 95.7C222.413 95.7 223.723 96.37 224.583 97.71C225.463 99.05 225.693 100.64 225.273 102.48L223.443 111H220.143L221.913 102.66C222.193 101.42 222.103 100.45 221.643 99.75C221.203 99.05 220.463 98.7 219.423 98.7C218.303 98.7 217.333 99.09 216.513 99.87C215.713 100.65 215.143 101.8 214.803 103.32L213.183 111H209.883ZM241.896 111.36C240.196 111.36 238.626 110.93 237.186 110.07C235.746 109.21 234.746 108.12 234.186 106.8L237.186 104.91C237.646 105.93 238.316 106.71 239.196 107.25C240.096 107.79 241.066 108.06 242.106 108.06C243.186 108.06 244.036 107.81 244.656 107.31C245.296 106.81 245.616 106.13 245.616 105.27C245.616 104.55 245.406 103.94 244.986 103.44C244.566 102.94 243.856 102.45 242.856 101.97L241.746 101.43C240.266 100.71 239.166 99.88 238.446 98.94C237.726 98 237.356 96.85 237.336 95.49C237.336 93.71 237.986 92.24 239.286 91.08C240.606 89.92 242.336 89.34 244.476 89.34C245.876 89.34 247.166 89.65 248.346 90.27C249.526 90.87 250.446 91.75 251.106 92.91L248.406 94.98C247.466 93.44 246.096 92.67 244.296 92.67C243.356 92.67 242.546 92.91 241.866 93.39C241.206 93.85 240.876 94.46 240.876 95.22C240.876 95.94 241.086 96.52 241.506 96.96C241.946 97.4 242.696 97.88 243.756 98.4L244.686 98.85C246.266 99.63 247.406 100.51 248.106 101.49C248.826 102.45 249.186 103.64 249.186 105.06C249.186 107 248.526 108.54 247.206 109.68C245.886 110.8 244.116 111.36 241.896 111.36ZM257.397 92.73C256.777 92.73 256.247 92.52 255.807 92.1C255.387 91.66 255.177 91.13 255.177 90.51C255.177 89.91 255.387 89.4 255.807 88.98C256.247 88.54 256.777 88.32 257.397 88.32C257.997 88.32 258.507 88.54 258.927 88.98C259.367 89.4 259.587 89.91 259.587 90.51C259.587 91.13 259.367 91.66 258.927 92.1C258.507 92.52 257.997 92.73 257.397 92.73ZM251.397 111L254.577 96H257.877L254.697 111H251.397ZM259.16 111L262.34 96H265.64L265.25 97.77C266.39 96.39 267.95 95.7 269.93 95.7C271.69 95.7 273 96.37 273.86 97.71C274.74 99.05 274.97 100.64 274.55 102.48L272.72 111H269.42L271.19 102.66C271.47 101.42 271.38 100.45 270.92 99.75C270.48 99.05 269.74 98.7 268.7 98.7C267.58 98.7 266.61 99.09 265.79 99.87C264.99 100.65 264.42 101.8 264.08 103.32L262.46 111H259.16Z" fill="#fff"/></svg>