<svg width="344" height="157" viewBox="0 0 344 157" fill="none" xmlns="http://www.w3.org/2000/svg">
<path d="M24.48 105L0 44.52H15.84L30.24 81.96L44.64 44.52H60.48L36 105H24.48Z" fill="white"/>
<path d="M80.6288 105H66.2288V44.52H80.6288V105Z" fill="white"/>
<path d="M115.196 66.93C118.376 67.59 121.046 68.25 123.206 68.91C125.426 69.57 127.646 70.44 129.866 71.52C132.086 72.6 133.856 73.8 135.176 75.12C136.496 76.44 137.576 78.09 138.416 80.07C139.256 82.05 139.676 84.3 139.676 86.82C139.676 92.58 137.456 97.29 133.016 100.95C128.636 104.61 122.456 106.44 114.476 106.44C111.596 106.44 108.746 106.08 105.926 105.36C103.166 104.7 100.826 103.89 98.9065 102.93C96.9865 101.91 95.2465 100.92 93.6865 99.96C92.1865 98.94 91.0765 98.1 90.3565 97.44L89.2765 96.36L95.8465 84.84C101.666 90.6 107.876 93.48 114.476 93.48C121.676 93.48 125.276 91.56 125.276 87.72C125.276 86.22 124.556 85.02 123.116 84.12C121.676 83.16 119.036 82.35 115.196 81.69C107.036 80.31 101.036 78.09 97.1965 75.03C93.3565 71.97 91.4365 67.86 91.4365 62.7C91.4365 57.18 93.5965 52.53 97.9165 48.75C102.296 44.97 108.116 43.08 115.376 43.08C116.816 43.08 118.436 43.2 120.236 43.44C122.096 43.62 124.796 44.34 128.336 45.6C131.936 46.86 134.936 48.6 137.336 50.82L131.036 62.16C130.616 61.68 129.986 61.11 129.146 60.45C128.366 59.79 126.596 58.89 123.836 57.75C121.136 56.61 118.256 56.04 115.196 56.04C112.556 56.04 110.336 56.49 108.536 57.39C106.736 58.29 105.836 59.55 105.836 61.17C105.836 62.61 106.496 63.75 107.816 64.59C109.136 65.37 111.596 66.15 115.196 66.93Z" fill="white"/>
<path d="M162.719 105H148.319V44.52H162.719V105Z" fill="white"/>
<path d="M171.366 44.52H217.446V57.48H201.606V105H187.206V57.48H171.366V44.52Z" fill="white"/>
<path d="M229.771 52.35C236.131 46.17 243.781 43.08 252.721 43.08C261.661 43.08 269.281 46.17 275.581 52.35C281.941 58.53 285.121 66 285.121 74.76C285.121 83.52 281.941 90.99 275.581 97.17C269.281 103.35 261.661 106.44 252.721 106.44C243.781 106.44 236.131 103.35 229.771 97.17C223.471 90.99 220.321 83.52 220.321 74.76C220.321 66 223.471 58.53 229.771 52.35ZM239.941 87.99C243.481 91.65 247.741 93.48 252.721 93.48C257.701 93.48 261.931 91.65 265.411 87.99C268.951 84.33 270.721 79.92 270.721 74.76C270.721 69.6 268.951 65.19 265.411 61.53C261.931 57.87 257.701 56.04 252.721 56.04C247.741 56.04 243.481 57.87 239.941 61.53C236.461 65.19 234.721 69.6 234.721 74.76C234.721 79.92 236.461 84.33 239.941 87.99Z" fill="white"/>
<path d="M343.474 105H326.914L313.414 85.56H307.474V105H293.074V44.52H317.554C325.174 44.52 330.904 46.35 334.744 50.01C338.644 53.67 340.594 58.56 340.594 64.68C340.594 69.06 339.484 73.02 337.264 76.56C335.104 80.1 332.074 82.65 328.174 84.21L343.474 105ZM307.474 57.48V72.6H317.464C319.924 72.6 321.994 71.94 323.674 70.62C325.354 69.24 326.194 67.38 326.194 65.04C326.194 62.46 325.384 60.57 323.764 59.37C322.144 58.11 320.044 57.48 317.464 57.48H307.474Z" fill="white"/>
<path d="M1.44 0.76001H24.48V7.24001H16.56V31H9.36V7.24001H1.44V0.76001Z" fill="white"/>
<path d="M47.5277 0.76001H54.7277V31H47.5277V19.12H36.0077V31H28.8077V0.76001H36.0077V12.64H47.5277V0.76001Z" fill="white"/>
<path d="M79.9323 7.24001H67.6923V12.64H77.7723V19.12H67.6923V24.52H79.9323V31H60.4923V0.76001H79.9323V7.24001Z" fill="white"/>
<path d="M102.03 150.3C100.79 150.3 99.69 149.99 98.73 149.37C97.79 148.75 97.12 148.01 96.72 147.15L96.12 150H94.02L98.79 127.5H100.89L98.82 137.07C99.34 136.35 100.09 135.78 101.07 135.36C102.07 134.92 103.09 134.7 104.13 134.7C105.99 134.7 107.56 135.32 108.84 136.56C110.12 137.78 110.76 139.44 110.76 141.54C110.76 143.98 109.95 146.05 108.33 147.75C106.71 149.45 104.61 150.3 102.03 150.3ZM102.12 148.35C103.9 148.35 105.42 147.73 106.68 146.49C107.96 145.23 108.6 143.63 108.6 141.69C108.6 140.07 108.16 138.83 107.28 137.97C106.42 137.09 105.28 136.65 103.86 136.65C102.08 136.65 100.55 137.28 99.27 138.54C98.01 139.78 97.38 141.37 97.38 143.31C97.38 144.93 97.81 146.18 98.67 147.06C99.55 147.92 100.7 148.35 102.12 148.35Z" fill="white"/>
<path d="M112.088 156.27L116.918 149.16L113.288 135H115.508L118.448 146.91L126.488 135H128.978L114.518 156.27H112.088Z" fill="white"/>
<path d="M143.817 143.85L147.057 128.7H150.567L147.207 144.51C146.787 146.47 146.037 147.94 144.957 148.92C143.877 149.88 142.397 150.36 140.517 150.36C138.777 150.36 137.247 149.81 135.927 148.71C134.607 147.61 134.037 146.07 134.217 144.09H137.697C137.637 145.03 137.897 145.76 138.477 146.28C139.077 146.8 139.767 147.06 140.547 147.06C141.467 147.06 142.177 146.79 142.677 146.25C143.197 145.71 143.577 144.91 143.817 143.85Z" fill="white"/>
<path d="M158.353 150.3C156.133 150.3 154.373 149.64 153.073 148.32C151.793 146.98 151.153 145.28 151.153 143.22C151.153 140.76 151.943 138.73 153.523 137.13C155.123 135.51 157.193 134.7 159.733 134.7C161.933 134.7 163.683 135.48 164.983 137.04C166.303 138.58 166.753 140.64 166.333 143.22H154.333C154.313 144.46 154.693 145.45 155.473 146.19C156.253 146.93 157.303 147.3 158.623 147.3C160.123 147.3 161.463 146.63 162.643 145.29L165.043 147.24C163.483 149.28 161.253 150.3 158.353 150.3ZM159.493 137.49C158.453 137.49 157.473 137.78 156.553 138.36C155.653 138.92 155.033 139.74 154.693 140.82H163.183C163.143 139.74 162.783 138.92 162.103 138.36C161.443 137.78 160.573 137.49 159.493 137.49Z" fill="white"/>
<path d="M174.764 150.27C172.984 150.27 171.504 149.64 170.324 148.38C169.164 147.12 168.584 145.5 168.584 143.52C168.584 141 169.354 138.9 170.894 137.22C172.434 135.54 174.404 134.7 176.804 134.7C177.984 134.7 179.024 134.98 179.924 135.54C180.824 136.1 181.434 136.72 181.754 137.4L182.264 135H185.564L182.384 150H179.084L179.444 148.38C178.984 148.94 178.334 149.4 177.494 149.76C176.674 150.1 175.764 150.27 174.764 150.27ZM175.724 147.36C177.184 147.36 178.414 146.84 179.414 145.8C180.414 144.74 180.914 143.41 180.914 141.81C180.914 140.51 180.574 139.5 179.894 138.78C179.214 138.06 178.274 137.7 177.074 137.7C175.634 137.7 174.414 138.23 173.414 139.29C172.414 140.33 171.914 141.65 171.914 143.25C171.914 144.55 172.254 145.56 172.934 146.28C173.614 147 174.544 147.36 175.724 147.36Z" fill="white"/>
<path d="M186.883 150L190.063 135H193.363L192.973 136.77C194.113 135.39 195.673 134.7 197.653 134.7C199.413 134.7 200.723 135.37 201.583 136.71C202.463 138.05 202.693 139.64 202.273 141.48L200.443 150H197.143L198.913 141.66C199.193 140.42 199.103 139.45 198.643 138.75C198.203 138.05 197.463 137.7 196.423 137.7C195.303 137.7 194.333 138.09 193.513 138.87C192.713 139.65 192.143 140.8 191.803 142.32L190.183 150H186.883Z" fill="white"/>
<path d="M218.896 150.36C217.196 150.36 215.626 149.93 214.186 149.07C212.746 148.21 211.746 147.12 211.186 145.8L214.186 143.91C214.646 144.93 215.316 145.71 216.196 146.25C217.096 146.79 218.066 147.06 219.106 147.06C220.186 147.06 221.036 146.81 221.656 146.31C222.296 145.81 222.616 145.13 222.616 144.27C222.616 143.55 222.406 142.94 221.986 142.44C221.566 141.94 220.856 141.45 219.856 140.97L218.746 140.43C217.266 139.71 216.166 138.88 215.446 137.94C214.726 137 214.356 135.85 214.336 134.49C214.336 132.71 214.986 131.24 216.286 130.08C217.606 128.92 219.336 128.34 221.476 128.34C222.876 128.34 224.166 128.65 225.346 129.27C226.526 129.87 227.446 130.75 228.106 131.91L225.406 133.98C224.466 132.44 223.096 131.67 221.296 131.67C220.356 131.67 219.546 131.91 218.866 132.39C218.206 132.85 217.876 133.46 217.876 134.22C217.876 134.94 218.086 135.52 218.506 135.96C218.946 136.4 219.696 136.88 220.756 137.4L221.686 137.85C223.266 138.63 224.406 139.51 225.106 140.49C225.826 141.45 226.186 142.64 226.186 144.06C226.186 146 225.526 147.54 224.206 148.68C222.886 149.8 221.116 150.36 218.896 150.36Z" fill="white"/>
<path d="M234.397 131.73C233.777 131.73 233.247 131.52 232.807 131.1C232.387 130.66 232.177 130.13 232.177 129.51C232.177 128.91 232.387 128.4 232.807 127.98C233.247 127.54 233.777 127.32 234.397 127.32C234.997 127.32 235.507 127.54 235.927 127.98C236.367 128.4 236.587 128.91 236.587 129.51C236.587 130.13 236.367 130.66 235.927 131.1C235.507 131.52 234.997 131.73 234.397 131.73ZM228.397 150L231.577 135H234.877L231.697 150H228.397Z" fill="white"/>
<path d="M236.16 150L239.34 135H242.64L242.25 136.77C243.39 135.39 244.95 134.7 246.93 134.7C248.69 134.7 250 135.37 250.86 136.71C251.74 138.05 251.97 139.64 251.55 141.48L249.72 150H246.42L248.19 141.66C248.47 140.42 248.38 139.45 247.92 138.75C247.48 138.05 246.74 137.7 245.7 137.7C244.58 137.7 243.61 138.09 242.79 138.87C241.99 139.65 241.42 140.8 241.08 142.32L239.46 150H236.16Z" fill="white"/>
</svg>
