<svg width="67" height="90" viewBox="0 0 67 90" fill="none" xmlns="http://www.w3.org/2000/svg">
<g filter="url(#filter0_d)">
<path fill-rule="evenodd" clip-rule="evenodd" d="M54.2609 16.3341C54.311 16.1226 54.3611 15.911 54.4118 15.6995C54.3362 14.2833 53.7261 13.2507 52.461 12.6678C51.9206 12.4355 51.3617 12.2492 50.79 12.1108C50.3582 11.9942 49.9228 11.8907 49.4875 11.7871L49.4875 11.7871C48.9485 11.6589 48.4095 11.5307 47.8775 11.3779C46.741 11.0522 45.9869 10.2827 45.5809 9.1817C45.4291 8.77168 45.305 8.35125 45.1812 7.93156L45.1195 7.72307C45.0346 7.43527 44.9601 7.14321 44.8856 6.8513L44.8855 6.85123C44.7313 6.24664 44.5771 5.64267 44.3312 5.07842C43.681 3.58322 42.3746 2.91291 40.7637 3.20794C39.8149 3.37121 38.8844 3.62735 37.9857 3.97265C35.5759 4.94507 33.657 4.30191 32.0662 2.35943C31.8852 2.1271 31.6881 1.90784 31.4762 1.70329C31.3915 1.6262 31.3075 1.54816 31.2235 1.4701L31.2234 1.47007L31.2233 1.46998L31.2233 1.46991L31.2231 1.46974C30.8892 1.15956 30.5551 0.849178 30.178 0.597516C29.0487 -0.16366 27.8485 -0.209685 26.6884 0.529069C26.2012 0.858935 25.7506 1.23992 25.3443 1.66552C24.9764 2.03145 24.6235 2.412 24.2707 2.79247C23.9818 3.10404 23.6929 3.41555 23.3959 3.71893C22.3963 4.73973 21.1879 5.13035 19.7895 4.79402C19.1836 4.64868 18.5837 4.47855 17.9837 4.30838L17.9836 4.30835C17.658 4.216 17.3323 4.12363 17.0056 4.0352C14.545 3.36843 12.8232 4.37271 12.2096 6.85096C12.0197 7.53273 11.8661 8.22406 11.7493 8.92207C11.4059 11.398 9.91541 12.6878 7.53865 13.0973C7.4217 13.113 7.30583 13.1358 7.1917 13.1658C6.98543 13.2271 6.77635 13.2832 6.56704 13.3394C6.03508 13.4822 5.50171 13.6255 5.00966 13.855C3.56165 14.5276 2.93383 15.8092 3.16985 17.3882C3.23358 17.7759 3.32228 18.1591 3.43538 18.5353C3.67967 19.385 3.92749 20.2335 4.2001 21.0737C4.73351 22.7059 4.32401 24.0949 3.13799 25.2832C2.86649 25.5558 2.58605 25.8194 2.30572 26.0829L2.30571 26.0829L2.30568 26.0829L2.30564 26.0829L2.30561 26.083L2.3056 26.083C1.94139 26.4253 1.57735 26.7675 1.23328 27.1289C-0.424786 28.8661 -0.405904 30.7059 1.25924 32.4395C1.35743 32.5399 1.46004 32.635 1.56263 32.7301L1.56275 32.7302C1.61918 32.7825 1.67561 32.8347 1.73129 32.8879C1.95384 33.1014 2.1784 33.3129 2.40295 33.5243L2.40322 33.5246C2.90848 34.0003 3.41364 34.476 3.89563 34.9744C4.77718 35.8878 5.08637 37.0006 4.80904 38.2386C4.6487 38.9442 4.46661 39.6439 4.2845 40.3436L4.28448 40.3436L4.28447 40.3437L4.28445 40.3438L4.28444 40.3438L4.28442 40.3439C4.17571 40.7616 4.06699 41.1793 3.96289 41.5984C3.71507 42.5885 3.81538 43.5066 4.39836 44.3929C5.07811 45.4338 6.12369 45.7654 7.21766 46.0451C7.60486 46.1421 7.99374 46.2344 8.38275 46.3268L8.38289 46.3268L8.38304 46.3269L8.38314 46.3269C8.9686 46.4659 9.55431 46.6049 10.1349 46.7602C11.341 47.0824 12.1612 47.853 12.5907 49.0225C12.7484 49.455 12.8772 49.898 13.0058 50.3403L13.0474 50.4835C13.1285 50.763 13.2001 51.0463 13.2716 51.3296C13.4167 51.9041 13.5617 52.4786 13.7862 53.0207C14.4152 54.5372 15.724 55.2252 17.3561 54.9892C17.7649 54.9282 18.1691 54.8391 18.5657 54.7225C19.2429 54.5281 19.9215 54.3233 20.5993 54.1187L20.6029 54.1177C20.8086 54.0556 21.0142 53.9935 21.2198 53.9318C22.6418 53.5034 23.9128 53.7807 24.9961 54.7874C25.4861 55.2426 25.9491 55.7268 26.4121 56.211C26.5469 56.3519 26.6816 56.4929 26.8171 56.6331C28.7973 58.6853 30.7421 58.6888 32.7106 56.6331C32.8017 56.538 32.8912 56.441 32.9807 56.344L32.9809 56.3438L32.9813 56.3433L32.9814 56.3432L32.9815 56.3432L32.9815 56.3431L32.9816 56.3431C33.0785 56.238 33.1755 56.1329 33.2747 56.03C33.4597 55.8398 33.642 55.6476 33.8242 55.4554L33.8243 55.4554C34.2231 55.0348 34.6212 54.615 35.0449 54.2197C35.4401 53.8305 35.9267 53.5465 36.46 53.3937C36.9933 53.241 37.5564 53.2243 38.0978 53.3453C38.9072 53.5021 39.7067 53.7062 40.4923 53.9566C43.5783 54.9691 45.3437 53.9837 46.0648 50.8387C46.2867 49.8816 46.5097 48.9222 46.7729 47.9781C47.1068 46.7744 47.8963 45.9565 49.0765 45.5671C49.7668 45.339 50.474 45.1579 51.1802 44.9772L51.1804 44.9771C51.3107 44.9437 51.4411 44.9104 51.5712 44.8767C52.6074 44.6088 53.6211 44.2914 54.3292 43.4287C55.2685 42.2781 55.1305 40.9847 54.7422 39.6736L54.6429 39.344L54.6427 39.3433C54.3638 38.4188 54.0853 37.495 53.8406 36.5628C53.5349 35.3945 53.8076 34.3277 54.5841 33.4201C54.891 33.0611 55.227 32.7274 55.5633 32.3934L55.5634 32.3933L55.5634 32.3933L55.5634 32.3933L55.5634 32.3932L55.5634 32.3932C55.7986 32.1596 56.034 31.9258 56.2598 31.683C56.3654 31.5696 56.4731 31.4575 56.5808 31.3453L56.5808 31.3453L56.5809 31.3452L56.5809 31.3452L56.5809 31.3452L56.581 31.3451C56.9632 30.947 57.3465 30.5478 57.6429 30.0875C58.39 28.9381 58.3475 27.7332 57.5792 26.5991C57.2471 26.1375 56.873 25.7077 56.4616 25.3151C56.1355 24.9885 55.8002 24.6713 55.465 24.3543L55.4648 24.3542C55.0431 23.9554 54.6217 23.5569 54.2194 23.1401C53.3981 22.2905 53.1113 21.2413 53.3284 20.0907C53.4244 19.5695 53.5658 19.056 53.7072 18.5424L53.7072 18.5423L53.7072 18.5423L53.7072 18.5422L53.7072 18.5422L53.7073 18.5422C53.7797 18.2791 53.8521 18.0159 53.9185 17.7517C54.0367 17.2804 54.1488 16.8073 54.2609 16.3341ZM29.09 8.34735C40.5489 8.34735 49.8117 17.6278 49.8282 29.1174C49.8304 34.6079 47.6519 39.8744 43.7718 43.759C39.8917 47.6435 34.6276 49.828 29.1372 49.8321C17.7998 49.8557 8.37418 40.8466 8.33995 29.1021C8.30691 17.6479 17.631 8.34735 29.09 8.34735ZM58.0914 72.9022L46.9345 53.5813C45.1337 56.2566 42.7144 56.4679 39.9966 55.6158C39.8707 55.5761 39.7442 55.5375 39.6176 55.499L39.6175 55.499L39.6175 55.4989C39.3683 55.423 39.1189 55.3471 38.8732 55.2618C37.4629 54.7732 36.3324 55.1048 35.3576 56.2672L35.25 56.3957C34.0278 57.8558 32.7923 59.3318 30.7492 59.8076L43.2254 81.4545C43.2696 81.3565 43.3069 81.2759 43.3391 81.2063C43.398 81.079 43.4398 80.9887 43.4756 80.8963C43.7287 80.2435 43.9822 79.5908 44.2356 78.9381C45.1629 76.5504 46.09 74.1629 46.9983 71.7681C47.1658 71.3244 47.3688 71.23 47.8161 71.3031C49.4998 71.5806 51.1864 71.8392 52.8725 72.0978L52.8758 72.0983L52.8809 72.0991L52.886 72.0999L52.8911 72.1006C53.3933 72.1777 53.8955 72.2547 54.3976 72.3322L58.0914 72.9022ZM0.0873855 65.0615C3.32681 59.4547 6.49897 53.9648 9.68529 48.4525C9.95942 48.506 10.2148 48.6304 10.4259 48.8132C10.6371 48.996 10.7968 49.2309 10.889 49.4945C11.0312 49.8843 11.1397 50.2865 11.2482 50.6887C11.3595 51.1011 11.4707 51.5135 11.6183 51.9126C11.6921 52.1113 11.7631 52.313 11.8344 52.5154L11.8344 52.5155L11.8344 52.5156C12.1165 53.3169 12.4022 54.1284 12.8751 54.7992C14.2488 56.7475 16.2621 57.0709 18.4536 56.5434C19.2616 56.3484 20.0535 56.0875 20.8442 55.8271L20.8444 55.8271L20.8445 55.827L20.8446 55.827L20.8448 55.8269C21.0587 55.7565 21.2725 55.6861 21.4865 55.617C22.7114 55.2276 23.6331 55.735 24.4096 56.6154C24.5088 56.7334 24.4863 57.0532 24.3966 57.2054C23.9455 57.986 23.487 58.7612 23.0286 59.5362L23.0285 59.5363L23.0285 59.5364L23.0285 59.5364C22.5277 60.3831 22.027 61.2296 21.536 62.0829C20.8616 63.2534 20.1983 64.4306 19.535 65.6077C19.0527 66.4635 18.5706 67.3193 18.0842 68.1723C17.4493 69.2858 16.8056 70.395 16.1621 71.5039L16.1601 71.5074C15.857 72.0297 15.554 72.5519 15.2519 73.0745C15.1874 73.1852 15.1164 73.2927 15.0162 73.4446L14.9547 73.5379L14.8979 73.6244C14.7517 73.2496 14.61 72.891 14.4719 72.5417L14.4718 72.5413C14.2622 72.0107 14.0609 71.5015 13.8653 70.9892C13.7046 70.5752 13.5438 70.1611 13.3829 69.747L13.3828 69.7467C12.6268 67.8003 11.8702 65.8527 11.1298 63.8979C10.9834 63.5132 10.817 63.4093 10.3969 63.4778C7.78872 63.8987 5.17826 64.3005 2.56795 64.7022L2.56668 64.7024L2.56541 64.7026L2.56411 64.7028C1.93363 64.7999 1.30315 64.8969 0.672724 64.9942C0.58604 65.0114 0.491784 65.0206 0.359994 65.0333H0.359976C0.283644 65.0407 0.194721 65.0494 0.0873855 65.0615ZM29.0286 48.0772C39.5836 48.1268 48.0911 39.3632 48.0663 29.0962C48.071 18.6368 39.5765 10.114 29.1325 10.101C26.6331 10.0948 24.1571 10.5822 21.8466 11.5351C19.5361 12.4881 17.4364 13.8879 15.6682 15.6543C13.9 17.4207 12.4979 19.5188 11.5425 21.8284C10.5871 24.1379 10.0971 26.6134 10.1007 29.1127C10.0948 39.4624 18.5256 48.0288 29.0286 48.0772ZM24.6247 35H18.8107V34.352L19.7287 34.208C20.2507 34.118 20.4307 34.01 20.4307 33.02V25.19L18.7927 25.136V24.47C20.5387 24.11 21.6187 23.408 22.5367 22.382L23.1127 22.472V33.02C23.1127 34.01 23.2207 34.118 23.7787 34.208L24.6247 34.352V35ZM32.6815 32.102C32.6815 33.902 31.2415 35.216 28.7755 35.216C27.6955 35.216 26.6695 35.072 25.9315 34.856L25.8055 32.12H26.4535C26.4999 32.2152 26.5426 32.3044 26.583 32.3889C26.8408 32.9272 27.0054 33.2708 27.4255 33.722C27.7675 34.1 28.1995 34.37 29.0455 34.37C30.0715 34.37 30.7375 33.902 30.7375 33.038C30.7375 32.138 30.0715 31.778 28.5415 31.202C26.9395 30.572 25.8775 29.798 25.8775 28.34C25.8775 26.648 27.3175 25.478 29.5315 25.478C30.5755 25.478 31.4035 25.586 31.9975 25.802L32.0695 28.232H31.4575C31.1155 27.602 30.8275 27.206 30.4855 26.774C30.2155 26.504 29.9635 26.324 29.2615 26.324C28.1995 26.324 27.6775 26.756 27.6775 27.62C27.6775 28.268 28.2175 28.682 29.7295 29.24C31.6735 29.942 32.6815 30.716 32.6815 32.102ZM39.5815 34.37C39.2035 34.784 38.3215 35.216 36.9355 35.216C35.5495 35.216 34.5955 34.586 34.5955 33.02V26.864H33.3895V26.288C34.7575 25.856 35.4775 24.902 35.9815 23.39H36.9895V25.73H39.5275L39.2575 26.864H36.9895V32.75C36.9895 33.596 37.3315 33.938 38.2135 33.938C38.6995 33.938 39.2395 33.812 39.5815 33.722V34.37Z" fill="#FFD700"/>
</g>
<defs>
<filter id="filter0_d" x="0" y="0" width="66.18" height="89.4545" filterUnits="userSpaceOnUse" color-interpolation-filters="sRGB">
<feFlood flood-opacity="0" result="BackgroundImageFix"/>
<feColorMatrix in="SourceAlpha" type="matrix" values="0 0 0 0 0 0 0 0 0 0 0 0 0 0 0 0 0 0 127 0"/>
<feOffset dx="4" dy="4"/>
<feGaussianBlur stdDeviation="2"/>
<feColorMatrix type="matrix" values="0 0 0 0 0 0 0 0 0 0 0 0 0 0 0 0 0 0 0.25 0"/>
<feBlend mode="normal" in2="BackgroundImageFix" result="effect1_dropShadow"/>
<feBlend mode="normal" in="SourceGraphic" in2="effect1_dropShadow" result="shape"/>
</filter>
</defs>
</svg>
