<svg width="186" height="90" viewBox="0 0 186 90" fill="none" xmlns="http://www.w3.org/2000/svg">
<g filter="url(#filter0_d)">
<path fill-rule="evenodd" clip-rule="evenodd" d="M54.2609 16.3341C54.311 16.1226 54.3611 15.911 54.4118 15.6995C54.3362 14.2833 53.7261 13.2507 52.461 12.6678C51.9206 12.4355 51.3617 12.2492 50.79 12.1108C50.3582 11.9942 49.9228 11.8907 49.4875 11.7871L49.4875 11.7871C48.9485 11.6589 48.4095 11.5307 47.8775 11.3779C46.741 11.0522 45.9869 10.2827 45.5809 9.1817C45.4291 8.77168 45.305 8.35125 45.1812 7.93156L45.1195 7.72307C45.0346 7.43527 44.9601 7.14321 44.8856 6.8513L44.8855 6.85123C44.7313 6.24664 44.5771 5.64267 44.3312 5.07842C43.681 3.58322 42.3746 2.91291 40.7637 3.20794C39.8149 3.37121 38.8844 3.62735 37.9857 3.97265C35.5759 4.94507 33.657 4.30191 32.0662 2.35943C31.8852 2.1271 31.6881 1.90784 31.4762 1.70329C31.3915 1.6262 31.3075 1.54816 31.2235 1.4701L31.2234 1.47007L31.2233 1.46998L31.2233 1.46991L31.2231 1.46974C30.8892 1.15956 30.5551 0.849178 30.178 0.597516C29.0487 -0.16366 27.8485 -0.209685 26.6884 0.529069C26.2012 0.858935 25.7506 1.23992 25.3443 1.66552C24.9764 2.03145 24.6235 2.412 24.2707 2.79247C23.9818 3.10404 23.6929 3.41555 23.3959 3.71893C22.3963 4.73973 21.1879 5.13035 19.7895 4.79402C19.1836 4.64868 18.5837 4.47855 17.9837 4.30838L17.9836 4.30835C17.658 4.216 17.3323 4.12363 17.0056 4.0352C14.545 3.36843 12.8232 4.37271 12.2096 6.85096C12.0197 7.53273 11.8661 8.22406 11.7493 8.92207C11.4059 11.398 9.91541 12.6878 7.53865 13.0973C7.4217 13.113 7.30583 13.1358 7.1917 13.1658C6.98543 13.2271 6.77635 13.2832 6.56704 13.3394C6.03508 13.4822 5.50171 13.6255 5.00966 13.855C3.56165 14.5276 2.93383 15.8092 3.16985 17.3882C3.23358 17.7759 3.32228 18.1591 3.43538 18.5353C3.67967 19.385 3.92749 20.2335 4.2001 21.0737C4.73351 22.7059 4.32401 24.0949 3.13799 25.2832C2.86649 25.5558 2.58605 25.8194 2.30572 26.0829L2.30571 26.0829L2.30568 26.0829L2.30564 26.0829L2.30561 26.083L2.3056 26.083C1.94139 26.4253 1.57735 26.7675 1.23328 27.1289C-0.424786 28.8661 -0.405904 30.7059 1.25924 32.4395C1.35743 32.5399 1.46004 32.635 1.56263 32.7301L1.56275 32.7302C1.61918 32.7825 1.67561 32.8347 1.73129 32.8879C1.95384 33.1014 2.1784 33.3129 2.40295 33.5243L2.40322 33.5246C2.90848 34.0003 3.41364 34.476 3.89563 34.9744C4.77718 35.8878 5.08637 37.0006 4.80904 38.2386C4.6487 38.9442 4.46661 39.6439 4.2845 40.3436L4.28448 40.3436L4.28447 40.3437L4.28445 40.3438L4.28444 40.3438L4.28442 40.3439C4.17571 40.7616 4.06699 41.1793 3.96289 41.5984C3.71507 42.5885 3.81538 43.5066 4.39836 44.3929C5.07811 45.4338 6.12369 45.7654 7.21766 46.0451C7.60486 46.1421 7.99374 46.2344 8.38275 46.3268L8.38289 46.3268L8.38304 46.3269L8.38314 46.3269C8.9686 46.4659 9.55431 46.6049 10.1349 46.7602C11.341 47.0824 12.1612 47.853 12.5907 49.0225C12.7484 49.455 12.8772 49.898 13.0058 50.3403L13.0474 50.4835C13.1285 50.763 13.2001 51.0463 13.2716 51.3296C13.4167 51.9041 13.5617 52.4786 13.7862 53.0207C14.4152 54.5372 15.724 55.2252 17.3561 54.9892C17.7649 54.9282 18.1691 54.8391 18.5657 54.7225C19.2429 54.5281 19.9215 54.3233 20.5993 54.1187L20.6029 54.1177C20.8086 54.0556 21.0142 53.9935 21.2198 53.9318C22.6418 53.5034 23.9128 53.7807 24.9961 54.7874C25.4861 55.2426 25.9491 55.7268 26.4121 56.211C26.5469 56.3519 26.6816 56.4929 26.8171 56.6331C28.7973 58.6853 30.7421 58.6888 32.7106 56.6331C32.8017 56.538 32.8912 56.441 32.9807 56.344L32.9809 56.3438L32.9813 56.3433L32.9814 56.3432L32.9815 56.3432L32.9815 56.3431L32.9816 56.3431C33.0785 56.238 33.1755 56.1329 33.2747 56.03C33.4597 55.8398 33.642 55.6476 33.8242 55.4554L33.8243 55.4554C34.2231 55.0348 34.6212 54.615 35.0449 54.2197C35.4401 53.8305 35.9267 53.5465 36.46 53.3937C36.9933 53.241 37.5564 53.2243 38.0978 53.3453C38.9072 53.5021 39.7067 53.7062 40.4923 53.9566C43.5783 54.9691 45.3437 53.9837 46.0648 50.8387C46.2867 49.8816 46.5097 48.9222 46.7729 47.9781C47.1068 46.7744 47.8963 45.9565 49.0765 45.5671C49.7668 45.339 50.474 45.1579 51.1802 44.9772L51.1804 44.9771C51.3107 44.9437 51.4411 44.9104 51.5712 44.8767C52.6074 44.6088 53.6211 44.2914 54.3292 43.4287C55.2685 42.2781 55.1305 40.9847 54.7422 39.6736L54.6429 39.344L54.6427 39.3433C54.3638 38.4188 54.0853 37.495 53.8406 36.5628C53.5349 35.3945 53.8076 34.3277 54.5841 33.4201C54.891 33.0611 55.227 32.7274 55.5633 32.3934L55.5634 32.3933L55.5634 32.3933L55.5634 32.3933L55.5634 32.3932L55.5634 32.3932C55.7986 32.1596 56.034 31.9258 56.2598 31.683C56.3654 31.5696 56.4731 31.4575 56.5808 31.3453L56.5808 31.3453L56.5809 31.3452L56.5809 31.3452L56.5809 31.3452L56.581 31.3451C56.9632 30.947 57.3465 30.5478 57.6429 30.0875C58.39 28.9381 58.3475 27.7332 57.5792 26.5991C57.2471 26.1375 56.873 25.7077 56.4616 25.3151C56.1355 24.9885 55.8002 24.6713 55.465 24.3543L55.4648 24.3542C55.0431 23.9554 54.6217 23.5569 54.2194 23.1401C53.3981 22.2905 53.1113 21.2413 53.3284 20.0907C53.4244 19.5695 53.5658 19.056 53.7072 18.5424L53.7072 18.5423L53.7072 18.5423L53.7072 18.5422L53.7072 18.5422L53.7073 18.5422C53.7797 18.2791 53.8521 18.0159 53.9185 17.7517C54.0367 17.2804 54.1488 16.8073 54.2609 16.3341ZM29.09 8.34735C40.5489 8.34735 49.8117 17.6278 49.8282 29.1174C49.8304 34.6079 47.6519 39.8744 43.7718 43.759C39.8917 47.6435 34.6276 49.828 29.1372 49.8321C17.7998 49.8557 8.37418 40.8466 8.33995 29.1021C8.30691 17.6479 17.631 8.34735 29.09 8.34735ZM58.0914 72.9022L46.9345 53.5813C45.1337 56.2566 42.7144 56.4679 39.9966 55.6158C39.8707 55.5761 39.7442 55.5375 39.6176 55.499L39.6175 55.499L39.6175 55.4989C39.3683 55.423 39.1189 55.3471 38.8732 55.2618C37.4629 54.7732 36.3324 55.1048 35.3576 56.2672L35.25 56.3957C34.0278 57.8558 32.7923 59.3318 30.7492 59.8076L43.2254 81.4545C43.2696 81.3565 43.3069 81.2759 43.3391 81.2063C43.398 81.079 43.4398 80.9887 43.4756 80.8963C43.7287 80.2435 43.9822 79.5908 44.2356 78.9381C45.1629 76.5504 46.09 74.1629 46.9983 71.7681C47.1658 71.3244 47.3688 71.23 47.8161 71.3031C49.4998 71.5806 51.1864 71.8392 52.8725 72.0978L52.8758 72.0983L52.8809 72.0991L52.886 72.0999L52.8911 72.1006C53.3933 72.1777 53.8955 72.2547 54.3976 72.3322L58.0914 72.9022ZM0.0873855 65.0615C3.32681 59.4547 6.49897 53.9648 9.68529 48.4525C9.95942 48.506 10.2148 48.6304 10.4259 48.8132C10.6371 48.996 10.7968 49.2309 10.889 49.4945C11.0312 49.8843 11.1397 50.2865 11.2482 50.6887C11.3595 51.1011 11.4707 51.5135 11.6183 51.9126C11.6921 52.1113 11.7631 52.313 11.8344 52.5154L11.8344 52.5155L11.8344 52.5156C12.1165 53.3169 12.4022 54.1284 12.8751 54.7992C14.2488 56.7475 16.2621 57.0709 18.4536 56.5434C19.2616 56.3484 20.0535 56.0875 20.8442 55.8271L20.8444 55.8271L20.8445 55.827L20.8446 55.827L20.8448 55.8269C21.0587 55.7565 21.2725 55.6861 21.4865 55.617C22.7114 55.2276 23.6331 55.735 24.4096 56.6154C24.5088 56.7334 24.4863 57.0532 24.3966 57.2054C23.9455 57.986 23.487 58.7612 23.0286 59.5362L23.0285 59.5363L23.0285 59.5364L23.0285 59.5364C22.5277 60.3831 22.027 61.2296 21.536 62.0829C20.8616 63.2534 20.1983 64.4306 19.535 65.6077C19.0527 66.4635 18.5706 67.3193 18.0842 68.1723C17.4493 69.2858 16.8056 70.395 16.1621 71.5039L16.1601 71.5074C15.857 72.0297 15.554 72.5519 15.2519 73.0745C15.1874 73.1852 15.1164 73.2927 15.0162 73.4446L14.9547 73.5379L14.8979 73.6244C14.7517 73.2496 14.61 72.891 14.4719 72.5417L14.4718 72.5413C14.2622 72.0107 14.0609 71.5015 13.8653 70.9892C13.7046 70.5752 13.5438 70.1611 13.3829 69.747L13.3828 69.7467C12.6268 67.8003 11.8702 65.8527 11.1298 63.8979C10.9834 63.5132 10.817 63.4093 10.3969 63.4778C7.78872 63.8987 5.17826 64.3005 2.56795 64.7022L2.56668 64.7024L2.56541 64.7026L2.56411 64.7028C1.93363 64.7999 1.30315 64.8969 0.672724 64.9942C0.58604 65.0114 0.491784 65.0206 0.359994 65.0333H0.359976C0.283644 65.0407 0.194721 65.0494 0.0873855 65.0615ZM29.0286 48.0772C39.5836 48.1268 48.0911 39.3632 48.0663 29.0962C48.071 18.6368 39.5765 10.114 29.1325 10.101C26.6331 10.0948 24.1571 10.5822 21.8466 11.5351C19.5361 12.4881 17.4364 13.8879 15.6682 15.6543C13.9 17.4207 12.4979 19.5188 11.5425 21.8284C10.5871 24.1379 10.0971 26.6134 10.1007 29.1127C10.0948 39.4624 18.5256 48.0288 29.0286 48.0772ZM22.5574 35H14.5674V33.861C16.0634 32.688 17.3044 31.532 18.2394 30.512C19.4974 29.118 20.2454 28.098 20.2454 26.16C20.2454 24.46 19.4124 23.763 18.3924 23.763C17.5594 23.763 17.3554 23.984 17.2874 24.579C17.2194 25.65 16.8284 26.058 15.9954 26.058C15.2474 26.058 14.8734 25.701 14.8734 24.97C14.8734 23.95 16.0804 23.015 18.6134 23.015C21.0104 23.015 22.7784 24.154 22.7784 26.415C22.7784 28.846 19.9734 31.039 16.6584 33.079V33.164H20.6364C21.5544 33.164 21.6564 33.011 22.2514 31.821H22.8124L22.5574 35ZM28.2186 35H23.7646V34.405L24.3596 34.252C24.8356 34.116 24.9036 34.048 24.9036 33.317V28.268C24.9036 27.5687 24.8258 27.5228 24.4172 27.282C24.3987 27.2711 24.3795 27.2598 24.3596 27.248L23.7476 26.891V26.398L26.9266 26.024L27.1306 26.16L27.0286 27.146H27.0966C27.9976 26.551 29.2046 26.024 30.4116 26.024C32.0266 26.024 32.7236 26.738 32.7236 28.285V33.317C32.7236 34.014 32.8256 34.167 33.2676 34.252L33.8286 34.405V35H29.4086V34.405L29.9696 34.269L29.9771 34.2666C30.3954 34.1328 30.4626 34.1113 30.4626 33.317V28.914C30.4626 27.775 30.0886 27.401 29.1196 27.401C28.4187 27.401 27.6395 27.6511 27.202 27.7916C27.1832 27.7976 27.1651 27.8034 27.1476 27.809V33.317C27.1476 34.1113 27.2148 34.1328 27.6331 34.2666L27.6406 34.269L28.2186 34.405V35ZM41.186 34.15C40.438 34.745 39.367 35.204 38.194 35.204C36.494 35.204 34.76 34.065 34.76 30.903C34.76 27.486 37.106 26.024 39.707 26.024C40.302 26.024 40.863 26.075 41.203 26.194C41.1943 26.1326 41.19 26.0668 41.1856 25.9987C41.1815 25.9348 41.1773 25.8689 41.169 25.803C41.152 25.548 41.135 25.276 41.135 24.953V24.188C41.135 23.4701 41.0203 23.4081 40.6298 23.1968L40.608 23.185L39.894 22.828V22.284L43.294 21.978L43.498 22.148C43.4922 22.1949 43.4843 22.2459 43.4758 22.301C43.4596 22.4054 43.4412 22.5244 43.43 22.658C43.396 22.998 43.379 23.474 43.379 24.103V32.892C43.379 33.691 43.447 33.793 43.923 33.98L44.484 34.235V34.779L41.322 35.204L41.169 35.085L41.254 34.15H41.186ZM37.089 30.461C37.089 32.96 37.905 33.844 39.401 33.844C40.268 33.844 40.812 33.555 41.135 33.368V27.537C40.812 27.197 40.336 26.84 39.605 26.84C38.075 26.84 37.089 27.741 37.089 30.461Z" fill="#D3D3D3"/>
</g>
<g filter="url(#filter1_d)">
<path fill-rule="evenodd" clip-rule="evenodd" d="M81 6C72.7157 6 66 12.7157 66 21V36C66 44.2843 72.7157 51 81 51H163C171.284 51 178 44.2843 178 36V21C178 12.7157 171.284 6 163 6H81ZM91.46 35H83.378V34.046C84.854 32.858 86.384 31.472 87.248 30.5C88.688 28.916 89.57 27.836 89.57 25.748C89.57 23.786 88.472 23.048 87.338 23.048C86.294 23.048 86.024 23.336 85.97 23.912C85.88 24.704 85.556 25.172 84.854 25.172C84.134 25.172 83.81 24.74 83.81 24.146C83.81 23.21 85.07 22.31 87.518 22.31C89.822 22.31 91.586 23.48 91.586 25.874C91.586 28.502 88.562 30.986 85.304 33.344V33.416H89.462C90.452 33.416 90.614 33.272 91.244 32.012H91.748L91.46 35ZM96.9788 35H92.7488V34.46L93.4868 34.262C93.8468 34.172 93.9728 34.028 93.9728 33.326V27.746C93.9728 27.0696 93.8972 27.0283 93.5381 26.832C93.5054 26.8142 93.4704 26.795 93.4328 26.774L92.7488 26.432V25.964L95.5928 25.586L95.7728 25.694L95.6828 26.702H95.7548C96.6548 26.126 98.0048 25.568 99.1568 25.568C100.975 25.568 101.605 26.324 101.605 27.962V33.326C101.605 34.028 101.749 34.172 102.091 34.262L102.811 34.46V35H98.5988V34.46L99.3368 34.262C99.6788 34.172 99.8048 34.1 99.8048 33.326V28.466C99.8048 27.188 99.3908 26.756 98.2388 26.756C97.3568 26.756 96.3128 27.116 95.7728 27.314V33.326C95.7728 34.1 95.8628 34.172 96.2408 34.262L96.9788 34.46V35ZM110.649 34.154C109.875 34.73 108.705 35.216 107.499 35.216C105.771 35.216 103.881 34.118 103.881 30.698C103.881 27.188 106.347 25.568 108.957 25.568C109.731 25.568 110.307 25.658 110.667 25.784C110.658 25.7171 110.653 25.6451 110.648 25.568C110.644 25.4999 110.64 25.4279 110.631 25.352C110.613 25.082 110.613 24.758 110.613 24.416V23.336C110.613 22.6168 110.488 22.5621 110.075 22.3826L110.073 22.382L109.317 22.022V21.518L112.341 21.23L112.521 21.374C112.503 21.518 112.485 21.698 112.467 21.914C112.431 22.274 112.413 22.796 112.413 23.48V32.93C112.413 33.722 112.521 33.848 112.953 34.046L113.619 34.352V34.838L110.757 35.216L110.631 35.108L110.721 34.154H110.649ZM105.771 30.338C105.771 32.93 106.743 33.992 108.489 33.992C109.443 33.992 110.03 33.6931 110.439 33.4849C110.501 33.4534 110.559 33.424 110.613 33.398V27.116C110.199 26.738 109.677 26.36 108.831 26.36C106.959 26.36 105.771 27.422 105.771 30.338ZM123.999 35H119.013V34.442L119.823 34.28C120.255 34.226 120.399 34.082 120.399 33.2V24.308C120.399 23.426 120.291 23.336 120.003 23.282L119.013 23.066V22.526H124.125C127.095 22.526 128.625 23.858 128.625 26.144C128.625 28.394 126.951 30.14 124.647 30.14C123.909 30.14 123.495 29.996 123.369 29.906V29.366C125.529 29.456 126.591 28.772 126.591 26.324C126.591 24.182 125.871 23.318 124.017 23.318C123.279 23.318 122.631 23.372 122.361 23.444V33.2C122.361 34.082 122.415 34.226 122.937 34.28L123.999 34.442V35ZM133.805 35H129.575V34.46L130.313 34.262C130.673 34.172 130.799 34.028 130.799 33.326V23.336C130.799 22.6168 130.673 22.5621 130.26 22.3826L130.259 22.382L129.485 22.022V21.518L132.545 21.23L132.725 21.374C132.717 21.4517 132.706 21.5327 132.695 21.617C132.679 21.7282 132.663 21.8452 132.653 21.968C132.617 22.346 132.599 22.85 132.599 23.48V33.326C132.599 34.1 132.689 34.172 133.067 34.262L133.805 34.46V35ZM139.894 34.172C139.462 34.766 138.472 35.234 137.392 35.234C135.718 35.234 134.656 34.406 134.656 32.84C134.656 31.346 135.7 30.626 137.806 30.14L139.912 29.672V27.998C139.912 26.774 139.732 26.252 138.202 26.252C137.41 26.252 137.284 26.414 137.212 26.972C137.122 27.674 136.942 28.178 136.132 28.178C135.412 28.178 135.178 27.764 135.178 27.278C135.178 26.072 137.068 25.55 138.58 25.55C140.758 25.55 141.712 26.324 141.712 27.89V33.2C141.712 33.686 141.838 33.938 142.198 34.136C142.396 34.262 142.666 34.28 143.08 34.298V34.802C142.792 35 142.126 35.216 141.496 35.216C140.578 35.216 140.11 34.766 139.984 34.172H139.894ZM136.492 32.696C136.492 33.758 137.104 34.208 138.166 34.208C139.03 34.208 139.642 33.812 139.912 33.362V30.59L138.526 30.734C137.23 30.86 136.492 31.346 136.492 32.696ZM151.734 34.01C151.158 34.496 149.934 35.216 148.206 35.216C145.416 35.216 143.958 33.254 143.958 30.536C143.958 26.666 146.856 25.55 149.088 25.55C150.816 25.55 151.626 26.144 151.626 27.062C151.626 27.62 151.194 28.232 150.564 28.232C149.862 28.232 149.646 27.854 149.556 27.26C149.43 26.45 149.25 26.324 148.62 26.324C147.108 26.324 145.866 27.296 145.866 29.888C145.866 32.606 146.928 34.064 148.962 34.064C150.186 34.064 151.14 33.632 151.734 33.29V34.01ZM160.65 34.028C160.164 34.424 158.886 35.216 157.158 35.216C154.17 35.216 152.712 33.254 152.712 30.32C152.712 27.44 154.782 25.55 157.158 25.55C159.444 25.55 160.83 26.774 160.83 30.14H154.62C154.674 32.876 155.934 34.064 157.752 34.064C159.1 34.064 159.903 33.6721 160.592 33.3359L160.65 33.308V34.028ZM158.814 29.168C158.814 27.08 158.472 26.306 157.086 26.306C155.772 26.306 154.782 27.242 154.638 29.384L158.814 29.168Z" fill="#D3D3D3"/>
</g>
<defs>
<filter id="filter0_d" x="0" y="0" width="66.18" height="89.4545" filterUnits="userSpaceOnUse" color-interpolation-filters="sRGB">
<feFlood flood-opacity="0" result="BackgroundImageFix"/>
<feColorMatrix in="SourceAlpha" type="matrix" values="0 0 0 0 0 0 0 0 0 0 0 0 0 0 0 0 0 0 127 0"/>
<feOffset dx="4" dy="4"/>
<feGaussianBlur stdDeviation="2"/>
<feColorMatrix type="matrix" values="0 0 0 0 0 0 0 0 0 0 0 0 0 0 0 0 0 0 0.25 0"/>
<feBlend mode="normal" in2="BackgroundImageFix" result="effect1_dropShadow"/>
<feBlend mode="normal" in="SourceGraphic" in2="effect1_dropShadow" result="shape"/>
</filter>
<filter id="filter1_d" x="66" y="6" width="120" height="53" filterUnits="userSpaceOnUse" color-interpolation-filters="sRGB">
<feFlood flood-opacity="0" result="BackgroundImageFix"/>
<feColorMatrix in="SourceAlpha" type="matrix" values="0 0 0 0 0 0 0 0 0 0 0 0 0 0 0 0 0 0 127 0"/>
<feOffset dx="4" dy="4"/>
<feGaussianBlur stdDeviation="2"/>
<feColorMatrix type="matrix" values="0 0 0 0 0 0 0 0 0 0 0 0 0 0 0 0 0 0 0.25 0"/>
<feBlend mode="normal" in2="BackgroundImageFix" result="effect1_dropShadow"/>
<feBlend mode="normal" in="SourceGraphic" in2="effect1_dropShadow" result="shape"/>
</filter>
</defs>
</svg>
