<svg width="266" height="90" viewBox="0 0 266 90" fill="none" xmlns="http://www.w3.org/2000/svg">
<g filter="url(#filter0_d)">
<path fill-rule="evenodd" clip-rule="evenodd" d="M81 6C72.7157 6 66 12.7157 66 21V36C66 44.2843 72.7157 51 81 51H243C251.284 51 258 44.2843 258 36V21C258 12.7157 251.284 6 243 6H81ZM88.6038 35H83.8158V34.442L84.6258 34.28C85.0578 34.226 85.2018 34.082 85.2018 33.2V24.308C85.2018 23.39 85.0578 23.318 84.6258 23.228L83.8158 23.066V22.526H88.6038V23.066L87.7398 23.228C87.2358 23.336 87.1638 23.426 87.1638 24.308V28.232H92.6718V24.308C92.6718 23.426 92.5998 23.318 92.1138 23.228L91.2498 23.066V22.526H96.0378V23.066L95.2098 23.228C94.7598 23.336 94.6338 23.39 94.6338 24.308V33.2C94.6338 34.118 94.7418 34.19 95.2098 34.28L96.0378 34.442V35H91.2498V34.442L92.1138 34.28C92.5998 34.19 92.6718 34.118 92.6718 33.2V29.06H87.1638V33.2C87.1638 34.118 87.2358 34.19 87.7398 34.28L88.6038 34.442V35ZM106.126 30.302C106.126 33.47 103.948 35.234 101.59 35.234C99.0158 35.234 97.0358 33.596 97.0358 30.41C97.0358 27.26 99.2318 25.55 101.59 25.55C104.128 25.55 106.126 27.134 106.126 30.302ZM99.0158 30.158C99.0158 33.236 99.8798 34.46 101.662 34.46C103.3 34.46 104.146 33.272 104.146 30.554C104.146 27.512 103.264 26.306 101.518 26.306C99.8798 26.306 99.0158 27.44 99.0158 30.158ZM111.422 35H107.192V34.46L107.93 34.262C108.29 34.172 108.416 34.028 108.416 33.326V27.746C108.416 27.0696 108.341 27.0283 107.981 26.832C107.949 26.8142 107.914 26.795 107.876 26.774L107.192 26.432V25.964L110.036 25.586L110.216 25.694L110.126 26.702H110.198C111.098 26.126 112.448 25.568 113.6 25.568C115.418 25.568 116.048 26.324 116.048 27.962V33.326C116.048 34.028 116.192 34.172 116.534 34.262L117.254 34.46V35H113.042V34.46L113.78 34.262C114.122 34.172 114.248 34.1 114.248 33.326V28.466C114.248 27.188 113.834 26.756 112.682 26.756C111.8 26.756 110.756 27.116 110.216 27.314V33.326C110.216 34.1 110.306 34.172 110.684 34.262L111.422 34.46V35ZM127.343 30.302C127.343 33.47 125.165 35.234 122.807 35.234C120.233 35.234 118.253 33.596 118.253 30.41C118.253 27.26 120.449 25.55 122.807 25.55C125.345 25.55 127.343 27.134 127.343 30.302ZM120.233 30.158C120.233 33.236 121.097 34.46 122.879 34.46C124.517 34.46 125.363 33.272 125.363 30.554C125.363 27.512 124.481 26.306 122.735 26.306C121.097 26.306 120.233 27.44 120.233 30.158ZM132.819 35H128.409V34.46L129.147 34.262C129.507 34.172 129.633 34.028 129.633 33.326V27.746C129.633 27.0696 129.557 27.0283 129.198 26.832C129.166 26.8142 129.131 26.795 129.093 26.774L128.409 26.432V25.964L131.253 25.586L131.433 25.73L131.343 26.774H131.415C132.045 26.144 133.143 25.55 134.061 25.55C134.799 25.55 135.249 25.928 135.249 26.63C135.249 27.296 134.799 27.638 134.277 27.638C133.611 27.638 133.413 27.476 133.251 27.062C133.125 26.792 133.035 26.756 132.837 26.756C132.441 26.756 131.775 27.206 131.433 27.548V33.326C131.433 34.082 131.523 34.208 131.901 34.262L132.819 34.46V35ZM141.171 34.172C140.739 34.766 139.749 35.234 138.669 35.234C136.995 35.234 135.933 34.406 135.933 32.84C135.933 31.346 136.977 30.626 139.083 30.14L141.189 29.672V27.998C141.189 26.774 141.009 26.252 139.479 26.252C138.687 26.252 138.561 26.414 138.489 26.972C138.399 27.674 138.219 28.178 137.409 28.178C136.689 28.178 136.455 27.764 136.455 27.278C136.455 26.072 138.345 25.55 139.857 25.55C142.035 25.55 142.989 26.324 142.989 27.89V33.2C142.989 33.686 143.115 33.938 143.475 34.136C143.673 34.262 143.943 34.28 144.357 34.298V34.802C144.069 35 143.403 35.216 142.773 35.216C141.855 35.216 141.387 34.766 141.261 34.172H141.171ZM137.769 32.696C137.769 33.758 138.381 34.208 139.443 34.208C140.307 34.208 140.919 33.812 141.189 33.362V30.59L139.803 30.734C138.507 30.86 137.769 31.346 137.769 32.696ZM154.433 29.978C154.433 33.398 152.255 35.216 149.285 35.216C147.899 35.216 146.909 35.054 145.883 34.55V23.336C145.883 22.6527 145.753 22.5854 145.417 22.4111C145.399 22.4017 145.38 22.3921 145.361 22.382L144.587 22.022V21.518L147.629 21.23L147.809 21.374C147.803 21.4237 147.794 21.4777 147.785 21.536C147.768 21.6466 147.749 21.7726 147.737 21.914C147.701 22.274 147.683 22.796 147.683 23.48V25.118C147.683 25.532 147.665 25.91 147.647 26.18C147.638 26.2585 147.634 26.3328 147.629 26.4048C147.625 26.4815 147.62 26.5558 147.611 26.63H147.683C148.457 26.054 149.591 25.568 150.815 25.568C152.543 25.568 154.433 26.558 154.433 29.978ZM147.683 33.794C148.187 34.226 148.709 34.406 149.483 34.406C151.553 34.406 152.543 33.308 152.543 30.338C152.543 27.872 151.517 26.702 149.951 26.702C148.709 26.702 148.115 27.044 147.683 27.314V33.794ZM159.78 35H155.55V34.46L156.288 34.262C156.648 34.172 156.774 34.028 156.774 33.326V23.336C156.774 22.6168 156.648 22.5621 156.235 22.3826L156.234 22.382L155.46 22.022V21.518L158.52 21.23L158.7 21.374C158.692 21.4517 158.681 21.5327 158.669 21.617C158.654 21.7282 158.638 21.8452 158.628 21.968C158.592 22.346 158.574 22.85 158.574 23.48V33.326C158.574 34.1 158.664 34.172 159.042 34.262L159.78 34.46V35ZM168.695 34.028C168.209 34.424 166.931 35.216 165.203 35.216C162.215 35.216 160.757 33.254 160.757 30.32C160.757 27.44 162.827 25.55 165.203 25.55C167.489 25.55 168.875 26.774 168.875 30.14H162.665C162.719 32.876 163.979 34.064 165.797 34.064C167.145 34.064 167.948 33.6721 168.637 33.3359L168.695 33.308V34.028ZM166.859 29.168C166.859 27.08 166.517 26.306 165.131 26.306C163.817 26.306 162.827 27.242 162.683 29.384L166.859 29.168ZM178.334 35H174.554V34.442L175.184 34.316C175.706 34.226 175.94 34.1 175.94 33.02V24.308C175.94 23.39 175.796 23.318 175.364 23.228L174.554 23.066V22.526H178.46L181.772 32.03H181.826L185.03 22.526H188.792V23.066L187.964 23.228C187.532 23.318 187.406 23.39 187.406 24.308V33.2C187.406 34.118 187.532 34.19 187.964 34.28L188.792 34.442V35H184.202V34.442L184.958 34.28C185.444 34.19 185.516 34.118 185.516 33.2V23.66H185.444L181.826 34.712H180.89L176.984 23.66H176.912V33.02C176.912 34.1 177.056 34.226 177.668 34.316L178.334 34.442V35ZM197.716 34.028C197.23 34.424 195.952 35.216 194.224 35.216C191.236 35.216 189.778 33.254 189.778 30.32C189.778 27.44 191.848 25.55 194.224 25.55C196.51 25.55 197.896 26.774 197.896 30.14H191.686C191.74 32.876 193 34.064 194.818 34.064C196.167 34.064 196.97 33.6721 197.659 33.3359L197.716 33.308V34.028ZM195.88 29.168C195.88 27.08 195.538 26.306 194.152 26.306C192.838 26.306 191.848 27.242 191.704 29.384L195.88 29.168ZM203.18 35H198.95V34.46L199.688 34.262C200.048 34.172 200.174 34.028 200.174 33.326V27.746C200.174 27.0696 200.098 27.0283 199.739 26.832C199.707 26.8142 199.672 26.795 199.634 26.774L198.95 26.432V25.964L201.794 25.586L201.974 25.694L201.884 26.702H201.956C202.856 26.126 204.206 25.568 205.358 25.568C207.176 25.568 207.806 26.324 207.806 27.962V33.326C207.806 34.028 207.95 34.172 208.292 34.262L209.012 34.46V35H204.8V34.46L205.538 34.262C205.88 34.172 206.006 34.1 206.006 33.326V28.466C206.006 27.188 205.592 26.756 204.44 26.756C203.558 26.756 202.514 27.116 201.974 27.314V33.326C201.974 34.1 202.064 34.172 202.442 34.262L203.18 34.46V35ZM215.284 34.496C214.942 34.802 214.15 35.216 212.926 35.216C211.792 35.216 210.838 34.694 210.838 33.326V26.792H209.578V26.27C210.82 25.928 211.45 25.082 211.936 23.624H212.638V25.838H215.23L214.996 26.792H212.638V33.056C212.638 33.794 213.052 34.172 213.862 34.172C214.384 34.172 214.924 34.046 215.284 33.92V34.496ZM219.206 22.778C219.206 23.372 218.666 23.948 218 23.948C217.298 23.948 216.776 23.372 216.776 22.778C216.776 22.13 217.298 21.608 218 21.608C218.666 21.608 219.206 22.13 219.206 22.778ZM220.178 35H215.948V34.46L216.686 34.262C217.046 34.172 217.172 34.028 217.172 33.326V27.746C217.172 27.0696 217.096 27.0283 216.737 26.832C216.705 26.8142 216.67 26.795 216.632 26.774L215.948 26.432V25.964L218.918 25.586L219.098 25.694C219.091 25.7476 219.082 25.8062 219.072 25.8688C219.056 25.9745 219.037 26.0917 219.026 26.216C218.99 26.558 218.972 27.062 218.972 27.71V33.326C218.972 34.1 219.062 34.172 219.44 34.262L220.178 34.46V35ZM230.227 30.302C230.227 33.47 228.049 35.234 225.691 35.234C223.117 35.234 221.137 33.596 221.137 30.41C221.137 27.26 223.333 25.55 225.691 25.55C228.229 25.55 230.227 27.134 230.227 30.302ZM223.117 30.158C223.117 33.236 223.981 34.46 225.763 34.46C227.401 34.46 228.247 33.272 228.247 30.554C228.247 27.512 227.365 26.306 225.619 26.306C223.981 26.306 223.117 27.44 223.117 30.158ZM235.524 35H231.294V34.46L232.032 34.262C232.392 34.172 232.518 34.028 232.518 33.326V27.746C232.518 27.0696 232.442 27.0283 232.083 26.832C232.05 26.8142 232.015 26.795 231.978 26.774L231.294 26.432V25.964L234.138 25.586L234.318 25.694L234.228 26.702H234.3C235.2 26.126 236.55 25.568 237.702 25.568C239.52 25.568 240.15 26.324 240.15 27.962V33.326C240.15 34.028 240.294 34.172 240.636 34.262L241.356 34.46V35H237.144V34.46L237.882 34.262C238.224 34.172 238.35 34.1 238.35 33.326V28.466C238.35 27.188 237.936 26.756 236.784 26.756C235.902 26.756 234.858 27.116 234.318 27.314V33.326C234.318 34.1 234.408 34.172 234.786 34.262L235.524 34.46V35Z" fill="#E7B089"/>
</g>
<g filter="url(#filter1_d)">
<path fill-rule="evenodd" clip-rule="evenodd" d="M29.0286 48.0757C39.5836 48.1252 48.0911 39.3621 48.0663 29.0952C48.071 18.6362 39.5765 10.1135 29.1325 10.1006C26.6331 10.0945 24.1571 10.5818 21.8466 11.5347C19.5361 12.4878 17.4364 13.8874 15.6682 15.6538C13.9 17.4202 12.4979 19.5183 11.5425 21.8276C10.5871 24.1372 10.0971 26.6125 10.1007 29.1118C10.0948 39.4612 18.5256 48.0273 29.0286 48.0757ZM20.61 35H15.493V34.3879L16.156 34.2519C16.632 34.1499 16.785 34.0649 16.785 33.1299V25.0891C16.785 24.154 16.632 24.052 16.156 23.9499L15.493 23.814V23.219H20.61V23.814L19.913 23.9499C19.403 24.0859 19.284 24.137 19.284 25.0891V28.54H23.874V25.0891C23.874 24.137 23.772 24.0859 23.279 23.9499L22.582 23.814V23.219H27.699V23.814L27.002 23.9499C26.526 24.0349 26.373 24.154 26.373 25.0891V33.1299C26.373 34.0784 26.508 34.1155 26.9965 34.2505L27.002 34.2519L27.699 34.3879V35H22.582V34.3879L23.279 34.2519C23.772 34.116 23.874 34.082 23.874 33.1299V29.4241H19.284V33.1299C19.284 34.082 19.386 34.116 19.913 34.2519L20.61 34.3879V35ZM32.3293 35H28.6913V34.3879L29.2522 34.269L29.2545 34.2683C29.7799 34.1331 29.9833 34.0803 29.9833 32.96V25.0891C29.9833 24.154 29.8302 24.052 29.3543 23.9499L28.6913 23.814V23.219H33.0773L35.8312 31.345H35.8822L38.5852 23.219H42.7843V23.814L42.1043 23.9499L42.0888 23.9543C41.6418 24.0869 41.4923 24.1311 41.4923 25.0891V33.1299C41.4923 34.0649 41.6282 34.116 42.1043 34.2519L42.7843 34.3879V35H37.8203V34.3879L38.4833 34.2519C38.9763 34.116 39.0783 34.082 39.0783 33.1299V24.4431H39.0103L35.7123 34.7451H34.6242L31.0712 24.4431H31.0032V32.9089C31.0032 34.0649 31.1223 34.1331 31.7683 34.269L32.3293 34.3879V35Z" fill="#E7B089"/>
<path fill-rule="evenodd" clip-rule="evenodd" d="M53.9185 17.7512C54.037 17.2788 54.1492 16.8049 54.2615 16.3308C54.3114 16.1201 54.3613 15.9094 54.4118 15.699C54.3363 14.283 53.7261 13.2502 52.461 12.6675C51.9207 12.4351 51.3617 12.2488 50.79 12.1103C50.3589 11.9941 49.9243 11.8906 49.4898 11.7873C48.95 11.6589 48.4103 11.5305 47.8775 11.3774C46.741 11.0518 45.9869 10.2825 45.5809 9.18139C45.4291 8.77124 45.305 8.35083 45.1812 7.93115L45.1195 7.7229L45.078 7.57934L45.0501 7.479L45.0162 7.354L44.9943 7.27197L44.9492 7.09912L44.8863 6.85351L44.8857 6.85131C44.7313 6.24658 44.5772 5.64282 44.3312 5.07836C43.681 3.583 42.3746 2.91284 40.7637 3.20776C39.8149 3.37109 38.8844 3.62719 37.9857 3.97265C35.5759 4.94482 33.657 4.30175 32.0662 2.35937C31.9794 2.24804 31.8889 2.13964 31.7949 2.03417C31.6928 1.91992 31.5865 1.80957 31.4762 1.70312L31.3985 1.63208L31.2214 1.46826C30.8881 1.15844 30.5545 0.848628 30.1781 0.597407C29.0487 -0.163579 27.8485 -0.209722 26.6884 0.529048C26.2012 0.858882 25.7506 1.23999 25.3443 1.66552C25.2294 1.77978 25.1159 1.8955 25.0034 2.0122C24.8849 2.13525 24.7674 2.25927 24.6506 2.38403L24.5377 2.50488L24.2703 2.79272C23.9815 3.10424 23.6928 3.41552 23.3959 3.71874C22.3963 4.7395 21.1879 5.13012 19.7895 4.79394C19.1849 4.64892 18.5863 4.47924 17.9875 4.30932L17.5242 4.17846C17.3515 4.12988 17.1787 4.08203 17.0056 4.03515C14.545 3.3684 12.8232 4.37255 12.2096 6.85083C12.0197 7.53247 11.8661 8.22387 11.7493 8.92187C11.4059 11.3977 9.91542 12.6875 7.53865 13.0969C7.47245 13.1057 7.4066 13.1169 7.34123 13.1304C7.29109 13.1406 7.24122 13.1523 7.19169 13.1653C7.00288 13.2217 6.81169 13.2727 6.62022 13.324L6.60173 13.3291L6.58351 13.3342L6.56565 13.3394C6.03416 13.4819 5.50129 13.6252 5.00965 13.8545C3.56166 14.5271 2.93385 15.8088 3.16987 17.3877C3.23359 17.7754 3.32228 18.1584 3.43537 18.5347C3.67967 19.3845 3.9275 20.2329 4.20008 21.073C4.7335 22.7051 4.32402 24.0942 3.13798 25.2825C2.869 25.5525 2.59123 25.8135 2.31349 26.0745L2.30937 26.0789L2.30525 26.0825C1.94114 26.4248 1.57725 26.7668 1.23329 27.1282C-0.424794 28.8652 -0.405903 30.7048 1.25926 32.4385C1.36378 32.5454 1.47334 32.6462 1.58256 32.7476C1.6324 32.7937 1.68214 32.8401 1.7313 32.887C1.87703 33.0266 2.02357 33.1655 2.17042 33.3042L2.40278 33.5232C2.90818 33.999 3.41349 34.4748 3.89564 34.9734C4.77717 35.8867 5.08638 36.9995 4.80903 38.2373C4.64866 38.9434 4.4665 39.6433 4.28434 40.3433L4.28233 40.3506C4.17433 40.7656 4.06633 41.1807 3.9629 41.5972C3.71507 42.5872 3.81538 43.5054 4.39836 44.3916C5.07811 45.4324 6.1237 45.7639 7.21766 46.0437C7.60536 46.1409 7.99476 46.2332 8.38426 46.3257L8.39076 46.3271L8.39653 46.3286L8.40156 46.3301C8.98088 46.4675 9.56038 46.605 10.1349 46.7588C11.341 47.0811 12.1612 47.8516 12.5907 49.021C12.7485 49.4539 12.8774 49.8972 13.0061 50.3398L13.0474 50.4819C13.1285 50.7615 13.2001 51.0449 13.2716 51.3281C13.4167 51.9026 13.5617 52.477 13.7862 53.019C14.4152 54.5356 15.7239 55.2236 17.3561 54.9875C17.7649 54.9265 18.1691 54.8374 18.5657 54.7207C19.4496 54.467 20.3359 54.1958 21.2198 53.9302C22.6418 53.5017 23.9128 53.779 24.9961 54.7856C25.4853 55.24 25.9477 55.7236 26.4099 56.2073C26.5454 56.3489 26.6809 56.4905 26.8171 56.6313C28.7973 58.6836 30.7421 58.687 32.7106 56.6313C32.9006 56.4331 33.0835 56.2266 33.2747 56.0283C33.4577 55.8403 33.638 55.6501 33.8182 55.4602L33.8203 55.458L33.8258 55.4521C34.2241 55.032 34.6217 54.6128 35.0448 54.218C35.4401 53.8289 35.9267 53.5449 36.46 53.3921C36.9933 53.2395 37.5564 53.2227 38.0978 53.3437C38.9072 53.5005 39.7067 53.7046 40.4923 53.9548C43.5783 54.9675 45.3438 53.9822 46.0648 50.8372C46.2867 49.8801 46.5097 48.9207 46.7729 47.9766C47.1069 46.7729 47.8963 45.9551 49.0765 45.5657C49.8943 45.2954 50.7357 45.0913 51.5712 44.8755C52.6074 44.6074 53.6211 44.29 54.3292 43.4275C55.2685 42.2769 55.1305 40.9834 54.7422 39.6724C54.4306 38.6374 54.1144 37.605 53.8406 36.5618C53.535 35.3933 53.8076 34.3267 54.5841 33.4192C54.8909 33.0603 55.2268 32.7266 55.5631 32.3926C55.7984 32.1589 56.0339 31.925 56.2598 31.6821C56.3657 31.5684 56.4737 31.4558 56.5817 31.3433C56.9637 30.9456 57.3467 30.5464 57.643 30.0867C58.39 28.9373 58.3475 27.7324 57.5792 26.5981C57.2471 26.1367 56.873 25.707 56.4617 25.3144C56.1398 24.9919 55.809 24.6789 55.4783 24.366L55.4735 24.3616L55.4656 24.3542C55.0437 23.9553 54.622 23.5566 54.2194 23.1394C53.3981 22.2898 53.1113 21.2407 53.3284 20.0901C53.4244 19.5688 53.5658 19.0552 53.7073 18.5415C53.7797 18.2786 53.8522 18.0154 53.9185 17.7512ZM29.09 8.34716C40.5489 8.34716 49.8117 17.6272 49.8282 29.1164C49.8304 34.6069 47.6519 39.8733 43.7718 43.7576C39.8917 47.6421 34.6276 49.8264 29.1372 49.8306C17.7998 49.8542 8.37419 40.8455 8.33995 29.1013C8.30693 17.6472 17.631 8.34716 29.09 8.34716Z" fill="#E7B089"/>
<path d="M58.0914 72.8999L46.9346 53.5796C45.1337 56.2549 42.7145 56.4661 39.9966 55.614C39.9198 55.5896 39.8427 55.5659 39.7655 55.5422L39.49 55.4585L39.3729 55.4224C39.2055 55.3706 39.0385 55.3174 38.8731 55.26C37.4629 54.7715 36.3324 55.103 35.3576 56.2654L35.2506 56.3933C34.0281 57.8535 32.7926 59.3298 30.7492 59.8057L43.2254 81.4519C43.2648 81.3647 43.2986 81.2913 43.3282 81.2273L43.3415 81.1987C43.3683 81.1406 43.3916 81.0903 43.4123 81.0439L43.4407 80.9792C43.4531 80.9502 43.4646 80.9221 43.4756 80.8938L44.2338 78.9404C45.1616 76.5513 46.0894 74.1621 46.9983 71.7659C47.1658 71.3223 47.3688 71.2278 47.8161 71.301C49.4895 71.5767 51.1655 71.8337 52.8413 72.0908C53.3601 72.1704 53.8789 72.25 54.3976 72.3301L58.0914 72.8999Z" fill="#E7B089"/>
<path d="M0.0873828 65.0596C3.32682 59.4529 6.49897 53.9631 9.68528 48.4509C9.95942 48.5046 10.2148 48.6289 10.4259 48.8118C10.6371 48.9944 10.7968 49.2295 10.889 49.4929C11.0311 49.8826 11.1396 50.2847 11.2481 50.6865C11.3594 51.0991 11.4707 51.5117 11.6183 51.9109C11.6922 52.1096 11.7632 52.3115 11.8345 52.5142C12.1166 53.3154 12.4023 54.1267 12.8752 54.7974C14.2488 56.7458 16.2621 57.0691 18.4536 56.5417C19.261 56.3467 20.0523 56.0862 20.8426 55.8259L21.168 55.7187C21.2741 55.6841 21.3803 55.6494 21.4865 55.6152C22.7114 55.2258 23.6331 55.7334 24.4096 56.6135C24.5088 56.7317 24.4863 57.0515 24.3966 57.2036C24.2539 57.4504 24.1105 57.6968 23.9666 57.9426C23.6556 58.4741 23.3422 59.0041 23.0289 59.5339L23.0198 59.5493C22.522 60.3911 22.0242 61.2327 21.5361 62.0811C20.8618 63.2512 20.1987 64.428 19.5357 65.6045C19.0532 66.4607 18.5708 67.3169 18.0842 68.1702C17.1495 69.8093 16.196 71.439 15.2519 73.0723C15.2017 73.1584 15.1477 73.2424 15.079 73.3472L14.9947 73.4748L14.8979 73.6221C14.7515 73.2466 14.6096 72.8874 14.4713 72.5376L14.4643 72.52C14.3447 72.2175 14.2279 71.9216 14.1132 71.6282C14.0295 71.4138 13.9469 71.2007 13.8653 70.9871C12.9495 68.6269 12.0278 66.2666 11.1297 63.896C10.9834 63.5112 10.817 63.4075 10.3969 63.4758C7.78062 63.8979 5.162 64.301 2.54353 64.7041L0.67271 64.9922C0.652782 64.9961 0.632457 64.9995 0.611339 65.0029L0.557903 65.0105C0.530437 65.0139 0.501415 65.0171 0.470165 65.0205C0.371563 65.0308 0.250804 65.041 0.0873828 65.0596Z" fill="#E7B089"/>
</g>
<defs>
<filter id="filter0_d" x="66" y="6" width="200" height="53" filterUnits="userSpaceOnUse" color-interpolation-filters="sRGB">
<feFlood flood-opacity="0" result="BackgroundImageFix"/>
<feColorMatrix in="SourceAlpha" type="matrix" values="0 0 0 0 0 0 0 0 0 0 0 0 0 0 0 0 0 0 127 0"/>
<feOffset dx="4" dy="4"/>
<feGaussianBlur stdDeviation="2"/>
<feColorMatrix type="matrix" values="0 0 0 0 0 0 0 0 0 0 0 0 0 0 0 0 0 0 0.25 0"/>
<feBlend mode="normal" in2="BackgroundImageFix" result="effect1_dropShadow"/>
<feBlend mode="normal" in="SourceGraphic" in2="effect1_dropShadow" result="shape"/>
</filter>
<filter id="filter1_d" x="0" y="0" width="66.18" height="89.4519" filterUnits="userSpaceOnUse" color-interpolation-filters="sRGB">
<feFlood flood-opacity="0" result="BackgroundImageFix"/>
<feColorMatrix in="SourceAlpha" type="matrix" values="0 0 0 0 0 0 0 0 0 0 0 0 0 0 0 0 0 0 127 0"/>
<feOffset dx="4" dy="4"/>
<feGaussianBlur stdDeviation="2"/>
<feColorMatrix type="matrix" values="0 0 0 0 0 0 0 0 0 0 0 0 0 0 0 0 0 0 0.25 0"/>
<feBlend mode="normal" in2="BackgroundImageFix" result="effect1_dropShadow"/>
<feBlend mode="normal" in="SourceGraphic" in2="effect1_dropShadow" result="shape"/>
</filter>
</defs>
</svg>
