<svg width="390" height="90" viewBox="0 0 390 90" fill="none" xmlns="http://www.w3.org/2000/svg">
<g filter="url(#filter0_d)">
<path fill-rule="evenodd" clip-rule="evenodd" d="M54.2609 16.3342C54.311 16.1226 54.3611 15.911 54.4118 15.6995C54.3362 14.2833 53.7261 13.2507 52.461 12.6678C51.9206 12.4355 51.3617 12.2492 50.79 12.1108C50.3582 11.9942 49.9228 11.8907 49.4875 11.7871L49.4875 11.7871C48.9485 11.6589 48.4095 11.5307 47.8775 11.3779C46.741 11.0522 45.9869 10.2827 45.581 9.1817C45.4291 8.77173 45.3051 8.35133 45.1812 7.93169L45.1812 7.93166L45.1812 7.93162L45.1812 7.93158L45.1812 7.93155L45.1195 7.72307C45.0346 7.43541 44.9601 7.14349 44.8857 6.85173L44.8856 6.85154L44.8856 6.85133C44.7313 6.2467 44.5771 5.6427 44.3312 5.07843C43.681 3.58322 42.3746 2.91291 40.7637 3.20794C39.8149 3.37121 38.8844 3.62735 37.9857 3.97265C35.5759 4.94507 33.657 4.30191 32.0662 2.35943C31.8852 2.1271 31.6881 1.90784 31.4762 1.70329C31.3915 1.6262 31.3075 1.54816 31.2235 1.4701L31.2234 1.47007L31.2233 1.46998L31.2233 1.46991L31.2231 1.46974C30.8892 1.15956 30.5551 0.849178 30.178 0.597516C29.0487 -0.16366 27.8485 -0.209685 26.6884 0.529069C26.2012 0.858935 25.7506 1.23992 25.3443 1.66552C24.9764 2.03145 24.6235 2.412 24.2707 2.79247C23.9818 3.10404 23.6929 3.41555 23.3959 3.71893C22.3963 4.73973 21.1879 5.13035 19.7895 4.79402C19.1836 4.64868 18.5838 4.47856 17.9837 4.30838L17.9837 4.30837L17.9836 4.30835C17.658 4.21599 17.3323 4.12363 17.0056 4.0352C14.545 3.36843 12.8232 4.37271 12.2096 6.85096C12.0197 7.53273 11.8661 8.22406 11.7493 8.92207C11.4059 11.398 9.91541 12.6878 7.53865 13.0973C7.4217 13.113 7.30583 13.1358 7.1917 13.1658C6.98544 13.2271 6.77635 13.2832 6.56705 13.3394C6.03509 13.4822 5.50171 13.6255 5.00966 13.855C3.56165 14.5276 2.93383 15.8092 3.16985 17.3882C3.23358 17.7759 3.32228 18.1591 3.43538 18.5353C3.67967 19.385 3.92749 20.2335 4.2001 21.0737C4.73351 22.7059 4.32401 24.0949 3.13799 25.2832C2.86648 25.5558 2.58605 25.8194 2.30571 26.0829L2.30568 26.0829C1.94144 26.4253 1.57738 26.7675 1.23328 27.1289C-0.424786 28.8661 -0.405904 30.7059 1.25924 32.4395C1.35747 32.54 1.46011 32.6351 1.56274 32.7302C1.61918 32.7825 1.6756 32.8347 1.73129 32.8879C1.95377 33.1013 2.17826 33.3127 2.40274 33.5241L2.40281 33.5242L2.40295 33.5243L2.40324 33.5246L2.40335 33.5247L2.4034 33.5247L2.40342 33.5247C2.90861 34.0005 3.41371 34.4761 3.89563 34.9744C4.77718 35.8878 5.08637 37.0006 4.80904 38.2386C4.64869 38.9442 4.4666 39.6439 4.28449 40.3436C4.17575 40.7614 4.06701 41.1792 3.96289 41.5984C3.71507 42.5885 3.81538 43.5066 4.39836 44.3929C5.07811 45.4338 6.12369 45.7654 7.21766 46.0451C7.60488 46.1421 7.9938 46.2344 8.38284 46.3268C8.96839 46.4658 9.55421 46.6049 10.1349 46.7602C11.341 47.0824 12.1612 47.853 12.5907 49.0225C12.7484 49.455 12.8772 49.898 13.0058 50.3403L13.0474 50.4835C13.1285 50.763 13.2001 51.0463 13.2716 51.3296C13.4167 51.9041 13.5617 52.4786 13.7862 53.0207C14.4152 54.5372 15.724 55.2252 17.3561 54.9892C17.7649 54.9282 18.1691 54.8391 18.5657 54.7225C19.2427 54.5281 19.9211 54.3234 20.5988 54.1189C20.8059 54.0564 21.0129 53.9939 21.2198 53.9318C22.6418 53.5034 23.9128 53.7807 24.9961 54.7874C25.4861 55.2426 25.9491 55.7268 26.4121 56.2109L26.4126 56.2115L26.4132 56.2121L26.4138 56.2127C26.548 56.3531 26.6822 56.4934 26.8171 56.6331C28.7973 58.6853 30.7421 58.6888 32.7106 56.6331C32.8019 56.5378 32.8916 56.4406 32.9813 56.3433C33.0783 56.2382 33.1754 56.133 33.2747 56.03C33.4596 55.84 33.6418 55.6478 33.8239 55.4558L33.8242 55.4555L33.8243 55.4554L33.8243 55.4553L33.8244 55.4552L33.8245 55.4552C34.2233 55.0347 34.6213 54.615 35.0449 54.2197C35.4401 53.8305 35.9267 53.5465 36.46 53.3937C36.9933 53.241 37.5564 53.2243 38.0978 53.3453C38.9072 53.5021 39.7067 53.7062 40.4923 53.9566C43.5783 54.9691 45.3437 53.9837 46.0648 50.8387C46.2867 49.8816 46.5097 48.9222 46.7729 47.9781C47.1068 46.7744 47.8963 45.9565 49.0765 45.5671C49.7667 45.339 50.4738 45.158 51.18 44.9772L51.1801 44.9772L51.1802 44.9772L51.1803 44.9771L51.1804 44.9771C51.3108 44.9437 51.4411 44.9104 51.5712 44.8767C52.6074 44.6088 53.6211 44.2914 54.3292 43.4287C55.2685 42.2781 55.1305 40.9847 54.7422 39.6736L54.6428 39.3439L54.6427 39.3436C54.3639 38.419 54.0853 37.4951 53.8406 36.5628C53.5349 35.3945 53.8076 34.3277 54.5841 33.4201C54.891 33.0611 55.227 32.7274 55.5633 32.3933L55.5634 32.3932L55.5635 32.3932L55.5635 32.3932L55.5635 32.3932C55.7987 32.1596 56.0341 31.9258 56.2598 31.683C56.3655 31.5696 56.4731 31.4575 56.5809 31.3452L56.5809 31.3452L56.5809 31.3452C56.9632 30.947 57.3465 30.5478 57.6429 30.0875C58.39 28.9381 58.3475 27.7332 57.5792 26.5991C57.2471 26.1375 56.873 25.7077 56.4616 25.3151C56.1355 24.9885 55.8002 24.6713 55.465 24.3543C55.0433 23.9555 54.6218 23.557 54.2194 23.1401C53.3981 22.2905 53.1113 21.2413 53.3284 20.0907C53.4244 19.5695 53.5658 19.056 53.7072 18.5424C53.7797 18.2792 53.8521 18.016 53.9185 17.7517C54.0367 17.2804 54.1488 16.8073 54.2609 16.3342ZM29.09 8.34735C40.5489 8.34735 49.8117 17.6278 49.8282 29.1174C49.8304 34.6079 47.6519 39.8744 43.7718 43.759C39.8917 47.6435 34.6276 49.828 29.1372 49.8321C17.7998 49.8557 8.37418 40.8466 8.33995 29.1021C8.30691 17.6479 17.631 8.34735 29.09 8.34735ZM58.0914 72.9022L46.9345 53.5813C45.1337 56.2566 42.7144 56.4679 39.9966 55.6158C39.871 55.5762 39.7449 55.5378 39.6187 55.4993L39.6177 55.499L39.6176 55.499C39.3684 55.4231 39.1189 55.3471 38.8732 55.2618C37.4629 54.7732 36.3324 55.1048 35.3576 56.2672L35.25 56.3957C34.0278 57.8558 32.7923 59.3318 30.7492 59.8076L43.2254 81.4545C43.2696 81.3565 43.3069 81.2759 43.3391 81.2064L43.3392 81.2062C43.398 81.0789 43.4398 80.9886 43.4756 80.8963C43.7248 80.2536 43.9743 79.611 44.2238 78.9685L44.2267 78.9611L44.2296 78.9536L44.2325 78.9462L44.2354 78.9387L44.2357 78.938C45.1629 76.5504 46.09 74.1629 46.9983 71.7681C47.1658 71.3244 47.3688 71.23 47.8161 71.3031C49.5011 71.5808 51.1889 71.8396 52.8762 72.0984L52.8814 72.0992L52.8865 72.0999C53.3903 72.1772 53.894 72.2544 54.3976 72.3322L58.0914 72.9022ZM0.0873855 65.0615C3.32681 59.4547 6.49897 53.9648 9.68529 48.4525C9.95942 48.506 10.2148 48.6304 10.4259 48.8132C10.6371 48.996 10.7968 49.2309 10.889 49.4945C11.0312 49.8843 11.1397 50.2865 11.2482 50.6887C11.3595 51.1011 11.4707 51.5135 11.6183 51.9126C11.6921 52.1113 11.7631 52.3131 11.8344 52.5155L11.8344 52.5156C12.1165 53.3169 12.4022 54.1284 12.8751 54.7992C14.2488 56.7475 16.2621 57.0709 18.4536 56.5434C19.2616 56.3483 20.0536 56.0875 20.8444 55.827L20.8446 55.827L20.8447 55.8269L20.8448 55.8269C21.0587 55.7565 21.2725 55.6861 21.4865 55.617C22.7114 55.2276 23.6331 55.735 24.4096 56.6154C24.5088 56.7334 24.4863 57.0532 24.3966 57.2054C23.9455 57.986 23.487 58.7612 23.0286 59.5362C22.5278 60.3829 22.0271 61.2295 21.536 62.0829C20.8616 63.2533 20.1983 64.4305 19.5351 65.6076L19.5344 65.6088C19.0523 66.4643 18.5704 67.3196 18.0842 68.1723C17.4493 69.2857 16.8057 70.3948 16.1623 71.5036L16.1623 71.5036L16.1622 71.5037L16.1619 71.5043C15.8582 72.0276 15.5546 72.5509 15.2519 73.0745C15.1874 73.1852 15.1164 73.2928 15.0161 73.4447C14.9807 73.4984 14.9416 73.5576 14.8979 73.6244C14.7517 73.2497 14.61 72.8911 14.472 72.5418C14.2623 72.011 14.061 71.5016 13.8653 70.9892C13.7046 70.5752 13.5438 70.1612 13.383 69.7472L13.3829 69.7469C12.6268 67.8005 11.8703 65.8528 11.1298 63.8979C10.9834 63.5132 10.817 63.4093 10.3969 63.4778C7.78849 63.8987 5.17778 64.3005 2.56724 64.7023L2.56605 64.7025L2.56477 64.7027L2.56347 64.7029C1.9332 64.7999 1.30294 64.8969 0.672724 64.9942C0.58604 65.0114 0.491784 65.0206 0.359993 65.0333H0.359976H0.359968C0.283638 65.0407 0.194718 65.0494 0.0873855 65.0615ZM29.0286 48.0772C39.5836 48.1268 48.0911 39.3632 48.0663 29.0962C48.071 18.6368 39.5765 10.114 29.1325 10.101C26.6331 10.0948 24.1571 10.5822 21.8466 11.5351C19.5361 12.4881 17.4364 13.8879 15.6682 15.6543C13.9 17.4207 12.4979 19.5188 11.5425 21.8284C10.5871 24.1379 10.0971 26.6134 10.1007 29.1127C10.0948 39.4624 18.5256 48.0288 29.0286 48.0772ZM27.6079 31.379C27.6079 33.504 26.0949 35.204 23.2559 35.204C21.7429 35.204 20.5529 34.949 19.7879 34.694L19.5839 31.464H20.2809C20.6889 32.331 20.9609 32.875 21.4199 33.487C21.8789 34.082 22.3209 34.337 23.3919 34.337C24.7689 34.337 25.6359 33.487 25.6359 32.518C25.6359 31.498 24.9899 30.886 22.8989 30.019C20.6039 29.067 19.7539 28.115 19.7539 26.381C19.7539 24.443 21.3689 23.015 23.7999 23.015C25.2109 23.015 26.0779 23.134 26.7409 23.338L26.9449 26.245H26.2649C25.8569 25.344 25.6529 24.987 25.2449 24.494C24.9049 24.103 24.5139 23.865 23.6469 23.865C22.4229 23.865 21.5559 24.579 21.5559 25.599C21.5559 26.483 21.9809 26.942 23.9529 27.758C26.5879 28.846 27.6079 29.798 27.6079 31.379ZM33.9839 35H28.6629V34.388L29.3259 34.252C29.8019 34.15 29.9549 34.065 29.9549 33.13V25.089C29.9549 24.137 29.8189 24.069 29.4619 23.984L28.6629 23.814V23.219H33.9499C36.9589 23.219 38.5229 24.426 38.5229 26.721C38.5229 28.761 36.9929 30.478 34.7999 30.478C34.0519 30.478 33.6269 30.308 33.4739 30.223V29.645C35.1569 29.696 35.9559 29.101 35.9559 26.857C35.9559 24.817 35.3609 24.052 33.7969 24.052C33.2019 24.052 32.6579 24.103 32.4539 24.171V33.13C32.4539 34.031 32.5049 34.15 33.0999 34.235L33.9839 34.388V35Z" fill="#E7B089"/>
</g>
<g filter="url(#filter1_d)">
<path fill-rule="evenodd" clip-rule="evenodd" d="M81 6C72.7157 6 66 12.7157 66 21V36C66 44.2843 72.7157 51 81 51H367C375.284 51 382 44.2843 382 36V21C382 12.7157 375.284 6 367 6H81ZM91.712 31.328C91.712 33.506 90.254 35.234 87.356 35.234C85.862 35.234 84.638 34.964 83.828 34.694L83.63 31.328H84.296C84.3154 31.3736 84.3344 31.4184 84.3531 31.4624C84.6819 32.2364 84.9162 32.7878 85.376 33.452C85.862 34.118 86.312 34.352 87.536 34.352C89.174 34.352 90.092 33.38 90.092 32.246C90.092 31.076 89.336 30.41 87.086 29.402C84.89 28.394 83.864 27.512 83.864 25.694C83.864 23.768 85.466 22.292 87.86 22.292C89.246 22.292 90.2 22.418 90.83 22.616L91.064 25.64H90.416C90.3902 25.5819 90.3655 25.5263 90.3418 25.4728C89.9681 24.6307 89.8354 24.3319 89.48 23.858C89.138 23.48 88.76 23.156 87.734 23.156C86.366 23.156 85.34 23.966 85.34 25.136C85.34 26.18 85.826 26.702 87.896 27.62C90.596 28.826 91.712 29.78 91.712 31.328ZM97.3886 38.942H92.9246V38.42L93.6626 38.222C94.0406 38.132 94.1486 37.988 94.1486 37.286V27.746C94.1486 27.0696 94.073 27.0283 93.7139 26.832C93.6812 26.8142 93.6462 26.795 93.6086 26.774L92.9246 26.432V25.964L95.7686 25.586L95.9486 25.694L95.8766 26.63H95.9486C96.7226 26.054 97.8566 25.568 99.0626 25.568C100.791 25.568 102.681 26.558 102.681 29.978C102.681 33.398 100.629 35.216 97.4966 35.216C97.0106 35.216 96.3806 35.126 95.8946 34.982C95.8946 35.072 95.8946 35.198 95.9126 35.324C95.9306 35.54 95.9486 35.828 95.9486 36.134V37.286C95.9486 38.042 96.0386 38.168 96.4166 38.222L97.3886 38.42V38.942ZM95.9486 33.74C96.4346 34.172 96.9386 34.406 97.7126 34.406C99.7826 34.406 100.791 33.308 100.791 30.338C100.791 27.872 99.7826 26.702 97.9826 26.702C97.0778 26.702 96.4631 27.0356 96.0733 27.2471C96.0288 27.2712 95.9873 27.2937 95.9486 27.314V33.74ZM111.923 34.028C111.437 34.424 110.159 35.216 108.431 35.216C105.443 35.216 103.985 33.254 103.985 30.32C103.985 27.44 106.055 25.55 108.431 25.55C110.717 25.55 112.103 26.774 112.103 30.14H105.893C105.947 32.876 107.207 34.064 109.025 34.064C110.374 34.064 111.177 33.6721 111.866 33.3359C111.885 33.3265 111.904 33.3172 111.923 33.308V34.028ZM110.087 29.168C110.087 27.08 109.745 26.306 108.359 26.306C107.045 26.306 106.055 27.242 105.911 29.384L110.087 29.168ZM121.095 34.01C120.519 34.496 119.295 35.216 117.567 35.216C114.777 35.216 113.319 33.254 113.319 30.536C113.319 26.666 116.217 25.55 118.449 25.55C120.177 25.55 120.987 26.144 120.987 27.062C120.987 27.62 120.555 28.232 119.925 28.232C119.223 28.232 119.007 27.854 118.917 27.26C118.791 26.45 118.611 26.324 117.981 26.324C116.469 26.324 115.227 27.296 115.227 29.888C115.227 32.606 116.289 34.064 118.323 34.064C119.547 34.064 120.501 33.632 121.095 33.29V34.01ZM125.345 22.778C125.345 23.372 124.805 23.948 124.139 23.948C123.437 23.948 122.915 23.372 122.915 22.778C122.915 22.13 123.437 21.608 124.139 21.608C124.805 21.608 125.345 22.13 125.345 22.778ZM126.317 35H122.087V34.46L122.825 34.262C123.185 34.172 123.311 34.028 123.311 33.326V27.746C123.311 27.0696 123.235 27.0283 122.876 26.832C122.843 26.8142 122.808 26.795 122.771 26.774L122.087 26.432V25.964L125.057 25.586L125.237 25.694C125.23 25.7476 125.221 25.8062 125.211 25.8689C125.194 25.9745 125.176 26.0917 125.165 26.216C125.129 26.558 125.111 27.062 125.111 27.71V33.326C125.111 34.1 125.201 34.172 125.579 34.262L126.317 34.46V35ZM132.388 34.172C131.956 34.766 130.966 35.234 129.886 35.234C128.212 35.234 127.15 34.406 127.15 32.84C127.15 31.346 128.194 30.626 130.3 30.14L132.406 29.672V27.998C132.406 26.774 132.226 26.252 130.696 26.252C129.904 26.252 129.778 26.414 129.706 26.972C129.616 27.674 129.436 28.178 128.626 28.178C127.906 28.178 127.672 27.764 127.672 27.278C127.672 26.072 129.562 25.55 131.074 25.55C133.252 25.55 134.206 26.324 134.206 27.89V33.2C134.206 33.686 134.332 33.938 134.692 34.136C134.89 34.262 135.16 34.28 135.574 34.298V34.802C135.286 35 134.62 35.216 133.99 35.216C133.072 35.216 132.604 34.766 132.478 34.172H132.388ZM128.986 32.696C128.986 33.758 129.598 34.208 130.66 34.208C131.524 34.208 132.136 33.812 132.406 33.362V30.59L131.02 30.734C129.724 30.86 128.986 31.346 128.986 32.696ZM140.52 35H136.29V34.46L137.028 34.262C137.388 34.172 137.514 34.028 137.514 33.326V23.336C137.514 22.6168 137.388 22.5621 136.975 22.3826L136.974 22.382L136.2 22.022V21.518L139.26 21.23L139.44 21.374C139.432 21.4517 139.421 21.5327 139.409 21.617C139.394 21.7282 139.378 21.8452 139.368 21.968C139.332 22.346 139.314 22.85 139.314 23.48V33.326C139.314 34.1 139.404 34.172 139.782 34.262L140.52 34.46V35ZM150.946 35H145.96V34.442L146.77 34.28C147.202 34.226 147.346 34.082 147.346 33.2V24.308C147.346 23.426 147.238 23.336 146.95 23.282L145.96 23.066V22.526H151.072C154.042 22.526 155.572 23.858 155.572 26.144C155.572 28.394 153.898 30.14 151.594 30.14C150.856 30.14 150.442 29.996 150.316 29.906V29.366C152.476 29.456 153.538 28.772 153.538 26.324C153.538 24.182 152.818 23.318 150.964 23.318C150.226 23.318 149.578 23.372 149.308 23.444V33.2C149.308 34.082 149.362 34.226 149.884 34.28L150.946 34.442V35ZM160.932 35H156.522V34.46L157.26 34.262C157.62 34.172 157.746 34.028 157.746 33.326V27.746C157.746 27.0696 157.671 27.0283 157.312 26.832C157.279 26.8142 157.244 26.795 157.206 26.774L156.522 26.432V25.964L159.366 25.586L159.546 25.73L159.456 26.774H159.528C160.158 26.144 161.256 25.55 162.174 25.55C162.912 25.55 163.362 25.928 163.362 26.63C163.362 27.296 162.912 27.638 162.39 27.638C161.724 27.638 161.526 27.476 161.364 27.062C161.238 26.792 161.148 26.756 160.95 26.756C160.554 26.756 159.888 27.206 159.546 27.548V33.326C159.546 34.082 159.636 34.208 160.014 34.262L160.932 34.46V35ZM167.444 22.778C167.444 23.372 166.904 23.948 166.238 23.948C165.536 23.948 165.014 23.372 165.014 22.778C165.014 22.13 165.536 21.608 166.238 21.608C166.904 21.608 167.444 22.13 167.444 22.778ZM168.416 35H164.186V34.46L164.924 34.262C165.284 34.172 165.41 34.028 165.41 33.326V27.746C165.41 27.0696 165.335 27.0283 164.976 26.832C164.943 26.8142 164.908 26.795 164.87 26.774L164.186 26.432V25.964L167.156 25.586L167.336 25.694C167.33 25.7476 167.32 25.8062 167.311 25.8689C167.294 25.9745 167.276 26.0917 167.264 26.216C167.228 26.558 167.21 27.062 167.21 27.71V33.326C167.21 34.1 167.3 34.172 167.678 34.262L168.416 34.46V35ZM176.558 35H169.214V34.406L174.794 26.612V26.54H173.3C171.842 26.54 171.536 26.648 171.248 27.08C170.87 27.638 170.654 28.07 170.294 28.844H169.736L169.862 25.838H176.936V26.396L171.32 34.226V34.298H172.634C174.614 34.298 174.92 34.082 175.298 33.506C175.73 32.876 175.964 32.372 176.198 31.778H176.774L176.558 35ZM185.874 34.028C185.388 34.424 184.11 35.216 182.382 35.216C179.394 35.216 177.936 33.254 177.936 30.32C177.936 27.44 180.006 25.55 182.382 25.55C184.668 25.55 186.054 26.774 186.054 30.14H179.844C179.898 32.876 181.158 34.064 182.976 34.064C184.325 34.064 185.128 33.6721 185.817 33.3359L185.874 33.308V34.028ZM184.038 29.168C184.038 27.08 183.696 26.306 182.31 26.306C180.996 26.306 180.006 27.242 179.862 29.384L184.038 29.168ZM196.09 35H191.626V34.46L192.364 34.262C192.724 34.172 192.85 34.028 192.85 33.326V26.792H191.572V26.252L192.85 25.82V24.83C192.85 22.598 194.524 21.194 196.882 21.194C198.034 21.194 198.556 21.626 198.556 22.328C198.556 22.742 198.25 23.21 197.674 23.21C196.972 23.21 196.63 22.832 196.558 22.31C196.504 21.95 196.468 21.86 196.198 21.86C195.496 21.86 194.65 22.364 194.65 23.876V25.838H196.756L196.486 26.792H194.65V33.236C194.65 34.082 194.74 34.19 195.118 34.262L196.09 34.46V35ZM206.538 30.302C206.538 33.47 204.36 35.234 202.002 35.234C199.428 35.234 197.448 33.596 197.448 30.41C197.448 27.26 199.644 25.55 202.002 25.55C204.54 25.55 206.538 27.134 206.538 30.302ZM199.428 30.158C199.428 33.236 200.292 34.46 202.074 34.46C203.712 34.46 204.558 33.272 204.558 30.554C204.558 27.512 203.676 26.306 201.93 26.306C200.292 26.306 199.428 27.44 199.428 30.158ZM212.014 35H207.604V34.46L208.342 34.262C208.702 34.172 208.828 34.028 208.828 33.326V27.746C208.828 27.0696 208.753 27.0283 208.394 26.832C208.361 26.8142 208.326 26.795 208.288 26.774L207.604 26.432V25.964L210.448 25.586L210.628 25.73L210.538 26.774H210.61C211.24 26.144 212.338 25.55 213.256 25.55C213.994 25.55 214.444 25.928 214.444 26.63C214.444 27.296 213.994 27.638 213.472 27.638C212.806 27.638 212.608 27.476 212.446 27.062C212.32 26.792 212.23 26.756 212.032 26.756C211.636 26.756 210.97 27.206 210.628 27.548V33.326C210.628 34.082 210.718 34.208 211.096 34.262L212.014 34.46V35ZM224.792 35H219.806V34.442L220.616 34.28C221.048 34.226 221.192 34.082 221.192 33.2V24.308C221.192 23.426 221.084 23.336 220.796 23.282L219.806 23.066V22.526H224.918C227.888 22.526 229.418 23.858 229.418 26.144C229.418 28.394 227.744 30.14 225.44 30.14C224.702 30.14 224.288 29.996 224.162 29.906V29.366C226.322 29.456 227.384 28.772 227.384 26.324C227.384 24.182 226.664 23.318 224.81 23.318C224.072 23.318 223.424 23.372 223.154 23.444V33.2C223.154 34.082 223.208 34.226 223.73 34.28L224.792 34.442V35ZM239.268 30.302C239.268 33.47 237.09 35.234 234.732 35.234C232.158 35.234 230.178 33.596 230.178 30.41C230.178 27.26 232.374 25.55 234.732 25.55C237.27 25.55 239.268 27.134 239.268 30.302ZM232.158 30.158C232.158 33.236 233.022 34.46 234.804 34.46C236.442 34.46 237.288 33.272 237.288 30.554C237.288 27.512 236.406 26.306 234.66 26.306C233.022 26.306 232.158 27.44 232.158 30.158ZM248.435 34.028C247.949 34.424 246.671 35.216 244.943 35.216C241.955 35.216 240.497 33.254 240.497 30.32C240.497 27.44 242.567 25.55 244.943 25.55C247.229 25.55 248.615 26.774 248.615 30.14H242.405C242.459 32.876 243.719 34.064 245.537 34.064C246.885 34.064 247.689 33.6721 248.378 33.3359L248.435 33.308V34.028ZM246.599 29.168C246.599 27.08 246.257 26.306 244.871 26.306C243.557 26.306 242.567 27.242 242.423 29.384L246.599 29.168ZM255.105 34.496C254.763 34.802 253.971 35.216 252.747 35.216C251.613 35.216 250.659 34.694 250.659 33.326V26.792H249.399V26.27C250.641 25.928 251.271 25.082 251.757 23.624H252.459V25.838H255.051L254.817 26.792H252.459V33.056C252.459 33.794 252.873 34.172 253.683 34.172C254.205 34.172 254.745 34.046 255.105 33.92V34.496ZM260.266 35H255.856V34.46L256.594 34.262C256.954 34.172 257.08 34.028 257.08 33.326V27.746C257.08 27.0696 257.005 27.0283 256.646 26.832C256.613 26.8142 256.578 26.795 256.54 26.774L255.856 26.432V25.964L258.7 25.586L258.88 25.73L258.79 26.774H258.862C259.492 26.144 260.59 25.55 261.508 25.55C262.246 25.55 262.696 25.928 262.696 26.63C262.696 27.296 262.246 27.638 261.724 27.638C261.058 27.638 260.86 27.476 260.698 27.062C260.572 26.792 260.482 26.756 260.284 26.756C259.888 26.756 259.222 27.206 258.88 27.548V33.326C258.88 34.082 258.97 34.208 259.348 34.262L260.266 34.46V35ZM268.108 36.062C267.388 37.826 266.56 39.068 265.012 39.068C263.878 39.068 263.464 38.492 263.464 37.898C263.464 37.34 263.788 36.926 264.346 36.926C264.922 36.926 265.192 37.25 265.318 37.664C265.408 37.934 265.444 37.988 265.606 37.988C266.02 37.988 266.578 37.412 267.136 36.098L267.568 35.072L264.544 27.71C264.166 26.774 264.094 26.648 263.608 26.504L263.176 26.36V25.838H267.28V26.36L266.794 26.486C266.38 26.612 266.272 26.684 266.272 27.026C266.272 27.242 266.362 27.566 266.542 27.998L268.486 32.822H268.558L270.322 27.998C270.484 27.512 270.538 27.17 270.538 26.954C270.538 26.648 270.376 26.576 270.034 26.486L269.53 26.36V25.838H272.788V26.36L272.284 26.504C271.852 26.648 271.762 26.846 271.366 27.89L268.108 36.062ZM280.964 22.778C280.964 23.372 280.424 23.948 279.758 23.948C279.056 23.948 278.534 23.372 278.534 22.778C278.534 22.13 279.056 21.608 279.758 21.608C280.424 21.608 280.964 22.13 280.964 22.778ZM281.936 35H277.706V34.46L278.444 34.262C278.804 34.172 278.93 34.028 278.93 33.326V27.746C278.93 27.0696 278.854 27.0283 278.495 26.832C278.462 26.8142 278.427 26.795 278.39 26.774L277.706 26.432V25.964L280.676 25.586L280.856 25.694C280.849 25.7476 280.84 25.8062 280.83 25.8688C280.814 25.9745 280.795 26.0917 280.784 26.216C280.748 26.558 280.73 27.062 280.73 27.71V33.326C280.73 34.1 280.82 34.172 281.198 34.262L281.936 34.46V35ZM286.963 35H282.733V34.46L283.471 34.262C283.831 34.172 283.957 34.028 283.957 33.326V27.746C283.957 27.0696 283.882 27.0283 283.522 26.832C283.49 26.8142 283.455 26.795 283.417 26.774L282.733 26.432V25.964L285.577 25.586L285.757 25.694L285.667 26.702H285.739C286.639 26.126 287.989 25.568 289.141 25.568C290.959 25.568 291.589 26.324 291.589 27.962V33.326C291.589 34.028 291.733 34.172 292.075 34.262L292.795 34.46V35H288.583V34.46L289.321 34.262C289.663 34.172 289.789 34.1 289.789 33.326V28.466C289.789 27.188 289.375 26.756 288.223 26.756C287.341 26.756 286.297 27.116 285.757 27.314V33.326C285.757 34.1 285.847 34.172 286.225 34.262L286.963 34.46V35ZM303.657 35H298.257V34.442L299.067 34.28C299.499 34.226 299.643 34.082 299.643 33.2V24.308C299.643 23.39 299.499 23.318 299.067 23.228L298.257 23.066V22.526H303.207C305.889 22.526 307.635 23.354 307.635 25.46C307.635 27.17 306.537 28.034 304.575 28.376V28.448C307.041 28.646 308.301 29.618 308.301 31.49C308.301 33.776 306.447 35 303.657 35ZM301.605 23.426V28.124H303.153C304.737 28.124 305.655 27.278 305.655 25.82C305.655 23.858 304.845 23.318 303.045 23.318C302.487 23.318 301.947 23.354 301.605 23.426ZM301.605 32.804C301.605 34.046 301.803 34.208 303.477 34.208C305.151 34.208 306.213 33.524 306.213 31.742C306.213 29.78 305.421 28.934 303.405 28.934H301.605V32.804ZM312.64 22.778C312.64 23.372 312.1 23.948 311.434 23.948C310.732 23.948 310.21 23.372 310.21 22.778C310.21 22.13 310.732 21.608 311.434 21.608C312.1 21.608 312.64 22.13 312.64 22.778ZM313.612 35H309.382V34.46L310.12 34.262C310.48 34.172 310.606 34.028 310.606 33.326V27.746C310.606 27.0696 310.53 27.0283 310.171 26.832C310.138 26.8142 310.103 26.795 310.066 26.774L309.382 26.432V25.964L312.352 25.586L312.532 25.694C312.525 25.7476 312.516 25.8062 312.506 25.8688C312.489 25.9745 312.471 26.0917 312.46 26.216C312.424 26.558 312.406 27.062 312.406 27.71V33.326C312.406 34.1 312.496 34.172 312.874 34.262L313.612 34.46V35ZM318.639 35H314.409V34.46L315.147 34.262C315.507 34.172 315.633 34.028 315.633 33.326V27.746C315.633 27.0696 315.557 27.0283 315.198 26.832C315.166 26.8142 315.131 26.795 315.093 26.774L314.409 26.432V25.964L317.253 25.586L317.433 25.694L317.343 26.702H317.415C318.315 26.126 319.665 25.568 320.817 25.568C322.635 25.568 323.265 26.324 323.265 27.962V33.326C323.265 34.028 323.409 34.172 323.751 34.262L324.471 34.46V35H320.259V34.46L320.997 34.262C321.339 34.172 321.465 34.1 321.465 33.326V28.466C321.465 27.188 321.051 26.756 319.899 26.756C319.017 26.756 317.973 27.116 317.433 27.314V33.326C317.433 34.1 317.523 34.172 317.901 34.262L318.639 34.46V35ZM328.565 22.778C328.565 23.372 328.025 23.948 327.359 23.948C326.657 23.948 326.135 23.372 326.135 22.778C326.135 22.13 326.657 21.608 327.359 21.608C328.025 21.608 328.565 22.13 328.565 22.778ZM329.537 35H325.307V34.46L326.045 34.262C326.405 34.172 326.531 34.028 326.531 33.326V27.746C326.531 27.0696 326.456 27.0283 326.097 26.832C326.064 26.8142 326.029 26.795 325.991 26.774L325.307 26.432V25.964L328.277 25.586L328.457 25.694C328.451 25.7476 328.442 25.8061 328.432 25.8687C328.415 25.9744 328.397 26.0916 328.385 26.216C328.349 26.558 328.331 27.062 328.331 27.71V33.326C328.331 34.1 328.421 34.172 328.799 34.262L329.537 34.46V35ZM337.117 32.228C337.117 33.92 335.731 35.216 333.481 35.216C332.455 35.216 331.465 35.09 330.745 34.82L330.655 32.138H331.231C331.281 32.2545 331.327 32.3626 331.37 32.4643C331.587 32.9749 331.734 33.3226 332.095 33.758C332.437 34.172 332.797 34.442 333.661 34.442C334.759 34.442 335.533 33.902 335.533 32.966C335.533 32.012 334.885 31.598 333.409 31.022C331.843 30.41 330.745 29.654 330.745 28.25C330.745 26.594 332.239 25.55 334.129 25.55C335.137 25.55 335.857 25.64 336.487 25.874L336.559 28.286H336.019C335.713 27.656 335.443 27.242 335.101 26.792C334.831 26.45 334.561 26.306 333.913 26.306C332.707 26.306 332.203 26.828 332.203 27.746C332.203 28.448 332.797 28.916 334.309 29.492C336.001 30.176 337.117 30.842 337.117 32.228ZM343.431 34.172C342.999 34.766 342.009 35.234 340.929 35.234C339.255 35.234 338.193 34.406 338.193 32.84C338.193 31.346 339.237 30.626 341.343 30.14L343.449 29.672V27.998C343.449 26.774 343.269 26.252 341.739 26.252C340.947 26.252 340.821 26.414 340.749 26.972C340.659 27.674 340.479 28.178 339.669 28.178C338.949 28.178 338.715 27.764 338.715 27.278C338.715 26.072 340.605 25.55 342.117 25.55C344.295 25.55 345.249 26.324 345.249 27.89V33.2C345.249 33.686 345.375 33.938 345.735 34.136C345.933 34.262 346.203 34.28 346.617 34.298V34.802C346.329 35 345.663 35.216 345.033 35.216C344.115 35.216 343.647 34.766 343.521 34.172H343.431ZM340.029 32.696C340.029 33.758 340.641 34.208 341.703 34.208C342.567 34.208 343.179 33.812 343.449 33.362V30.59L342.063 30.734C340.767 30.86 340.029 31.346 340.029 32.696ZM351.376 36.062C350.656 37.826 349.828 39.068 348.28 39.068C347.146 39.068 346.732 38.492 346.732 37.898C346.732 37.34 347.056 36.926 347.614 36.926C348.19 36.926 348.46 37.25 348.586 37.664C348.676 37.934 348.712 37.988 348.874 37.988C349.288 37.988 349.846 37.412 350.404 36.098L350.836 35.072L347.812 27.71C347.434 26.774 347.362 26.648 346.876 26.504L346.444 26.36V25.838H350.548V26.36L350.062 26.486C349.648 26.612 349.54 26.684 349.54 27.026C349.54 27.242 349.63 27.566 349.81 27.998L351.754 32.822H351.826L353.59 27.998C353.752 27.512 353.806 27.17 353.806 26.954C353.806 26.648 353.644 26.576 353.302 26.486L352.798 26.36V25.838H356.056V26.36L355.552 26.504C355.12 26.648 355.03 26.846 354.634 27.89L351.376 36.062ZM361.642 34.172C361.21 34.766 360.22 35.234 359.14 35.234C357.466 35.234 356.404 34.406 356.404 32.84C356.404 31.346 357.448 30.626 359.554 30.14L361.66 29.672V27.998C361.66 26.774 361.48 26.252 359.95 26.252C359.158 26.252 359.032 26.414 358.96 26.972C358.87 27.674 358.69 28.178 357.88 28.178C357.16 28.178 356.926 27.764 356.926 27.278C356.926 26.072 358.816 25.55 360.328 25.55C362.506 25.55 363.46 26.324 363.46 27.89V33.2C363.46 33.686 363.586 33.938 363.946 34.136C364.144 34.262 364.414 34.28 364.828 34.298V34.802C364.54 35 363.874 35.216 363.244 35.216C362.326 35.216 361.858 34.766 361.732 34.172H361.642ZM358.24 32.696C358.24 33.758 358.852 34.208 359.914 34.208C360.778 34.208 361.39 33.812 361.66 33.362V30.59L360.274 30.734C358.978 30.86 358.24 31.346 358.24 32.696Z" fill="#E7B089"/>
</g>
<defs>
<filter id="filter0_d" x="0" y="0" width="66.18" height="89.4545" filterUnits="userSpaceOnUse" color-interpolation-filters="sRGB">
<feFlood flood-opacity="0" result="BackgroundImageFix"/>
<feColorMatrix in="SourceAlpha" type="matrix" values="0 0 0 0 0 0 0 0 0 0 0 0 0 0 0 0 0 0 127 0"/>
<feOffset dx="4" dy="4"/>
<feGaussianBlur stdDeviation="2"/>
<feColorMatrix type="matrix" values="0 0 0 0 0 0 0 0 0 0 0 0 0 0 0 0 0 0 0.25 0"/>
<feBlend mode="normal" in2="BackgroundImageFix" result="effect1_dropShadow"/>
<feBlend mode="normal" in="SourceGraphic" in2="effect1_dropShadow" result="shape"/>
</filter>
<filter id="filter1_d" x="66" y="6" width="324" height="53" filterUnits="userSpaceOnUse" color-interpolation-filters="sRGB">
<feFlood flood-opacity="0" result="BackgroundImageFix"/>
<feColorMatrix in="SourceAlpha" type="matrix" values="0 0 0 0 0 0 0 0 0 0 0 0 0 0 0 0 0 0 127 0"/>
<feOffset dx="4" dy="4"/>
<feGaussianBlur stdDeviation="2"/>
<feColorMatrix type="matrix" values="0 0 0 0 0 0 0 0 0 0 0 0 0 0 0 0 0 0 0.25 0"/>
<feBlend mode="normal" in2="BackgroundImageFix" result="effect1_dropShadow"/>
<feBlend mode="normal" in="SourceGraphic" in2="effect1_dropShadow" result="shape"/>
</filter>
</defs>
</svg>
