<svg width="67" height="90" viewBox="0 0 67 90" fill="none" xmlns="http://www.w3.org/2000/svg">
<g filter="url(#filter0_d)">
<path fill-rule="evenodd" clip-rule="evenodd" d="M54.2609 16.3342C54.311 16.1226 54.3611 15.911 54.4118 15.6995C54.3362 14.2833 53.7261 13.2507 52.461 12.6678C51.9206 12.4355 51.3617 12.2492 50.79 12.1108C50.3582 11.9942 49.9228 11.8907 49.4875 11.7871L49.4875 11.7871C48.9485 11.6589 48.4095 11.5307 47.8775 11.3779C46.741 11.0522 45.9869 10.2827 45.581 9.1817C45.4291 8.77173 45.3051 8.35133 45.1812 7.93169L45.1812 7.93166L45.1812 7.93162L45.1812 7.93158L45.1812 7.93155L45.1195 7.72307C45.0346 7.43541 44.9601 7.14349 44.8857 6.85173L44.8856 6.85154L44.8856 6.85133C44.7313 6.2467 44.5771 5.6427 44.3312 5.07843C43.681 3.58322 42.3746 2.91291 40.7637 3.20794C39.8149 3.37121 38.8844 3.62735 37.9857 3.97265C35.5759 4.94507 33.657 4.30191 32.0662 2.35943C31.8852 2.1271 31.6881 1.90784 31.4762 1.70329C31.3915 1.6262 31.3075 1.54816 31.2235 1.4701L31.2234 1.47007L31.2233 1.46998L31.2233 1.46991L31.2231 1.46974C30.8892 1.15956 30.5551 0.849178 30.178 0.597516C29.0487 -0.16366 27.8485 -0.209685 26.6884 0.529069C26.2012 0.858935 25.7506 1.23992 25.3443 1.66552C24.9764 2.03145 24.6235 2.412 24.2707 2.79247C23.9818 3.10404 23.6929 3.41555 23.3959 3.71893C22.3963 4.73973 21.1879 5.13035 19.7895 4.79402C19.1836 4.64868 18.5838 4.47856 17.9837 4.30838L17.9837 4.30837L17.9836 4.30835C17.658 4.21599 17.3323 4.12363 17.0056 4.0352C14.545 3.36843 12.8232 4.37271 12.2096 6.85096C12.0197 7.53273 11.8661 8.22406 11.7493 8.92207C11.4059 11.398 9.91541 12.6878 7.53865 13.0973C7.4217 13.113 7.30583 13.1358 7.1917 13.1658C6.98544 13.2271 6.77635 13.2832 6.56705 13.3394C6.03509 13.4822 5.50171 13.6255 5.00966 13.855C3.56165 14.5276 2.93383 15.8092 3.16985 17.3882C3.23358 17.7759 3.32228 18.1591 3.43538 18.5353C3.67967 19.385 3.92749 20.2335 4.2001 21.0737C4.73351 22.7059 4.32401 24.0949 3.13799 25.2832C2.86648 25.5558 2.58605 25.8194 2.30571 26.0829L2.30568 26.0829C1.94144 26.4253 1.57738 26.7675 1.23328 27.1289C-0.424786 28.8661 -0.405904 30.7059 1.25924 32.4395C1.35747 32.54 1.46011 32.6351 1.56274 32.7302C1.61918 32.7825 1.6756 32.8347 1.73129 32.8879C1.95377 33.1013 2.17826 33.3127 2.40274 33.5241L2.40281 33.5242L2.40295 33.5243L2.40324 33.5246L2.40335 33.5247L2.4034 33.5247L2.40342 33.5247C2.90861 34.0005 3.41371 34.4761 3.89563 34.9744C4.77718 35.8878 5.08637 37.0006 4.80904 38.2386C4.64869 38.9442 4.4666 39.6439 4.28449 40.3436C4.17575 40.7614 4.06701 41.1792 3.96289 41.5984C3.71507 42.5885 3.81538 43.5066 4.39836 44.3929C5.07811 45.4338 6.12369 45.7654 7.21766 46.0451C7.60488 46.1421 7.9938 46.2344 8.38284 46.3268C8.96839 46.4658 9.55421 46.6049 10.1349 46.7602C11.341 47.0824 12.1612 47.853 12.5907 49.0225C12.7484 49.455 12.8772 49.898 13.0058 50.3403L13.0474 50.4835C13.1285 50.763 13.2001 51.0463 13.2716 51.3296C13.4167 51.9041 13.5617 52.4786 13.7862 53.0207C14.4152 54.5372 15.724 55.2252 17.3561 54.9892C17.7649 54.9282 18.1691 54.8391 18.5657 54.7225C19.2427 54.5281 19.9211 54.3234 20.5988 54.1189C20.8059 54.0564 21.0129 53.9939 21.2198 53.9318C22.6418 53.5034 23.9128 53.7807 24.9961 54.7874C25.4861 55.2426 25.9491 55.7268 26.4121 56.2109L26.4126 56.2115L26.4132 56.2121L26.4138 56.2127C26.548 56.3531 26.6822 56.4934 26.8171 56.6331C28.7973 58.6853 30.7421 58.6888 32.7106 56.6331C32.8019 56.5378 32.8916 56.4406 32.9813 56.3433C33.0783 56.2382 33.1754 56.133 33.2747 56.03C33.4596 55.84 33.6418 55.6478 33.8239 55.4558L33.8242 55.4555L33.8243 55.4554L33.8243 55.4553L33.8244 55.4552L33.8245 55.4552C34.2233 55.0347 34.6213 54.615 35.0449 54.2197C35.4401 53.8305 35.9267 53.5465 36.46 53.3937C36.9933 53.241 37.5564 53.2243 38.0978 53.3453C38.9072 53.5021 39.7067 53.7062 40.4923 53.9566C43.5783 54.9691 45.3437 53.9837 46.0648 50.8387C46.2867 49.8816 46.5097 48.9222 46.7729 47.9781C47.1068 46.7744 47.8963 45.9565 49.0765 45.5671C49.7667 45.339 50.4738 45.158 51.18 44.9772L51.1801 44.9772L51.1802 44.9772L51.1803 44.9771L51.1804 44.9771C51.3108 44.9437 51.4411 44.9104 51.5712 44.8767C52.6074 44.6088 53.6211 44.2914 54.3292 43.4287C55.2685 42.2781 55.1305 40.9847 54.7422 39.6736L54.6428 39.3439L54.6427 39.3436C54.3639 38.419 54.0853 37.4951 53.8406 36.5628C53.5349 35.3945 53.8076 34.3277 54.5841 33.4201C54.891 33.0611 55.227 32.7274 55.5633 32.3933L55.5634 32.3932L55.5635 32.3932L55.5635 32.3932L55.5635 32.3932C55.7987 32.1596 56.0341 31.9258 56.2598 31.683C56.3655 31.5696 56.4731 31.4575 56.5809 31.3452L56.5809 31.3452L56.5809 31.3452C56.9632 30.947 57.3465 30.5478 57.6429 30.0875C58.39 28.9381 58.3475 27.7332 57.5792 26.5991C57.2471 26.1375 56.873 25.7077 56.4616 25.3151C56.1355 24.9885 55.8002 24.6713 55.465 24.3543C55.0433 23.9555 54.6218 23.557 54.2194 23.1401C53.3981 22.2905 53.1113 21.2413 53.3284 20.0907C53.4244 19.5695 53.5658 19.056 53.7072 18.5424C53.7797 18.2792 53.8521 18.016 53.9185 17.7517C54.0367 17.2804 54.1488 16.8073 54.2609 16.3342ZM29.09 8.34735C40.5489 8.34735 49.8117 17.6278 49.8282 29.1174C49.8304 34.6079 47.6519 39.8744 43.7718 43.759C39.8917 47.6435 34.6276 49.828 29.1372 49.8321C17.7998 49.8557 8.37418 40.8466 8.33995 29.1021C8.30691 17.6479 17.631 8.34735 29.09 8.34735ZM58.0914 72.9022L46.9345 53.5813C45.1337 56.2566 42.7144 56.4679 39.9966 55.6158C39.871 55.5762 39.7449 55.5378 39.6187 55.4993L39.6177 55.499L39.6176 55.499C39.3684 55.4231 39.1189 55.3471 38.8732 55.2618C37.4629 54.7732 36.3324 55.1048 35.3576 56.2672L35.25 56.3957C34.0278 57.8558 32.7923 59.3318 30.7492 59.8076L43.2254 81.4545C43.2696 81.3565 43.3069 81.2759 43.3391 81.2064L43.3392 81.2062C43.398 81.0789 43.4398 80.9886 43.4756 80.8963C43.7248 80.2536 43.9743 79.611 44.2238 78.9685L44.2267 78.9611L44.2296 78.9536L44.2325 78.9462L44.2354 78.9387L44.2357 78.938C45.1629 76.5504 46.09 74.1629 46.9983 71.7681C47.1658 71.3244 47.3688 71.23 47.8161 71.3031C49.5011 71.5808 51.1889 71.8396 52.8762 72.0984L52.8814 72.0992L52.8865 72.0999C53.3903 72.1772 53.894 72.2544 54.3976 72.3322L58.0914 72.9022ZM0.0873855 65.0615C3.32681 59.4547 6.49897 53.9648 9.68529 48.4525C9.95942 48.506 10.2148 48.6304 10.4259 48.8132C10.6371 48.996 10.7968 49.2309 10.889 49.4945C11.0312 49.8843 11.1397 50.2865 11.2482 50.6887C11.3595 51.1011 11.4707 51.5135 11.6183 51.9126C11.6921 52.1113 11.7631 52.3131 11.8344 52.5155L11.8344 52.5156C12.1165 53.3169 12.4022 54.1284 12.8751 54.7992C14.2488 56.7475 16.2621 57.0709 18.4536 56.5434C19.2616 56.3483 20.0536 56.0875 20.8444 55.827L20.8446 55.827L20.8447 55.8269L20.8448 55.8269C21.0587 55.7565 21.2725 55.6861 21.4865 55.617C22.7114 55.2276 23.6331 55.735 24.4096 56.6154C24.5088 56.7334 24.4863 57.0532 24.3966 57.2054C23.9455 57.986 23.487 58.7612 23.0286 59.5362C22.5278 60.3829 22.0271 61.2295 21.536 62.0829C20.8616 63.2533 20.1983 64.4305 19.5351 65.6076L19.5344 65.6088C19.0523 66.4643 18.5704 67.3196 18.0842 68.1723C17.4493 69.2857 16.8057 70.3948 16.1623 71.5036L16.1623 71.5036L16.1622 71.5037L16.1619 71.5043C15.8582 72.0276 15.5546 72.5509 15.2519 73.0745C15.1874 73.1852 15.1164 73.2928 15.0161 73.4447C14.9807 73.4984 14.9416 73.5576 14.8979 73.6244C14.7517 73.2497 14.61 72.8911 14.472 72.5418C14.2623 72.011 14.061 71.5016 13.8653 70.9892C13.7046 70.5752 13.5438 70.1612 13.383 69.7472L13.3829 69.7469C12.6268 67.8005 11.8703 65.8528 11.1298 63.8979C10.9834 63.5132 10.817 63.4093 10.3969 63.4778C7.78849 63.8987 5.17778 64.3005 2.56724 64.7023L2.56605 64.7025L2.56477 64.7027L2.56347 64.7029C1.9332 64.7999 1.30294 64.8969 0.672724 64.9942C0.58604 65.0114 0.491784 65.0206 0.359993 65.0333H0.359976H0.359968C0.283638 65.0407 0.194718 65.0494 0.0873855 65.0615ZM29.0286 48.0772C39.5836 48.1268 48.0911 39.3632 48.0663 29.0962C48.071 18.6368 39.5765 10.114 29.1325 10.101C26.6331 10.0948 24.1571 10.5822 21.8466 11.5351C19.5361 12.4881 17.4364 13.8879 15.6682 15.6543C13.9 17.4207 12.4979 19.5188 11.5425 21.8284C10.5871 24.1379 10.0971 26.6134 10.1007 29.1127C10.0948 39.4624 18.5256 48.0288 29.0286 48.0772ZM27.6079 31.379C27.6079 33.504 26.0949 35.204 23.2559 35.204C21.7429 35.204 20.5529 34.949 19.7879 34.694L19.5839 31.464H20.2809C20.6889 32.331 20.9609 32.875 21.4199 33.487C21.8789 34.082 22.3209 34.337 23.3919 34.337C24.7689 34.337 25.6359 33.487 25.6359 32.518C25.6359 31.498 24.9899 30.886 22.8989 30.019C20.6039 29.067 19.7539 28.115 19.7539 26.381C19.7539 24.443 21.3689 23.015 23.7999 23.015C25.2109 23.015 26.0779 23.134 26.7409 23.338L26.9449 26.245H26.2649C25.8569 25.344 25.6529 24.987 25.2449 24.494C24.9049 24.103 24.5139 23.865 23.6469 23.865C22.4229 23.865 21.5559 24.579 21.5559 25.599C21.5559 26.483 21.9809 26.942 23.9529 27.758C26.5879 28.846 27.6079 29.798 27.6079 31.379ZM33.9839 35H28.6629V34.388L29.3259 34.252C29.8019 34.15 29.9549 34.065 29.9549 33.13V25.089C29.9549 24.137 29.8189 24.069 29.4619 23.984L28.6629 23.814V23.219H33.9499C36.9589 23.219 38.5229 24.426 38.5229 26.721C38.5229 28.761 36.9929 30.478 34.7999 30.478C34.0519 30.478 33.6269 30.308 33.4739 30.223V29.645C35.1569 29.696 35.9559 29.101 35.9559 26.857C35.9559 24.817 35.3609 24.052 33.7969 24.052C33.2019 24.052 32.6579 24.103 32.4539 24.171V33.13C32.4539 34.031 32.5049 34.15 33.0999 34.235L33.9839 34.388V35Z" fill="#E7B089"/>
</g>
<defs>
<filter id="filter0_d" x="0" y="0" width="66.18" height="89.4545" filterUnits="userSpaceOnUse" color-interpolation-filters="sRGB">
<feFlood flood-opacity="0" result="BackgroundImageFix"/>
<feColorMatrix in="SourceAlpha" type="matrix" values="0 0 0 0 0 0 0 0 0 0 0 0 0 0 0 0 0 0 127 0"/>
<feOffset dx="4" dy="4"/>
<feGaussianBlur stdDeviation="2"/>
<feColorMatrix type="matrix" values="0 0 0 0 0 0 0 0 0 0 0 0 0 0 0 0 0 0 0.25 0"/>
<feBlend mode="normal" in2="BackgroundImageFix" result="effect1_dropShadow"/>
<feBlend mode="normal" in="SourceGraphic" in2="effect1_dropShadow" result="shape"/>
</filter>
</defs>
</svg>
